<?xml version="1.0" encoding="UTF-8"?>
<svg width="529px" height="272px" viewBox="0 0 529 272" version="1.1" xmlns="http://www.w3.org/2000/svg" xmlns:xlink="http://www.w3.org/1999/xlink">
    <!-- Generator: Sketch 52.3 (67297) - http://www.bohemiancoding.com/sketch -->
    <title>404 visual</title>
    <desc>Created with Sketch.</desc>
    <defs>
        <polygon id="path-1" points="0.969618354 0.691090032 22.8660811 0.691090032 22.8660811 17.3239179 0.969618354 17.3239179"></polygon>
    </defs>
    <g id="Design" stroke="none" stroke-width="1" fill="none" fill-rule="evenodd">
        <g id="Error-404-1440" transform="translate(-541.000000, -463.000000)">
            <g id="404-visual" transform="translate(541.000000, 463.000000)">
                <ellipse id="Oval" fill="#000000" fill-rule="nonzero" opacity="0.05" cx="85.5" cy="216" rx="85.5" ry="12"></ellipse>
                <ellipse id="Oval-Copy" fill="#000000" fill-rule="nonzero" opacity="0.05" cx="263.5" cy="216" rx="85.5" ry="12"></ellipse>
                <ellipse id="Oval-Copy-2" fill="#000000" fill-rule="nonzero" opacity="0.05" cx="443.5" cy="216" rx="85.5" ry="12"></ellipse>
                <ellipse id="Oval-Copy-4" fill="#000000" fill-rule="nonzero" opacity="0.05" cx="252" cy="260" rx="38" ry="12"></ellipse>
                <path d="M140.809705,137.73613 L168.101725,137.73613 L168.101725,159.215156 C168.101725,161.217872 167.451921,162.945189 166.152295,164.397158 C164.852668,165.849128 162.953243,166.575101 160.453961,166.575101 L140.809705,166.575101 L140.809705,219.596752 L108.419176,219.596752 L108.419176,166.575101 L16.9459222,166.575101 C14.4466405,166.575101 12.2473056,165.799061 10.3478515,164.246955 C8.4483974,162.69485 7.24876017,160.767265 6.74890383,158.464141 L3,139.688769 L105.719965,2.25304465 L140.809705,2.25304465 L140.809705,137.73613 Z M108.419176,66.6901218 C108.419176,63.4857756 108.519145,60.0311417 108.719088,56.3261164 C108.919031,52.6210911 109.268925,48.7659199 109.768781,44.7604871 L42.4384683,137.73613 L108.419176,137.73613 L108.419176,66.6901218 Z M339.951476,111 C339.951476,129.92567 337.927088,146.372731 333.878252,160.341678 C329.829416,174.310625 324.231109,185.851105 317.083163,194.963464 C309.935217,204.075824 301.487772,210.859924 291.740573,215.315968 C281.993374,219.772011 271.471556,222 260.174803,222 C248.878049,222 238.406216,219.772011 228.758989,215.315968 C219.111761,210.859924 210.739293,204.075824 203.641333,194.963464 C196.543373,185.851105 190.995051,174.310625 186.9962,160.341678 C182.997349,146.372731 180.997954,129.92567 180.997954,111 C180.997954,91.9741945 182.997349,75.5020994 186.9962,61.5832206 C190.995051,47.6643418 196.543373,36.1488954 203.641333,27.0365359 C210.739293,17.9241764 219.111761,11.1400764 228.758989,6.68403248 C238.406216,2.22798855 248.878049,0 260.174803,0 C271.471556,0 281.993374,2.22798855 291.740573,6.68403248 C301.487772,11.1400764 309.935217,17.9241764 317.083163,27.0365359 C324.231109,36.1488954 329.829416,47.6643418 333.878252,61.5832206 C337.927088,75.5020994 339.951476,91.9741945 339.951476,111 Z M301.712657,111 C301.712657,95.2786765 300.563005,82.2612153 298.263666,71.947226 C295.964326,61.6332367 292.890256,53.4222227 289.041362,47.3139378 C285.192468,41.2056528 280.768806,36.9249108 275.770243,34.4715832 C270.771679,32.0182557 265.573251,30.7916103 260.174803,30.7916103 C254.876325,30.7916103 249.752875,32.0182557 244.804297,34.4715832 C239.855719,36.9249108 235.482042,41.2056528 231.683134,47.3139378 C227.884225,53.4222227 224.86014,61.6332367 222.610786,71.947226 C220.361433,82.2612153 219.236773,95.2786765 219.236773,111 C219.236773,126.721324 220.361433,139.738785 222.610786,150.052774 C224.86014,160.366763 227.884225,168.577777 231.683134,174.686062 C235.482042,180.794347 239.855719,185.075089 244.804297,187.528417 C249.752875,189.981744 254.876325,191.20839 260.174803,191.20839 C265.573251,191.20839 270.771679,189.981744 275.770243,187.528417 C280.768806,185.075089 285.192468,180.794347 289.041362,174.686062 C292.890256,168.577777 295.964326,160.366763 298.263666,150.052774 C300.563005,139.738785 301.712657,126.721324 301.712657,111 Z M488.70798,137.73613 L516,137.73613 L516,159.215156 C516,161.217872 515.350197,162.945189 514.05057,164.397158 C512.750944,165.849128 510.851518,166.575101 508.352236,166.575101 L488.70798,166.575101 L488.70798,219.596752 L456.317451,219.596752 L456.317451,166.575101 L364.844198,166.575101 C362.344916,166.575101 360.145581,165.799061 358.246127,164.246955 C356.346673,162.69485 355.147036,160.767265 354.647179,158.464141 L350.898275,139.688769 L453.61824,2.25304465 L488.70798,2.25304465 L488.70798,137.73613 Z M456.317451,66.6901218 C456.317451,63.4857756 456.417421,60.0311417 456.617363,56.3261164 C456.817306,52.6210911 457.1672,48.7659199 457.667056,44.7604871 L390.336744,137.73613 L456.317451,137.73613 L456.317451,66.6901218 Z" id="404" fill="#EF1C3B"></path>
                <g id="Group-3" transform="translate(182.000000, 39.000000)">
                    <g id="Group-2" transform="translate(69.581081, 163.162162) scale(-1, 1) translate(-69.581081, -163.162162) translate(43.081081, 102.162162)">
                        <path d="M29.3367203,108.238979 C29.3367203,108.238979 28.0707829,111.028799 28.8305904,115.17057 C35.3293958,118.382606 42.8410737,119.81986 47.0610692,118.974813 C51.2816775,118.129153 52.1254315,117.284107 52.1254315,116.354371 C52.1254315,115.424022 51.9569258,114.494287 48.8337492,113.902693 C45.7111854,113.311099 41.2375122,111.705081 40.1400805,111.028799 C39.0432615,110.352516 37.9458298,108.577121 37.1860223,108.577121 C36.4268275,108.577121 31.8685951,109.844997 29.3367203,108.238979" id="Fill-8" fill="#000000"></path>
                        <path d="M2.29051334,110.756322 C2.29051334,110.756322 1.02457595,113.546141 1.78438348,117.687912 C8.28318887,120.899948 15.7948667,122.337202 20.0148623,121.492156 C24.2354706,120.646496 25.0792246,119.801449 25.0792246,118.871714 C25.0792246,117.941365 24.9107189,117.01163 21.7875423,116.420036 C18.6649784,115.828442 14.1913052,114.222424 13.0938735,113.546141 C11.9970546,112.869859 10.8996229,111.094463 10.1398153,111.094463 C9.38062056,111.094463 4.82238811,112.36234 2.29051334,110.756322" id="Fill-10" fill="#000000"></path>
                        <path d="M-2.54374299e-12,9.37916411e-13 C-2.54374299e-12,9.37916411e-13 0.181373411,49.4017737 0.153187003,57.9933865 C0.0508580848,89.137983 2.09375995,111.690967 2.09375995,111.690967 L12.9185663,111.690967 C12.9185663,111.690967 16.7997122,81.5693858 17.1569443,59.3741814 C17.2323123,54.7089357 19.1483753,28.3830066 19.4547493,25.9282601 C19.7611233,23.4735136 21.7525544,34.9801379 22.2121154,39.7362093 C22.6716764,44.4922807 26.1949774,58.2492938 26.1949774,58.2492938 C26.1949774,58.2492938 25.4290424,74.7163472 26.0417904,84.0750683 C26.6545384,93.4337894 28.6410675,109.555951 28.6410675,109.555951 L39.0626856,109.849907 C39.0626856,109.849907 41.5136777,63.7724735 41.2073037,57.0219206 C40.9009297,50.2713677 37.9903766,9.37916411e-13 37.9903766,9.37916411e-13 L-2.54374299e-12,9.37916411e-13 Z" id="Fill-30" fill="#0182D0"></path>
                    </g>
                    <g id="Group-61">
                        <polygon id="Fill-1" fill="#000000" points="1.05956757 37.854 0.974432432 37.8649459 0.889297297 37.881973 0.805378378 37.9062973 0.723891892 37.9354865 0.643621622 37.971973 0.568216216 38.0133243 0.495243243 38.0595405 0.425918919 38.1130541 0.360243243 38.1702162 0.298216216 38.2334595 0.243486486 38.3003514 0.192405405 38.3708919 0.147405405 38.4450811 0.108486486 38.5229189 0.0744324324 38.6044054 0.0464594595 38.6858919 0.0257837838 38.7685946 0.0111891892 38.8561622 0.00145945946 38.9412973 0.000243243246 39.0300811 0.00389189189 39.1164324 0.0148378378 39.2027838 0.0318648649 39.2879189 0.0561891892 39.3706216 0.0865945946 39.4533243 0.123081081 39.5323784 0.164432432 39.609 0.211864865 39.6807568 0.264162162 39.7512973 0.321324324 39.816973 0.385783784 39.8765676 0.451459459 39.9325135 0.520783784 39.9835946 0.594972973 40.0285946 0.672810811 40.0687297 0.754297297 40.1027838 0.835783784 40.1295405 0.919702703 40.1514324 1.00727027 40.166027 1.09118919 40.1745405 1.60808108 40.2049459 2.12497297 40.2377838 2.6442973 40.2742703 3.16605405 40.3095405 4.2192973 40.3861622 5.27862162 40.4615676 6.34402703 40.5381892 6.87916216 40.5734595 7.41794595 40.6075135 7.95672973 40.6415676 8.4942973 40.671973 9.03551351 40.6999459 9.57794595 40.7267027 10.1191622 40.7498108 10.6603784 40.7704865 11.204027 40.7862973 11.7464595 40.796027 12.2876757 40.8033243 12.5601081 40.8057568 12.8325405 40.8057568 13.104973 40.8057568 13.374973 40.8033243 13.6461892 40.8008919 13.9174054 40.7948108 14.1886216 40.7887297 14.4598378 40.7814324 14.7310541 40.7717027 14.9998378 40.7607568 15.2710541 40.7485946 15.5422703 40.7327838 15.8122703 40.716973 16.0810541 40.6987297 16.3498378 40.6804865 16.6198378 40.6585946 16.8886216 40.6354865 17.1561892 40.6087297 17.424973 40.5807568 17.6925405 40.5515676 17.9625405 40.5199459 18.224027 40.4858919 18.3091622 40.4725135 18.3955135 40.4530541 18.477 40.4262973 18.5572703 40.3922432 18.6351081 40.3533243 18.7092973 40.3083243 18.7810541 40.2584595 18.8491622 40.2037297 18.9124054 40.1441351 18.9707838 40.0784595 19.0242973 40.0103514 19.0705135 39.9373784 19.1130811 39.861973 19.1507838 39.7829189 19.1811892 39.7014324 19.2042973 39.6175135 19.2237568 39.5323784 19.2359189 39.4472432 19.2395676 39.3596757 19.2383514 39.2733243 19.2310541 39.1857568 19.2164595 39.0994054 19.197 39.0167027 19.1702432 38.9315676 19.1361892 38.8537297 19.0972703 38.7734595 19.0547027 38.7004865 19.0036216 38.6275135 18.9488919 38.5606216 18.8880811 38.4973784 18.8224054 38.439 18.7542973 38.3854865 18.6813243 38.3404865 18.6059189 38.2967027 18.5268649 38.2602162 18.4465946 38.2298108 18.3614595 38.2042703 18.2763243 38.186027 18.1924054 38.1762973 18.1048378 38.169 18.0184865 38.1702162 17.9309189 38.1775135 17.6779459 38.2103514 17.4286216 38.2407568 17.1780811 38.2687297 16.9287568 38.2930541 16.6782162 38.3185946 16.424027 38.3404865 16.1710541 38.3599459 15.9180811 38.3781892 15.6651081 38.3952162 15.4109189 38.411027 15.1530811 38.4244054 14.8988919 38.4365676 14.6422703 38.4462973 14.3844324 38.456027 14.1278108 38.4633243 13.869973 38.4706216 13.6109189 38.4742703 13.3518649 38.4779189 13.0915946 38.4791351 12.8325405 38.4791351 12.5722703 38.4791351 12.3107838 38.4779189 11.7865946 38.4706216 11.2624054 38.4596757 10.7357838 38.4438649 10.2103784 38.4244054 9.68010811 38.4037297 9.1547027 38.3757568 8.62564865 38.349 8.09416216 38.3185946 7.56389189 38.2857568 7.03483784 38.2517027 6.50456757 38.2152162 5.44281081 38.141027 4.3847027 38.0656216 3.33024324 37.989 2.80362162 37.9525135 2.27943243 37.9172432 1.75524324 37.8831892 1.23591892 37.8503514 1.14591892 37.8491351"></polygon>
                        <polygon id="Fill-2" fill="#000000" points="3.3002027 -0.000364864864 3.19682432 0.00571621622 3.09344595 0.0190945946 2.99006757 0.0434189189 2.89155405 0.0762567568 2.79668919 0.116391892 2.70547297 0.167472973 2.61912162 0.224635135 2.53641892 0.290310811 2.46222973 0.363283784 2.39290541 0.442337838 2.33209459 0.526256757 2.27858108 0.616256757 2.23358108 0.711121622 2.19952703 0.808418919 2.16912162 0.909364865 2.15209459 1.01152703 2.1447973 1.11490541 2.1447973 1.22071622 2.15331081 1.32531081 2.17155405 1.42747297 2.20074324 1.5272027 2.23844595 1.6245 2.28466216 1.71936486 2.33695946 1.80936486 2.46222973 1.99544595 2.58871622 2.18395946 2.72006757 2.37004054 2.84898649 2.55733784 2.98155405 2.7422027 3.11533784 2.92706757 3.24912162 3.11071622 3.38412162 3.29314865 3.52155405 3.47436486 3.65898649 3.65558108 3.79763514 3.83558108 3.9375 4.01314865 4.07858108 4.19071622 4.22087838 4.36828378 4.50547297 4.71977027 4.79493243 5.06639189 5.08682432 5.4117973 5.38114865 5.75355405 5.67790541 6.09287838 5.97709459 6.43098649 6.27871622 6.76544595 6.57912162 7.09747297 6.88317568 7.42706757 7.18722973 7.75544595 7.4925 8.08504054 8.10182432 8.73571622 8.71114865 9.38031081 9.31439189 10.0261216 9.6147973 10.3459865 9.91398649 10.6670676 10.2107432 10.9869324 10.5038514 11.3092297 10.794527 11.6303108 11.0839865 11.9513919 11.3685811 12.272473 11.6519595 12.5947703 11.9839865 12.9803108 12.3135811 13.3695 12.6431757 13.7599054 12.9703378 14.1503108 13.2962838 14.5443649 13.6197973 14.9420676 13.9433108 15.3397703 14.2656081 15.737473 14.5866892 16.1388243 14.9065541 16.5377432 15.5438514 17.3440946 16.1835811 18.1540946 16.8208784 18.9653108 17.4593919 19.7801757 18.0979054 20.5938243 18.7412838 21.4050405 19.0672297 21.812473 19.3907432 22.217473 19.715473 22.622473 20.0438514 23.0250405 20.3722297 23.4288243 20.7030405 23.8313919 21.0375 24.2303108 21.3719595 24.6316622 21.7100676 25.0281486 22.0457432 25.4222027 22.1175 25.4976081 22.1965541 25.5681486 22.280473 25.6301757 22.3692568 25.6836892 22.4616892 25.7286892 22.5602027 25.7676081 22.6599324 25.7955811 22.7633108 25.8162568 22.8666892 25.8259865 22.9712838 25.8272027 23.0746622 25.8199054 23.1792568 25.8004459 23.2802027 25.7736892 23.3775 25.7384189 23.4723649 25.6946351 23.5623649 25.6411216 23.6475 25.5803108 23.7265541 25.5122027 23.799527 25.4380135 23.8639865 25.356527 23.9247973 25.2701757 23.9722297 25.1789595 24.0160135 25.0828784 24.0488514 24.9843649 24.0719595 24.8822027 24.0877703 24.7800405 24.0926351 24.6754459 24.0889865 24.5708514 24.0780405 24.467473 24.0537162 24.3653108 24.0233108 24.2643649 23.9819595 24.1682838 23.934527 24.0770676 23.8761486 23.9882838 23.8141216 23.9067973 23.4796622 23.5188243 23.1512838 23.1296351 22.8216892 22.7404459 22.4957432 22.3476081 22.1722297 21.9535541 21.8487162 21.5570676 21.5252027 21.1593649 21.2041216 20.7604459 20.8842568 20.3603108 20.5656081 19.9589595 19.9258784 19.1513919 19.2885811 18.3413919 18.6512838 17.5289595 18.0127703 16.716527 17.3718243 15.9016622 16.7272297 15.0904459 16.4037162 14.6842297 16.0777703 14.2780135 15.7518243 13.8730135 15.4222297 13.4692297 15.0926351 13.0666622 14.7593919 12.6640946 14.4249324 12.2651757 14.0892568 11.8638243 13.7499324 11.4673378 13.4081757 11.0708514 13.1150676 10.7351757 12.8207432 10.4019324 12.5227703 10.0686892 12.2247973 9.74031081 11.9231757 9.41071622 11.6203378 9.08355405 11.3175 8.75882432 11.0122297 8.43409459 10.4053378 7.78828378 9.79722973 7.14125676 9.19277027 6.49666216 8.89358108 6.17436486 8.59560811 5.85085135 8.30006757 5.52855405 8.00331081 5.20382432 7.71263514 4.88031081 7.42439189 4.55436486 7.13858108 4.22963514 6.85641892 3.90004054 6.57790541 3.57166216 6.30425676 3.24085135 6.03060811 2.90639189 5.89925676 2.7422027 5.76668919 2.57436486 5.63533784 2.40652703 5.50398649 2.23747297 5.37506757 2.06963514 5.24736486 1.89936486 5.12087838 1.73031081 4.99682432 1.56004054 4.87155405 1.38733784 4.74993243 1.21585135 4.63074324 1.04436486 4.51033784 0.870445946 4.39358108 0.696527027 4.27317568 0.518959459 4.21236486 0.433824324 4.14425676 0.35477027 4.06763514 0.28422973 3.98371622 0.218554054 3.89736486 0.161391892 3.80614865 0.113959459 3.71006757 0.0713918919 3.61033784 0.0397702703 3.50817568 0.0166621622 3.4047973 0.00328378378"></polygon>
                        <polygon id="Fill-3" fill="#000000" points="34.5388378 0.209797297 34.4622162 0.217094595 34.3892432 0.229256757 34.3138378 0.2475 34.2408649 0.268175676 34.1691081 0.294932432 34.0997838 0.326554054 34.0328919 0.363040541 33.9684324 0.403175676 33.9064054 0.446959459 33.8468108 0.495608108 33.7920811 0.546689189 33.741 0.602635135 33.6911351 0.663445946 33.6461351 0.724256757 33.6084324 0.7875 33.5707297 0.856824324 33.5391081 0.924932432 33.5135676 0.995472973 33.4928919 1.06844595 33.4746486 1.14385135 33.4624865 1.21925676 33.453973 1.29344595 33.4515405 1.37006757 33.453973 1.44547297 33.4624865 1.52209459 33.5147838 1.92222973 33.5695135 2.32722973 33.6242432 2.72858108 33.6826216 3.13236486 33.7993784 3.93263514 33.921 4.73290541 34.0438378 5.53195946 34.1727568 6.3297973 34.3004595 7.1252027 34.4305946 7.92060811 34.6945135 9.50655405 34.9572162 11.0900676 35.0861351 11.8818243 35.2126216 12.6711486 35.3391081 13.4616892 35.4619459 14.2546622 35.4753243 14.3288514 35.4947838 14.4018243 35.5178919 14.4760135 35.5470811 14.5465541 35.5799189 14.6146622 35.6164054 14.6815541 35.658973 14.7447973 35.703973 14.8056081 35.7538378 14.8627703 35.8085676 14.9162838 35.8645135 14.9685811 35.9241081 15.0147973 35.9873514 15.0573649 36.053027 15.0975 36.1199189 15.1315541 36.1904595 15.1607432 36.2622162 15.1850676 36.3364054 15.2069595 36.4093784 15.2227703 36.4847838 15.2325 36.5614054 15.2385811 36.6368108 15.2397973 36.7134324 15.2349324 36.7888378 15.2252027 36.8642432 15.2118243 36.9372162 15.1923649 37.0101892 15.1692568 37.0807297 15.1400676 37.1488378 15.1072297 37.2157297 15.0707432 37.278973 15.0281757 37.341 14.9819595 37.3981622 14.9320946 37.4528919 14.8797973 37.5027568 14.8238514 37.5501892 14.7630405 37.593973 14.6997973 37.6316757 14.6341216 37.6657297 14.5660135 37.6961351 14.4966892 37.7204595 14.4249324 37.7399189 14.3519595 37.7557297 14.2777703 37.7666757 14.2023649 37.773973 14.1257432 37.7751892 14.0503378 37.7703243 13.9737162 37.7618108 13.8983108 37.638973 13.1016892 37.5112703 12.3050676 37.3823514 11.5072297 37.2522162 10.7130405 36.9895135 9.12587838 36.7268108 7.54236486 36.5966757 6.75060811 36.468973 5.96128378 36.3424865 5.17074324 36.2196486 4.38141892 36.1004595 3.59087838 35.9873514 2.79912162 35.9314054 2.40628378 35.8754595 2.0097973 35.8219459 1.61574324 35.7696486 1.21804054 35.7562703 1.14263514 35.7392432 1.06844595 35.7161351 0.995472973 35.6893784 0.924932432 35.658973 0.854391892 35.6237027 0.7875 35.5835676 0.723040541 35.5373514 0.661013514 35.4899189 0.601418919 35.4364054 0.545472973 35.3804595 0.495608108 35.3232973 0.446959459 35.2624865 0.401959459 35.1968108 0.361824324 35.1299189 0.325337838 35.0593784 0.294932432 34.9888378 0.268175676 34.9170811 0.2475 34.8416757 0.228040541 34.7662703 0.215878378 34.6908649 0.209797297 34.6142432 0.206148649"></polygon>
                        <g id="Group-12" transform="translate(63.243243, 44.487973)" fill="#FFC2B7">
                            <path d="M28.0858378,47.0107703 C28.0858378,47.0107703 28.3144865,22.7946892 28.4640811,21.0323919 C29.0405676,14.2094189 29.3263784,8.16239189 25.9878649,5.36752703 C24.1270541,3.80833784 21.8588108,1.72131081 18.9557027,0.563472973 C17.4074595,-0.0543648649 10.0055676,1.52063514 5.53354054,2.30022973 C1.90313514,2.93266216 1.52732432,6.44266216 1.91043243,9.9332027 L0.352459459,40.1342838 C2.89191892,46.6605 24.4043514,51.1069865 28.0858378,47.0107703" id="Fill-4"></path>
                        </g>
                        <g id="Group-60" transform="translate(3.648649, 3.136622)">
                            <path d="M15.8156757,53.3561351 L15.8156757,53.3001892 C15.7937838,52.0268108 16.0321622,50.1611351 16.0321622,50.1611351 C16.1647297,49.688027 16.4006757,48.9874865 16.4177027,48.9218108 C16.6743243,47.9074865 16.8725676,48.1957297 16.9309459,48.1957297 C18.1714865,48.1945135 17.7616216,50.4724865 18.7868919,52.9426216 C18.9912162,53.433973 19.3037838,53.9715405 19.5993243,54.4373514 C20.0225676,54.6465405 20.4312162,54.8764054 20.817973,55.1147838 C21.0575676,55.2607297 23.4827027,66.1093784 21.8748649,64.368973 C18.8428378,61.0864054 14.3525676,60.6278919 13.2445946,60.6388378 C11.5175676,60.6546486 9.83675676,60.9477568 8.15837838,61.3150541 C6.71351351,61.6324865 2.62581081,63.0128919 2.66716216,62.6723514 C2.72554054,62.2199189 3.18283784,61.9146486 3.52824324,61.7042432 C4.83081081,60.9088378 6.11027027,60.1170811 7.58554054,59.5855946 C8.06837838,59.4128919 8.54756757,59.2401892 9.02797297,59.0674865 C9.27486486,58.9799189 9.75405405,58.7658649 9.75405405,58.7658649 C9.75405405,58.7658649 9.22986486,58.8473514 8.96716216,58.8838378 C8.4672973,58.9543784 7.95648649,59.1355946 7.45418919,59.1818108 C5.97040541,59.3143784 1.78662162,60.5841081 1.16148649,60.4977568 C0.99,60.4722162 0.538783784,60.5172162 0.582567568,60.1705946 C0.643378378,59.6841081 3.58540541,58.4435676 4.39540541,58.1893784 C6.10054054,57.6566757 7.94310811,56.9877568 8.40405405,56.8223514 C8.46,56.8016757 8.86743243,56.7043784 8.89662162,56.6447838 C8.94040541,56.5499189 8.47581081,56.6034324 8.44783784,56.5997838 C8.03554054,56.5414054 0.0741891892,57.2370811 0.194594595,56.9743784 C0.470675676,56.3796486 1.31351351,56.1193784 1.95932432,55.8882973 C3.59148649,55.2996486 5.38297297,55.1427568 7.11364865,54.9396486 C7.70594595,54.8691081 8.29216216,54.8155946 8.88810811,54.7122162 C8.98054054,54.6964054 9.50594595,54.7037027 9.55702703,54.5954595 C9.58864865,54.5273514 9.17391892,54.5954595 9.11918919,54.5869459 C8.78959459,54.5419459 8.30675676,54.6149189 7.93216216,54.5614054 C6.57972973,54.3728919 5.02905405,54.4787027 3.66081081,54.4932973 C3.10621622,54.4969459 1.59567568,54.6611351 1.55554054,54.4264054 C1.43148649,53.6674865 7.19756757,53.0435676 8.29216216,53.0326216 C10.8085135,53.0082973 13.3102703,53.0046486 15.8156757,53.3561351" id="Fill-33" fill="#FFC2B7"></path>
                            <path d="M62.3370405,46.4965541 C55.0482568,52.9352027 44.7602838,70.4997973 44.7602838,70.4997973 C44.7602838,70.4997973 41.1870405,68.7630405 37.1066351,65.8939865 C26.283527,58.2853378 18.7624459,51.9452027 16.8408243,54.9225 C14.3415,58.7925 43.8712297,93.4850676 51.1259595,84.6979054 C60.303527,73.5816892 71.1242027,61.745473 71.0475811,54.3156081 C71.0123108,50.8712838 62.3370405,46.4965541 62.3370405,46.4965541" id="Fill-35" fill="#FFC2B7"></path>
                            <path d="M56.1479595,78.5718243 C56.1479595,78.5718243 69.6321486,60.9622297 68.4524189,58.8460135 C62.6960676,48.5203378 66.3203919,43.4499324 66.2693108,43.4523649 C61.1867432,43.6737162 59.5095811,46.0684459 56.2063378,49.8703378 C50.2225541,56.7577703 45.1521486,66.5799324 45.2567432,66.6176351 C48.2936351,71.3961486 56.1479595,78.5718243 56.1479595,78.5718243" id="Fill-37" fill="#EF1C3B"></path>
                            <g id="Group-41" transform="translate(127.702703, 47.432432)">
                                <mask id="mask-2" fill="white">
                                    <use xlink:href="#path-1"></use>
                                </mask>
                                <g id="Clip-40"></g>
                                <path d="M7.09066216,5.83698649 L7.08944595,5.78104054 C7.05052703,4.50887838 6.7257973,2.65536486 6.7257973,2.65536486 C6.57133784,2.18955405 6.30255405,1.49995946 6.28309459,1.4355 C5.97904054,0.434554054 5.79417568,0.731310811 5.73701351,0.734959459 C4.49647297,0.790905405 5.01336486,3.04698649 4.10363514,5.56212162 C3.92363514,6.06441892 3.63539189,6.61536486 3.36295946,7.09455405 C2.94944595,7.32198649 2.55174324,7.57131081 2.17593243,7.82671622 C1.94485135,7.98482432 0.0293108108,18.9356351 1.55322973,17.1210405 C4.42836486,13.6998243 8.89309459,13.0333378 10.0010676,12.9907703 C11.7268784,12.9263108 13.4186351,13.1403649 15.1128243,13.4286081 C16.5710676,13.6779324 20.7183649,14.8673919 20.6599865,14.5280676 C20.5821486,14.0780676 20.1102568,13.7959054 19.7551216,13.6013108 C18.4172838,12.8679324 17.1013378,12.1357703 15.6029595,11.6748243 C15.1140405,11.5252297 14.6263378,11.3744189 14.1386351,11.2248243 C13.8880946,11.1482027 13.3991757,10.9560405 13.3991757,10.9560405 C13.3991757,10.9560405 13.9257973,11.0132027 14.1897162,11.0387432 C14.6932297,11.0849595 15.2113378,11.2430676 15.7160676,11.2649595 C17.2035,11.3282027 21.4432297,12.4009054 22.0635,12.2853649 C22.2337703,12.252527 22.6849865,12.2756351 22.6253919,11.9314459 C22.541473,11.4486081 19.5459324,10.3467162 18.7237703,10.1314459 C16.9979595,9.6777973 15.1249865,9.09644595 14.6567432,8.95293243 C14.6007973,8.93468919 14.1885,8.85685135 14.1580946,8.79847297 C14.1094459,8.70604054 14.5740405,8.73766216 14.6020135,8.73158108 C15.0118784,8.65495946 22.9975541,8.97725676 22.8649865,8.72063514 C22.5609324,8.1405 21.7071486,7.91914865 21.0516081,7.71725676 C19.3926892,7.20644595 17.5975541,7.13347297 15.8583649,7.01185135 C15.2636351,6.96928378 14.6737703,6.94374324 14.0753919,6.86833784 C13.9817432,6.85495946 13.4575541,6.8877973 13.4003919,6.78198649 C13.3663378,6.71631081 13.7835,6.76374324 13.8370135,6.7527973 C14.1653919,6.6932027 14.6506622,6.74306757 15.0216081,6.67252703 C16.3643108,6.42077027 17.9186351,6.45360811 19.2856622,6.40374324 C19.8402568,6.38306757 21.3568784,6.4755 21.3860676,6.23955405 C21.4748514,5.47577027 15.6844459,5.12185135 14.5910676,5.16198649 C12.0771486,5.25441892 9.57660811,5.36874324 7.09066216,5.83698649" id="Fill-39" fill="#FFC2B7" mask="url(#mask-2)"></path>
                            </g>
                            <path d="M89.9989054,45.8860135 C97.5807973,51.9768243 106.682959,71.7476351 106.682959,71.7476351 C106.682959,71.7476351 110.169851,69.845473 114.111608,66.7891216 C124.567419,58.6818243 131.78323,51.9975 133.842284,54.8811486 C136.520392,58.6307432 108.644716,94.6647973 100.986203,86.2279054 C91.2990405,75.5531757 79.9383649,64.2350676 79.6659324,56.8100676 C79.5406622,53.3681757 89.9989054,45.8860135 89.9989054,45.8860135" id="Fill-42" fill="#FFC2B7"></path>
                            <polygon id="Fill-44" fill="#FFFFFF" points="56.8593243 89.2161486 56.907973 89.2185811 56.9541892 89.2234459 57.0016216 89.229527 57.0478378 89.2380405 57.0952703 89.2465541 57.1402703 89.2575 57.1877027 89.2708784 57.2327027 89.285473 57.2764865 89.3025 57.3202703 89.3207432 57.3640541 89.3414189 57.4066216 89.3620946 57.4467568 89.3852027 57.4881081 89.409527 57.5282432 89.4375 57.5671622 89.4630405 57.6024324 89.4934459 57.6401351 89.5250676 57.6754054 89.555473 57.7094595 89.5907432 57.7422973 89.6247973 57.7727027 89.6588514 57.8018919 89.6965541 57.8310811 89.735473 57.8578378 89.7743919 57.8833784 89.814527 57.9064865 89.8558784 57.9295946 89.8984459 57.9490541 89.9410135 57.9685135 89.9847973 57.9867568 90.0285811 58.0001351 90.0735811 58.0159459 90.1185811 58.0281081 90.1647973 58.0378378 90.2097973 58.0475676 90.2572297 58.095 90.5539865 58.1193243 90.7218243 58.1424324 90.8993919 58.1521622 90.9991216 58.1618919 91.0952027 58.167973 91.1973649 58.1728378 91.3019595 58.1764865 91.4102027 58.1752703 91.5220946 58.1704054 91.6352027 58.1606757 91.7543919 58.1436486 91.8991216 58.122973 92.0365541 58.0986486 92.1679054 58.0731081 92.289527 58.0487838 92.4050676 58.022027 92.5133108 57.9758108 92.7091216 57.9539189 92.7942568 57.9381081 92.874527 57.9247297 92.9450676 57.9137838 93.0083108 57.9064865 93.0618243 57.9004054 93.1141216 57.9004054 93.1262838 57.9004054 93.1408784 57.9004054 93.1530405 57.9004054 93.1615541 57.9004054 93.1627703 57.9016216 93.1652027 57.9028378 93.1712838 57.9052703 93.1810135 57.9089189 93.1943919 57.9113514 93.2089865 57.9186486 93.2272297 57.9259459 93.245473 57.9356757 93.2685811 57.9466216 93.2941216 57.9563514 93.3196622 57.9709459 93.3476351 57.9843243 93.3719595 58.0208108 93.4412838 58.0414865 93.4729054 58.0560811 93.4643919 58.0986486 93.4425 58.1424324 93.4218243 58.1862162 93.4035811 58.23 93.3877703 58.275 93.3719595 58.3212162 93.3585811 58.3674324 93.3476351 58.4136486 93.3391216 58.4610811 93.3318243 58.5072973 93.3257432 58.5559459 93.3208784 58.6033784 93.3184459 58.652027 93.3184459 58.697027 93.3196622 58.7444595 93.3220946 58.7918919 93.3281757 58.8393243 93.3330405 58.8867568 93.3427703 58.9317568 93.3525 58.9791892 93.3646622 59.022973 93.3792568 59.0691892 93.3950676 59.1141892 93.4108784 59.157973 93.4303378 59.1993243 93.4510135 59.2418919 93.4729054 59.282027 93.4972297 59.3233784 93.5227703 59.3635135 93.549527 59.4012162 93.5787162 59.4364865 93.6079054 59.472973 93.639527 59.5082432 93.6711486 59.5410811 93.7039865 59.5727027 93.740473 59.6043243 93.7769595 59.6322973 93.8134459 59.6614865 93.8523649 59.6882432 93.8925 59.7137838 93.9326351 59.7356757 93.9752027 59.7563514 94.0165541 59.7758108 94.0591216 59.7952703 94.1053378 59.8122973 94.1479054 59.8256757 94.1941216 59.8390541 94.2391216 59.8512162 94.2853378 59.8609459 94.3315541 59.8694595 94.3789865 59.8743243 94.4264189 59.877973 94.4738514 59.8804054 94.5200676 59.8804054 94.5675 59.8791892 94.6161486 59.8767568 94.6635811 59.8731081 94.7110135 59.867027 94.7584459 59.8572973 94.8046622 59.8463514 94.8508784 59.8341892 94.8970946 59.822027 94.9420946 59.805 94.9870946 59.787973 95.0308784 59.7697297 95.0746622 59.7478378 95.1184459 59.7259459 95.1610135 59.7016216 95.2011486 59.6772973 95.2412838 59.6505405 95.2802027 59.6213514 95.3191216 59.5921622 95.3556081 59.5617568 95.3908784 59.5277027 95.4261486 59.4948649 95.4602027 59.4595946 95.4906081 59.4218919 95.5222297 59.3841892 95.5514189 59.3477027 95.5781757 59.3160811 95.6012838 59.3014865 95.6122297 59.2698649 95.6377703 59.2248649 95.6766892 59.1056757 95.7825 59.022973 95.8493919 58.9293243 95.9247973 58.8283784 95.9977703 58.7590541 96.0439865 58.6897297 96.0865541 58.6143243 96.1303378 58.5304054 96.170473 58.4416216 96.2106081 58.3406757 96.2483108 58.2312162 96.2835811 58.1132432 96.3091216 57.9855405 96.3297973 57.8493243 96.3383108 57.7666216 96.3370946 57.7289189 96.3358784 57.6924324 96.3334459 57.6535135 96.3297973 57.6243243 96.3273649 57.5866216 96.3237162 57.5477027 96.3164189 57.5112162 96.3103378 57.4795946 96.3042568 57.4418919 96.2957432 57.4054054 96.2860135 57.3701351 96.2762838 57.3385135 96.2665541 57.2983784 96.2543919 57.2618919 96.2422297 57.2254054 96.2276351 57.1889189 96.2118243 57.1682432 96.2033108 57.1281081 96.1838514 57.0867568 96.1631757 57.0478378 96.1400676 57.0089189 96.1181757 56.9906757 96.1060135 56.9517568 96.080473 56.9140541 96.0525 56.8763514 96.024527 56.8167568 95.9758784 56.7291892 95.8907432 56.6610811 95.8165541 56.6014865 95.7423649 56.5309459 95.6462838 56.4798649 95.5660135 56.4482432 95.5161486 56.4433784 95.5100676 56.3339189 95.3689865 56.2597297 95.2680405 56.1831081 95.1622297 56.1052703 95.0491216 56.025 94.9311486 55.9447297 94.8046622 55.8656757 94.6708784 55.7902703 94.5346622 55.7513514 94.4568243 55.7148649 94.3814189 55.6783784 94.3035811 55.6431081 94.2220946 55.6114865 94.1406081 55.5786486 94.055473 55.5494595 93.9666892 55.5214865 93.875473 55.4971622 93.7818243 55.4728378 93.6857432 55.4545946 93.5847973 55.44 93.4814189 55.4278378 93.3743919 55.4205405 93.2710135 55.4181081 93.1810135 55.4181081 93.0970946 55.4205405 93.0156081 55.4266216 92.9292568 55.44 92.7833108 55.4594595 92.6385811 55.4813514 92.5035811 55.5081081 92.3770946 55.5324324 92.2566892 55.5591892 92.1423649 55.6066216 91.9392568 55.6272973 91.8480405 55.647973 91.7653378 55.6637838 91.6899324 55.6747297 91.6230405 55.6832432 91.5670946 55.6905405 91.5160135 55.6917568 91.4916892 55.692973 91.4612838 55.692973 91.4247973 55.692973 91.3858784 55.6905405 91.3396622 55.6868919 91.2910135 55.682027 91.2399324 55.6759459 91.1888514 55.6613514 91.0647973 55.6418919 90.9358784 55.5968919 90.6549324 55.5895946 90.6087162 55.5847297 90.5600676 55.5822973 90.5126351 55.5798649 90.4664189 55.5810811 90.4177703 55.5835135 90.3715541 55.5871622 90.3229054 55.5932432 90.2766892 55.6017568 90.230473 55.6114865 90.1818243 55.6224324 90.1356081 55.6345946 90.0918243 55.6516216 90.0456081 55.6674324 90.0018243 55.6844595 89.9568243 55.7051351 89.9142568 55.7258108 89.8716892 55.7501351 89.8315541 55.7732432 89.7902027 55.8012162 89.7500676 55.827973 89.7123649 55.8583784 89.6746622 55.8887838 89.6381757 55.9216216 89.6029054 55.9544595 89.5688514 55.9897297 89.5360135 56.0237838 89.5043919 56.0614865 89.4764189 56.1004054 89.4460135 56.1393243 89.420473 56.1794595 89.3937162 56.2208108 89.3706081 56.2621622 89.3487162 56.3047297 89.3280405 56.3497297 89.3085811 56.3935135 89.2915541 56.4372973 89.2769595 56.4835135 89.2623649 56.5297297 89.2502027 56.5759459 89.240473 56.6221622 89.2319595 56.6708108 89.2246622 56.717027 89.2197973 56.7644595 89.2173649 56.8118919 89.2149324"></polygon>
                            <path d="M66.3799865,43.335973 C66.3799865,43.335973 63.6556622,48.9634054 67.8966081,50.3523243 C78.0021486,53.6616486 78.690527,41.5761081 78.690527,41.5761081 C81.0816081,42.1124595 85.451473,43.4782703 86.7783649,44.2846216 C89.3263378,45.8340811 91.3963378,48.230027 91.9059324,51.2438108 C92.1285,52.5536757 92.0068784,53.865973 91.8962027,55.160027 C90.4148514,72.6175946 91.1628243,90.495973 94.1133649,108.16273 C94.2422838,108.936243 94.3310676,109.854486 93.7922838,110.32273 C93.5162027,110.563541 93.1306622,110.619486 92.7645811,110.66327 C78.8632297,112.312459 66.5368784,118.319351 52.8945811,112.910838 C53.2399865,109.084622 53.5087703,104.990838 53.7410676,100.773 C54.2628243,91.2901622 54.4902568,70.938 56.0932297,61.2690811 C58.3639054,47.5671892 66.3799865,43.335973 66.3799865,43.335973" id="Fill-46" fill="#5ECCFA"></path>
                            <g id="Group-6" transform="translate(67.731166, 22.322620) rotate(15.000000) translate(-67.731166, -22.322620) translate(50.704139, 4.079377)">
                                <g id="Group-4" transform="translate(4.864865, 2.432432)" fill="#FFC2B7">
                                    <path d="M9.14777027,32.1044595 C13.9883108,37.1833784 20.6081757,29.8082432 23.0247973,27.0802703 C26.6308784,23.0071622 29.6957432,5.88162162 21.5057432,1.72824324 C13.3169595,-2.42756757 3.2697973,3.2472973 0.584391892,7.87013514 C-2.10222973,12.492973 5.74358108,28.5336486 9.14777027,32.1044595" id="Fill-52"></path>
                                </g>
                                <path d="M27.972973,27.5247635 C32.1258162,27.3521665 33.845113,26.1997439 33.1308635,24.0674956 C32.4166139,21.9352474 31.6836159,19.1996616 30.9318695,15.8607382 L29.0432053,22.2588968 L27.972973,27.5247635 Z" id="Path-2" fill="#111F3C" fill-rule="nonzero"></path>
                                <path d="M25.5713861,17.7661804 C25.0192239,20.0684777 25.5944942,22.0873966 26.7280077,22.297802 C30.5226023,22.9983426 32.3858456,22.1482074 32.9380077,19.8471264 C33.4901699,17.5460453 32.1693591,15.890775 30.1346293,15.316721 C28.1011158,14.7414507 26.1235483,15.4650993 25.5713861,17.7661804" id="Fill-54" fill="#FFC2B7"></path>
                                <path d="M1.99041899,7.49524847 C3.85780021,8.21538903 4.22668211,7.88522722 6.05464029,7.62674751 C7.88259847,7.36826779 8.84298524,5.75401801 11.2171622,4.05291892 C13.5913391,2.35181983 16.6126733,1.09097629 19.2713219,0.610570883 C21.7828084,0.156922235 25.5241476,0.295551938 27.6233321,1.57212402 C31.4365309,3.89103563 32.6310811,8.15035135 32.2881081,11.7783243 C32.1105405,13.6391351 33.3169188,14.4232713 31.8975945,15.7416497 C31.4913782,16.1186767 29.9118767,15.90654 27.1590899,15.1052394 C28.4997881,17.0685593 28.4294616,18.3113004 26.9481102,18.8334625 C26.6841913,18.925895 25.7192492,19.9898231 24.188033,16.8544177 C23.073979,14.5691475 23.4559459,13.7315676 22.9621622,12.2794054 C22.7140541,11.5472432 22.0390541,10.2811622 21.4856757,10.3748108 C20.637973,10.1571081 19.9763514,10.7141351 19.4205405,11.1702162 C18.792973,11.6871081 18.2943243,12.3657568 17.7178378,12.9325135 C16.7156757,13.9176486 15.6186486,14.8249459 14.3695946,15.5412973 C12.2144595,16.7757568 9.38607924,17.0247513 6.12305361,16.6694298 C0.508680964,16.0580624 -0.751260376,9.88109051 1.99041899,7.49524847 Z" id="Fill-56" fill="#111F3C"></path>
                            </g>
                            <path d="M71.5144865,49.1213919 C77.670973,47.9842297 78.3301622,42.006527 78.3301622,42.006527 L75.8648919,33.2461216 C75.4343514,30.6677432 72.4193514,29.4053108 69.4019189,30.3527432 C66.3857027,31.3001757 65.7240811,34.7445 66.1570541,37.3228784 L67.0144865,46.8409865 C67.4462432,49.4193649 69.8713784,49.4254459 71.5144865,49.1213919" id="Fill-50" fill="#FFC2B7"></path>
                            <path d="M93.4337432,81.0066892 C93.4337432,81.0066892 87.8963108,69.5791216 82.4719865,61.2139865 C79.6272568,56.8270946 86.4550946,44.3535811 86.5037432,44.364527 C95.8394189,46.5050676 106.166311,67.8277703 106.004554,67.8922297 C103.195095,72.8081757 93.4337432,81.0066892 93.4337432,81.0066892" id="Fill-58" fill="#EF1C3B"></path>
                        </g>
                    </g>
                </g>
            </g>
        </g>
    </g>
</svg>