<?xml version="1.0" encoding="UTF-8"?>
<svg width="363px" height="336px" viewBox="0 0 363 336" version="1.1" xmlns="http://www.w3.org/2000/svg" xmlns:xlink="http://www.w3.org/1999/xlink">
    <!-- Generator: Sketch 52.3 (67297) - http://www.bohemiancoding.com/sketch -->
    <title>Abouts us product devOUTSOURCING SLIDER illustration</title>
    <desc>Created with Sketch.</desc>
    <defs>
        <path d="M64.4956019,90.1283862 C105.304189,63.2108505 104.018055,-18.2700894 179.756677,3.72350686 C255.4953,25.7171031 256.558038,5.36482002 299.960037,11.9300726 C343.362035,18.4953252 354.608524,65.0368113 327.974955,103.843609 C301.341386,142.650407 300.279852,158.919924 328.559767,233.799707 C356.839683,308.679491 259.05632,378.271168 177.247929,303.427289 C95.4395376,228.583409 36.9819361,292.810266 8.98740701,220.592488 C-19.0071221,148.374709 23.6870146,117.045922 64.4956019,90.1283862 Z" id="path-1"></path>
        <linearGradient x1="1.20662332%" y1="2.14292466%" x2="90.267142%" y2="79.7543246%" id="linearGradient-3">
            <stop stop-color="#0497F4" offset="0%"></stop>
            <stop stop-color="#0BCBF9" offset="100%"></stop>
        </linearGradient>
        <path d="M280.194599,327 C268.123685,327 258,317.265512 258,305.194599 C258,293.124099 268.123685,283 280.194599,283 C292.265512,283 302,293.124099 302,305.194599 C302,317.265512 292.265512,327 280.194599,327 M338.501547,294.69932 L326.840173,292.755413 C325.673747,288.479893 324.1192,284.20396 321.78676,280.31656 L328.39472,270.987627 C329.94968,269.044133 329.561147,266.711693 328.006187,265.156733 L319.843267,256.993813 C318.288307,255.438853 315.955867,255.438853 314.012373,256.60528 L304.68344,263.21324 C300.79604,261.269747 296.520107,259.326253 292.244587,258.159827 L290.30068,246.8874 C289.912147,244.55496 287.968653,243 285.636213,243 L274.363373,243 C272.031347,243 270.476387,244.55496 270.087853,246.8874 L268.143947,258.159827 C263.47948,259.326253 259.203547,261.269747 255.31656,263.601773 L245.59868,256.993813 C244.04372,255.8278 241.711693,255.8278 240.156733,257.382347 L231.993813,265.54568 C230.438853,267.100227 230.049907,269.432667 231.604867,271.37616 L238.21324,280.705507 C235.8808,284.98144 234.32584,289.25696 233.159827,293.532893 L221.886987,295.087853 C219.55496,295.476387 218,297.420293 218,299.363787 L218,311.02516 C218,313.3576 219.55496,314.912147 221.886987,315.301093 L233.159827,317.244587 C234.32584,321.909053 236.269333,325.796453 238.601773,329.68344 L231.993813,339.40132 C230.438853,340.95628 230.827387,343.288307 232.382347,344.843267 L240.545267,353.006187 C242.100227,354.561147 244.432667,354.950093 246.37616,353.783667 L255.705093,346.78676 C259.981027,349.1192 264.25696,350.67416 268.532893,351.840173 L270.087853,363.501547 C270.476387,365.44504 272.41988,367 274.75232,367 L286.02516,367 C288.357187,367 290.30068,365.44504 290.689627,363.501547 L292.63312,351.840173 C296.520107,350.67416 300.79604,349.1192 304.68344,346.78676 L314.012373,353.395133 C315.955867,354.561147 318.288307,354.561147 319.843267,353.006187 L328.006187,344.843267 C329.561147,343.288307 329.94968,340.95628 328.39472,339.012787 L321.78676,329.68344 C324.1192,325.796453 325.673747,321.52052 326.840173,317.244587 L338.501547,314.912147 C340.44504,314.912147 342,312.968653 342,310.636627 L342,298.97484 C342,297.031347 340.44504,295.087853 338.501547,294.69932" id="path-4"></path>
        <filter x="-40.3%" y="-32.3%" width="180.6%" height="180.6%" filterUnits="objectBoundingBox" id="filter-5">
            <feOffset dx="0" dy="10" in="SourceAlpha" result="shadowOffsetOuter1"></feOffset>
            <feGaussianBlur stdDeviation="15" in="shadowOffsetOuter1" result="shadowBlurOuter1"></feGaussianBlur>
            <feColorMatrix values="0 0 0 0 0.00784313725   0 0 0 0 0.741176471   0 0 0 0 0.952941176  0 0 0 0.2 0" type="matrix" in="shadowBlurOuter1"></feColorMatrix>
        </filter>
        <filter x="-104.1%" y="-88.5%" width="308.1%" height="277.0%" filterUnits="objectBoundingBox" id="filter-6">
            <feOffset dx="0" dy="10" in="SourceAlpha" result="shadowOffsetOuter1"></feOffset>
            <feGaussianBlur stdDeviation="15" in="shadowOffsetOuter1" result="shadowBlurOuter1"></feGaussianBlur>
            <feColorMatrix values="0 0 0 0 0   0 0 0 0 0   0 0 0 0 0  0 0 0 0.15 0" type="matrix" in="shadowBlurOuter1" result="shadowMatrixOuter1"></feColorMatrix>
            <feMerge>
                <feMergeNode in="shadowMatrixOuter1"></feMergeNode>
                <feMergeNode in="SourceGraphic"></feMergeNode>
            </feMerge>
        </filter>
        <circle id="path-7" cx="63" cy="250" r="36"></circle>
        <filter x="-69.4%" y="-55.6%" width="238.9%" height="238.9%" filterUnits="objectBoundingBox" id="filter-8">
            <feOffset dx="0" dy="10" in="SourceAlpha" result="shadowOffsetOuter1"></feOffset>
            <feGaussianBlur stdDeviation="15" in="shadowOffsetOuter1" result="shadowBlurOuter1"></feGaussianBlur>
            <feColorMatrix values="0 0 0 0 0   0 0 0 0 0   0 0 0 0 0  0 0 0 0.15 0" type="matrix" in="shadowBlurOuter1"></feColorMatrix>
        </filter>
    </defs>
    <g id="Design" stroke="none" stroke-width="1" fill="none" fill-rule="evenodd">
        <g id="Index---V1-Outsource" transform="translate(-258.000000, -996.000000)">
            <g id="Abouts-us-product-devOUTSOURCING-SLIDER-illustration" transform="translate(260.000000, 996.000000)">
                <g id="Group-44">
                    <mask id="mask-2" fill="white">
                        <use xlink:href="#path-1"></use>
                    </mask>
                    <use id="Path-20" fill="#D6F3FE" xlink:href="#path-1"></use>
                    <path d="M161.325867,344.840267 C141.112427,344.840267 124.159733,328.539307 124.159733,308.325867 C124.159733,288.11312 141.112427,271.159733 161.325867,271.159733 C181.539307,271.159733 197.840267,288.11312 197.840267,308.325867 C197.840267,328.539307 181.539307,344.840267 161.325867,344.840267 M259.131627,290.72144 L239.570613,287.460693 C237.614027,280.288853 235.0064,273.11632 231.09392,266.59552 L242.17824,250.946987 C244.78656,247.686933 244.134827,243.774453 241.526507,241.166133 L227.833867,227.473493 C225.225547,224.865173 221.313067,224.865173 218.053013,226.82176 L202.40448,237.90608 C195.88368,234.646027 188.711147,231.385973 181.539307,229.429387 L178.27856,210.5208 C177.626827,206.60832 174.366773,204 170.454293,204 L151.545013,204 C147.633227,204 145.024907,206.60832 144.373173,210.5208 L141.112427,229.429387 C133.28816,231.385973 126.115627,234.646027 119.59552,238.557813 L103.29456,227.473493 C100.68624,225.5176 96.7744533,225.5176 94.1661333,228.125227 L80.4734933,241.81856 C77.8651733,244.426187 77.2127467,248.338667 79.8210667,251.59872 L90.90608,267.247947 C86.9936,274.42048 84.38528,281.59232 82.4293867,288.764853 L63.5201067,291.373173 C59.60832,292.024907 57,295.285653 57,298.545707 L57,318.10672 C57,322.0192 59.60832,324.626827 63.5201067,325.279253 L82.4293867,328.539307 C84.38528,336.363573 87.6453333,342.884373 91.5578133,349.40448 L80.4734933,365.70544 C77.8651733,368.31376 78.5169067,372.225547 81.1252267,374.833867 L94.8178667,388.526507 C97.4261867,391.134827 101.338667,391.787253 104.59872,389.830667 L120.247253,378.09392 C127.419787,382.0064 134.59232,384.61472 141.764853,386.570613 L144.373173,406.131627 C145.024907,409.39168 148.28496,412 152.19744,412 L171.10672,412 C175.018507,412 178.27856,409.39168 178.930987,406.131627 L182.19104,386.570613 C188.711147,384.61472 195.88368,382.0064 202.40448,378.09392 L218.053013,389.178933 C221.313067,391.134827 225.225547,391.134827 227.833867,388.526507 L241.526507,374.833867 C244.134827,372.225547 244.78656,368.31376 242.17824,365.053707 L231.09392,349.40448 C235.0064,342.884373 237.614027,335.71184 239.570613,328.539307 L259.131627,324.626827 C262.39168,324.626827 265,321.366773 265,317.454987 L265,297.89328 C265,294.633227 262.39168,291.373173 259.131627,290.72144" id="Fill-1" fill="url(#linearGradient-3)" opacity="0.199999988" mask="url(#mask-2)"></path>
                    <path d="M151.176908,60 C140.20335,60 131,51.1504658 131,40.1769079 C131,29.2037264 140.20335,20 151.176908,20 C162.150466,20 171,29.2037264 171,40.1769079 C171,51.1504658 162.150466,60 151.176908,60 M204.78368,30.53002 L194.06274,28.74288 C192.99038,24.81216 191.5612,20.88106 189.41686,17.30716 L195.49192,8.73056 C196.92148,6.9438 196.56428,4.79946 195.13472,3.3699 L187.6301,-4.13472 C186.20054,-5.56428 184.0562,-5.56428 182.26944,-4.49192 L173.69284,1.58314 C170.11894,-0.20362 166.18784,-1.99038 162.25712,-3.06274 L160.46998,-13.4261 C160.11278,-15.57044 158.32602,-17 156.18168,-17 L145.81794,-17 C143.67398,-17 142.24442,-15.57044 141.88722,-13.4261 L140.10008,-3.06274 C135.81178,-1.99038 131.88068,-0.20362 128.30716,1.94034 L119.37298,-4.13472 C117.94342,-5.2067 115.79946,-5.2067 114.3699,-3.77752 L106.86528,3.72748 C105.43572,5.15666 105.07814,7.301 106.5077,9.08776 L112.58314,17.66474 C110.4388,21.59584 109.00924,25.52656 107.93726,29.45766 L97.57352,30.88722 C95.42956,31.24442 94,33.03156 94,34.81832 L94,45.53926 C94,47.6836 95.42956,49.11278 97.57352,49.47036 L107.93726,51.25712 C109.00924,55.54542 110.796,59.11932 112.94034,62.69284 L106.86528,71.62702 C105.43572,73.05658 105.79292,75.20054 107.22248,76.6301 L114.7271,84.13472 C116.15666,85.56428 118.301,85.92186 120.08776,84.8495 L128.66436,78.41686 C132.59546,80.5612 136.52656,81.99076 140.45766,83.06274 L141.88722,93.78368 C142.24442,95.57044 144.03118,97 146.17552,97 L156.53926,97 C158.68322,97 160.46998,95.57044 160.82756,93.78368 L162.61432,83.06274 C166.18784,81.99076 170.11894,80.5612 173.69284,78.41686 L182.26944,84.4923 C184.0562,85.56428 186.20054,85.56428 187.6301,84.13472 L195.13472,76.6301 C196.56428,75.20054 196.92148,73.05658 195.49192,71.26982 L189.41686,62.69284 C191.5612,59.11932 192.99038,55.18822 194.06274,51.25712 L204.78368,49.11278 C206.57044,49.11278 208,47.32602 208,45.18206 L208,34.46074 C208,32.67398 206.57044,30.88722 204.78368,30.53002" id="Fill-1-Copy-3" fill="url(#linearGradient-3)" opacity="0.199999988" mask="url(#mask-2)"></path>
                    <g id="Fill-1-Copy-2" fill-rule="nonzero" mask="url(#mask-2)">
                        <use fill="black" fill-opacity="1" filter="url(#filter-5)" xlink:href="#path-4"></use>
                        <use fill="#FFFFFF" xlink:href="#path-4"></use>
                    </g>
                </g>
                <g id="Group-24-Copy" transform="translate(76.000000, 38.000000)">
                    <rect id="Rectangle" stroke="#FFFFFF" stroke-width="8" fill="url(#linearGradient-3)" x="4" y="56" width="210" height="128" rx="8"></rect>
                    <g id="Group-24" filter="url(#filter-6)" transform="translate(181.000000, 0.000000)" fill="#FFFFFF" stroke="#5DD2F8" stroke-width="4">
                        <rect id="Rectangle" x="2" y="2" width="70" height="83" rx="8"></rect>
                    </g>
                    <path d="M9.17894737,202 C4.10955472,202 -6.20821548e-16,199.612185 0,196.666667 L0,188 L218,188 L218,196.666667 C218,199.612185 213.890445,202 208.821053,202 L9.17894737,202 Z" id="Rectangle-Copy-50" fill="#343434"></path>
                </g>
                <g id="Oval" fill-rule="nonzero">
                    <use fill="black" fill-opacity="1" filter="url(#filter-8)" xlink:href="#path-7"></use>
                    <use fill="#EF1C3B" xlink:href="#path-7"></use>
                </g>
                <path d="M38.475,248.9 L58.275,238.575 L58.275,242.975 C58.275,243.308335 58.1916675,243.612499 58.025,243.8875 C57.8583325,244.162501 57.5833353,244.399999 57.2,244.6 L48.125,249.25 C47.7416647,249.450001 47.3375021,249.620833 46.9125,249.7625 C46.4874979,249.904167 46.0333357,250.033333 45.55,250.15 C46.0333357,250.266667 46.4874979,250.395833 46.9125,250.5375 C47.3375021,250.679167 47.7416647,250.849999 48.125,251.05 L57.2,255.725 C57.5833353,255.925001 57.8583325,256.162499 58.025,256.4375 C58.1916675,256.712501 58.275,257.016665 58.275,257.35 L58.275,261.75 L38.475,251.4 L38.475,248.9 Z M70.25625,261.75 L70.25625,257.35 C70.25625,257.016665 70.3395825,256.712501 70.50625,256.4375 C70.6729175,256.162499 70.9479147,255.925001 71.33125,255.725 L80.40625,251.05 C81.139587,250.683332 81.9979118,250.383334 82.98125,250.15 C82.4979143,250.033333 82.0437521,249.904167 81.61875,249.7625 C81.1937479,249.620833 80.7895853,249.450001 80.40625,249.25 L71.33125,244.6 C70.9479147,244.399999 70.6729175,244.162501 70.50625,243.8875 C70.3395825,243.612499 70.25625,243.308335 70.25625,242.975 L70.25625,238.575 L90.05625,248.9 L90.05625,251.4 L70.25625,261.75 Z" id="&lt;&gt;" fill="#FFFFFF"></path>
                <rect id="Rectangle" fill="url(#linearGradient-3)" x="268" y="66" width="10" height="17" rx="2"></rect>
                <rect id="Rectangle" fill="url(#linearGradient-3)" x="282" y="55" width="10" height="28" rx="2"></rect>
                <rect id="Rectangle-Copy-51" fill="url(#linearGradient-3)" x="285" y="91" width="16" height="8" rx="2"></rect>
                <rect id="Rectangle-Copy-51" fill="url(#linearGradient-3)" x="285" y="104" width="16" height="8" rx="2"></rect>
                <rect id="Rectangle-Copy-51" fill="#EF1C3B" x="266" y="104" width="16" height="8" rx="2"></rect>
                <rect id="Rectangle-Copy-51" fill="#EF1C3B" x="304" y="104" width="16" height="8" rx="2"></rect>
                <rect id="Rectangle" fill="url(#linearGradient-3)" x="296" y="75" width="10" height="8" rx="2"></rect>
                <rect id="Rectangle" fill="url(#linearGradient-3)" x="310" y="55" width="10" height="28" rx="2"></rect>
                <g id="Group-46" transform="translate(101.000000, 109.000000)">
                    <rect id="Rectangle" fill="#FFFFFF" x="21" y="0" width="102" height="4"></rect>
                    <rect id="Rectangle-Copy-52" fill="#D6F3FE" opacity="0.5" x="0" y="0" width="15" height="4"></rect>
                    <rect id="Rectangle-Copy-52" fill="#D6F3FE" opacity="0.5" x="0" y="20" width="15" height="4"></rect>
                    <rect id="Rectangle-Copy-52" fill="#D6F3FE" opacity="0.5" x="0" y="40" width="15" height="4"></rect>
                    <rect id="Rectangle-Copy-52" fill="#D6F3FE" opacity="0.5" x="0" y="50" width="15" height="4"></rect>
                    <rect id="Rectangle-Copy-52" fill="#D6F3FE" opacity="0.5" x="0" y="70" width="15" height="4"></rect>
                    <rect id="Rectangle-Copy-52" fill="#D6F3FE" opacity="0.5" x="0" y="80" width="15" height="4"></rect>
                    <rect id="Rectangle-Copy-52" fill="#D6F3FE" opacity="0.5" x="0" y="90" width="15" height="4"></rect>
                    <rect id="Rectangle" fill="#FFFFFF" x="21" y="20" width="112" height="4"></rect>
                    <rect id="Rectangle" fill="#FFFFFF" x="21" y="40" width="72" height="4"></rect>
                    <rect id="Rectangle" fill="#FFFFFF" x="21" y="60" width="112" height="4"></rect>
                    <rect id="Rectangle" fill="#FFFFFF" x="21" y="80" width="89" height="4"></rect>
                    <rect id="Rectangle" fill="#FFFFFF" x="21" y="90" width="80" height="4"></rect>
                    <rect id="Rectangle" fill="#FFFFFF" x="21" y="70" width="45" height="4"></rect>
                    <rect id="Rectangle" fill="#FFFFFF" x="21" y="50" width="26" height="4"></rect>
                    <rect id="Rectangle" fill="#FFFFFF" x="21" y="30" width="67" height="4"></rect>
                    <rect id="Rectangle" fill="#FFFFFF" x="21" y="10" width="33" height="4"></rect>
                </g>
            </g>
        </g>
    </g>
</svg>