<?xml version="1.0" encoding="UTF-8"?>
<svg width="121px" height="136px" viewBox="0 0 121 136" version="1.1" xmlns="http://www.w3.org/2000/svg" xmlns:xlink="http://www.w3.org/1999/xlink">
    <!-- Generator: Sketch 52.3 (67297) - http://www.bohemiancoding.com/sketch -->
    <title>approach icon 6</title>
    <desc>Created with Sketch.</desc>
    <defs>
        <linearGradient x1="1.20662332%" y1="2.14292466%" x2="90.267142%" y2="79.7543246%" id="linearGradient-1">
            <stop stop-color="#0497F4" offset="0%"></stop>
            <stop stop-color="#0BCBF9" offset="100%"></stop>
        </linearGradient>
    </defs>
    <g id="Page-1" stroke="none" stroke-width="1" fill="none" fill-rule="evenodd">
        <g id="Approach-1440" transform="translate(-556.000000, -2272.000000)">
            <g id="approach-icon-6" transform="translate(556.000000, 2272.432772)">
                <path d="M81.25,31.4172857 C81.25,32.7056251 80.2075553,33.75 78.921597,33.75 L42.328403,33.75 C41.0424447,33.75 40,32.7056251 40,31.4172857 L40,2.33271431 C40,1.04437489 41.0424447,0 42.328403,0 L78.921597,0 C80.2075553,0 81.25,1.04437489 81.25,2.33271431 L81.25,31.4172857 Z" id="Stroke-1" fill="url(#linearGradient-1)"></path>
                <polygon id="Path-26-Copy-4" fill="#FFFFFF" fill-rule="nonzero" points="68.8767774 9.68647377 70.9923501 11.8135262 58.6807231 24.0587071 51.1922136 16.6106133 53.3077864 14.4835609 58.6807231 19.8274998"></polygon>
                <path d="M86.3425,82.4172857 L86.3425,53.3327143 C86.3425,52.6030916 85.446214,51.9075 84.2442434,51.9075 L37.0057566,51.9075 C35.803786,51.9075 34.9075,52.6030916 34.9075,53.3327143 L34.9075,82.4172857 C34.9075,83.1469084 35.803786,83.8425 37.0057566,83.8425 L84.2442434,83.8425 C85.446214,83.8425 86.3425,83.1469084 86.3425,82.4172857 Z M88.1575,82.4172857 C88.1575,84.2643419 86.3623834,85.6575 84.2442434,85.6575 L37.0057566,85.6575 C34.8876166,85.6575 33.0925,84.2643419 33.0925,82.4172857 L33.0925,53.3327143 C33.0925,51.4856581 34.8876166,50.0925 37.0057566,50.0925 L84.2442434,50.0925 C86.3623834,50.0925 88.1575,51.4856581 88.1575,53.3327143 L88.1575,82.4172857 Z" id="Stroke-1-Copy-5" fill="url(#linearGradient-1)" fill-rule="nonzero"></path>
                <path d="M55.959,59.3825 C56.2380014,59.1214987 56.5462483,58.8740012 56.88375,58.64 C57.2212517,58.4059988 57.590248,58.1990009 57.99075,58.019 C58.391252,57.8389991 58.8232477,57.6972505 59.28675,57.59375 C59.7502523,57.4902495 60.2519973,57.4385 60.792,57.4385 C61.5030036,57.4385 62.162247,57.541999 62.76975,57.749 C63.377253,57.956001 63.9014978,58.2484981 64.3425,58.6265 C64.7835022,59.0045019 65.1299987,59.4634973 65.382,60.0035 C65.6340013,60.5435027 65.76,61.1509966 65.76,61.826 C65.76,62.5100034 65.658751,63.0994975 65.45625,63.5945 C65.253749,64.0895025 64.9972516,64.5237481 64.68675,64.89725 C64.3762484,65.2707519 64.0365018,65.5947486 63.6675,65.86925 C63.2984982,66.1437514 62.9542516,66.4024988 62.63475,66.6455 C62.3152484,66.8885012 62.0407511,67.1314988 61.81125,67.3745 C61.5817489,67.6175012 61.4490002,67.8874985 61.413,68.1845 L61.17,70.25 L59.523,70.25 L59.361,68.009 L59.361,67.8605 C59.361,67.4824981 59.462249,67.1472515 59.66475,66.85475 C59.867251,66.5622485 60.1237484,66.2877513 60.43425,66.03125 C60.7447516,65.7747487 61.0777482,65.5182513 61.43325,65.26175 C61.7887518,65.0052487 62.1217484,64.7217516 62.43225,64.41125 C62.7427516,64.1007484 62.999249,63.747502 63.20175,63.3515 C63.404251,62.955498 63.5055,62.4875027 63.5055,61.9475 C63.5055,61.5604981 63.4290008,61.2095016 63.276,60.8945 C63.1229992,60.5794984 62.9160013,60.3117511 62.655,60.09125 C62.3939987,59.8707489 62.0857518,59.7020006 61.73025,59.585 C61.3747482,59.4679994 60.994502,59.4095 60.5895,59.4095 C60.0404973,59.4095 59.570252,59.4769993 59.17875,59.612 C58.787248,59.7470007 58.4565013,59.8954992 58.1865,60.0575 C57.9164987,60.2195008 57.6982508,60.3679993 57.53175,60.503 C57.3652492,60.6380007 57.2280005,60.7055 57.12,60.7055 C56.8949989,60.7055 56.7195006,60.602001 56.5935,60.395 L55.959,59.3825 Z M58.605,75.515 C58.605,75.2809988 58.6477496,75.060501 58.73325,74.8535 C58.8187504,74.646499 58.9357493,74.4665008 59.08425,74.3135 C59.2327507,74.1604992 59.410499,74.0390005 59.6175,73.949 C59.824501,73.8589995 60.0449988,73.814 60.279,73.814 C60.5130012,73.814 60.733499,73.8589995 60.9405,73.949 C61.147501,74.0390005 61.3274992,74.1604992 61.4805,74.3135 C61.6335008,74.4665008 61.7527496,74.646499 61.83825,74.8535 C61.9237504,75.060501 61.9665,75.2809988 61.9665,75.515 C61.9665,75.7580012 61.9237504,75.980749 61.83825,76.18325 C61.7527496,76.385751 61.6335008,76.5634992 61.4805,76.7165 C61.3274992,76.8695008 61.147501,76.9887496 60.9405,77.07425 C60.733499,77.1597504 60.5130012,77.2025 60.279,77.2025 C60.0449988,77.2025 59.824501,77.1597504 59.6175,77.07425 C59.410499,76.9887496 59.2327507,76.8695008 59.08425,76.7165 C58.9357493,76.5634992 58.8187504,76.385751 58.73325,76.18325 C58.6477496,75.980749 58.605,75.7580012 58.605,75.515 Z" id="?" fill="#EF1C3B"></path>
                <path d="M79.435,132.417286 L79.435,103.332714 C79.435,103.046021 79.2044061,102.815 78.921597,102.815 L42.328403,102.815 C42.0455939,102.815 41.815,103.046021 41.815,103.332714 L41.815,132.417286 C41.815,132.703979 42.0455939,132.935 42.328403,132.935 L78.921597,132.935 C79.2044061,132.935 79.435,132.703979 79.435,132.417286 Z M81.25,132.417286 C81.25,133.705625 80.2075553,134.75 78.921597,134.75 L42.328403,134.75 C41.0424447,134.75 40,133.705625 40,132.417286 L40,103.332714 C40,102.044375 41.0424447,101 42.328403,101 L78.921597,101 C80.2075553,101 81.25,102.044375 81.25,103.332714 L81.25,132.417286 Z" id="Stroke-1-Copy-6" fill="url(#linearGradient-1)" fill-rule="nonzero"></path>
                <g id="Group-116" transform="translate(0.000000, 54.000000)" fill-rule="nonzero">
                    <ellipse id="Oval" fill="#EF1C3B" cx="14.0436242" cy="14.1103448" rx="14.0436242" ry="14.1103448"></ellipse>
                    <polygon id="Line-10" fill="#FFFFFF" points="7.45016569 9.28108201 8.80264995 7.80772316 21.2612437 19.2442119 19.9087594 20.7175708"></polygon>
                    <polygon id="Line-10-Copy" fill="#FFFFFF" transform="translate(14.355705, 13.958043) scale(-1, 1) translate(-14.355705, -13.958043) " points="7.45016569 8.97647774 8.80264995 7.50311889 21.2612437 18.9396076 19.9087594 20.4129665"></polygon>
                </g>
                <g id="Group-98" transform="translate(92.000000, 54.000000)" fill-rule="nonzero">
                    <ellipse id="Oval" fill="url(#linearGradient-1)" cx="14.0436242" cy="14.1103448" rx="14.0436242" ry="14.1103448"></ellipse>
                    <polygon id="Path-26-Copy-3" fill="#FFFFFF" points="12.612549 16.7682431 19.9722125 9.29817686 21.396915 10.7018231 12.612549 19.6179638 7.28764877 14.2131845 8.71235123 12.8095382"></polygon>
                </g>
                <g id="Group-118" transform="translate(60.375000, 92.500000) rotate(90.000000) translate(-60.375000, -92.500000) translate(53.625000, 87.625000)" fill="#02BDF3" fill-rule="nonzero">
                    <polygon id="Line-11" points="-0.75 5.625 -0.75 4.125 14.25 4.125 14.25 5.625"></polygon>
                    <polygon id="Path-29" points="12.310536 4.99244166 7.01938787 0.575770768 7.98061213 -0.575770768 14.689464 5.02429752 7.96502245 10.3384336 7.03497755 9.16156639"></polygon>
                </g>
                <g id="Group-94" transform="translate(60.750000, 41.875000) rotate(90.000000) translate(-60.750000, -41.875000) translate(54.000000, 37.000000)" fill="#02BDF3" fill-rule="nonzero">
                    <polygon id="Line-11" points="-0.75 5.625 -0.75 4.125 14.25 4.125 14.25 5.625"></polygon>
                    <polygon id="Path-29" points="12.310536 4.99244166 7.01938787 0.575770768 7.98061213 -0.575770768 14.689464 5.02429752 7.96502245 10.3384336 7.03497755 9.16156639"></polygon>
                </g>
            </g>
        </g>
    </g>
</svg>