<?xml version="1.0" encoding="UTF-8"?>
<svg width="108px" height="131px" viewBox="0 0 108 131" version="1.1" xmlns="http://www.w3.org/2000/svg" xmlns:xlink="http://www.w3.org/1999/xlink">
    <!-- Generator: Sketch 52.3 (67297) - http://www.bohemiancoding.com/sketch -->
    <title>approach icon 1</title>
    <desc>Created with Sketch.</desc>
    <defs>
        <linearGradient x1="1.20662332%" y1="2.14292466%" x2="90.267142%" y2="79.7543246%" id="linearGradient-1">
            <stop stop-color="#0497F4" offset="0%"></stop>
            <stop stop-color="#0BCBF9" offset="100%"></stop>
        </linearGradient>
    </defs>
    <g id="Page-1" stroke="none" stroke-width="1" fill="none" fill-rule="evenodd">
        <g id="Approach-1440" transform="translate(-343.000000, -616.000000)">
            <g id="approach-icon-1" transform="translate(344.000000, 616.000000)">
                <path d="M55.9100225,70.3239414 L50.2289414,70.3239414 C47.8010135,70.3239414 45.8327703,68.3556982 45.8327703,65.927545 L45.8327703,60.5309234 C45.8327703,59.5773198 46.6057432,58.8043468 47.5593468,58.8043468 L58.5798423,58.8043468 C59.5332207,58.8043468 60.3064189,59.5773198 60.3064189,60.5309234 L60.3064189,65.927545 C60.3064189,68.3556982 58.3379505,70.3239414 55.9100225,70.3239414 Z" id="Stroke-1" fill="url(#linearGradient-1)"></path>
                <path d="M58.7043018,58.7999324 C58.7043018,58.7999324 59.5256982,56.0573649 60.9565541,53.8825901 C61.8950676,52.4560135 64.7799775,49.1395721 65.5374099,48.3659234 C69.0067793,45.0677252 71.1732207,40.4116441 71.1732207,35.2467793 C71.1732207,25.2483559 63.0680405,17.1429505 53.0693919,17.1429505 C43.0709685,17.1429505 34.9657883,25.2483559 34.9657883,35.2467793 C34.9657883,40.4713288 37.1817793,45.1760586 40.7216441,48.4803378 C41.6162387,49.399482 43.8770495,52.0055631 45.1907883,53.8825901 C46.6838063,56.0152477 47.4430405,58.7999324 47.4430405,58.7999324" id="Stroke-9" fill="#EF1C3B"></path>
                <path d="M45.4299092,36.7449531 L46.3781088,34.9840109 C46.4455918,35.0203479 46.597023,35.0943029 46.8256832,35.1936525 C47.2193554,35.3646975 47.6772437,35.5370229 48.1925696,35.6985453 C49.6724751,36.1624032 51.3045594,36.4410586 53.035991,36.4410586 C54.7686216,36.4410586 56.4164068,36.162006 57.9212488,35.6972925 C58.4457978,35.5353054 58.913455,35.362411 59.3168363,35.1907089 C59.5516552,35.0907566 59.7080153,35.0161337 59.7786077,34.9790745 L60.7082391,36.7498894 C60.2813386,36.974001 59.5311064,37.2933426 58.5113751,37.608248 C56.8254091,38.1288949 54.9821047,38.4410586 53.035991,38.4410586 C51.0888753,38.4410586 49.2582062,38.1284977 47.5943898,37.6069952 C46.5868364,37.2911902 45.8489365,36.9705832 45.4299092,36.7449531 Z" id="Stroke-3" fill="#FFFFFF" fill-rule="nonzero"></path>
                <polygon id="Stroke-5" fill="#FFFFFF" fill-rule="nonzero" points="49.7275676 37.5161486 51.7275676 37.5161486 51.7275676 58.7623198 49.7275676 58.7623198"></polygon>
                <polygon id="Stroke-7" fill="#FFFFFF" fill-rule="nonzero" points="54.1945495 37.5161486 56.1945495 37.5161486 56.1945495 58.7623198 54.1945495 58.7623198"></polygon>
                <path d="M87.5129054,106.492095 C82.4318243,106.492095 78.3126802,102.37295 78.3126802,97.2918694 L78.3126802,92.5193468 C78.3126802,87.4382658 82.4318243,83.3191216 87.5129054,83.3191216 C92.5939865,83.3191216 96.7131306,87.4382658 96.7131306,92.5193468 L96.7131306,97.2918694 C96.7131306,102.37295 92.5939865,106.492095 87.5129054,106.492095 Z" id="Stroke-17" fill="url(#linearGradient-1)"></path>
                <path d="M82.4787769,104.568695 L83.6535654,106.187296 L72.3855712,114.365658 C71.8182334,114.777459 71.3372047,115.290595 70.9645474,115.877795 L69.275903,114.806124 C69.7833924,114.006467 70.4385486,113.307581 71.2107589,112.747073 L82.4787769,104.568695 Z" id="Stroke-19" fill="url(#linearGradient-1)" fill-rule="nonzero"></path>
                <path d="M18.3760811,106.492095 C23.4571622,106.492095 27.5763063,102.37295 27.5763063,97.2918694 L27.5763063,92.5193468 C27.5763063,87.4382658 23.4571622,83.3191216 18.3760811,83.3191216 C13.295,83.3191216 9.17585586,87.4382658 9.17585586,92.5193468 L9.17585586,97.2918694 C9.17585586,102.37295 13.295,106.492095 18.3760811,106.492095 Z" id="Stroke-21" fill="url(#linearGradient-1)"></path>
                <path d="M22.2354211,106.187296 L23.4102096,104.568695 L34.6782514,112.74709 C35.4504379,113.307581 36.105594,114.006467 36.6130835,114.806124 L34.9244391,115.877795 C34.5517818,115.290595 34.070753,114.777459 33.5034391,114.365675 L22.2354211,106.187296 Z" id="Stroke-23" fill="url(#linearGradient-1)" fill-rule="nonzero"></path>
                <path d="M13.3765697,104.568695 L14.5513582,106.187296 L3.28333669,114.365677 C1.84889564,115.406792 1,117.071857 1,118.844212 L1,121.896689 C1,125.738323 4.11422169,128.852545 7.95585586,128.852545 L97.9333333,128.852545 C101.774773,128.852545 104.888964,125.738293 104.888964,121.896689 L104.888964,118.844212 C104.888964,117.071898 104.040098,115.406788 102.605857,114.36568 L91.3376134,106.187302 L92.5123866,104.568689 L103.780685,112.747108 C105.733322,114.164516 106.888964,116.431386 106.888964,118.844212 L106.888964,121.896689 C106.888964,126.842854 102.879351,130.852545 97.9333333,130.852545 L7.95585586,130.852545 C3.00965219,130.852545 -1,126.842893 -1,121.896689 L-1,118.844212 C-1,116.431307 0.155709106,114.164442 2.10855168,112.747073 L13.3765697,104.568695 Z" id="Stroke-25" fill="url(#linearGradient-1)" fill-rule="nonzero"></path>
                <polygon id="Stroke-31" fill="#02BDF3" fill-rule="nonzero" points="29.4248718 46.0274682 30.1726957 47.8823966 19.2224705 52.2970363 18.4746466 50.4421079"></polygon>
                <polygon id="Stroke-33" fill="#02BDF3" fill-rule="nonzero" points="87.8257277 22.4830538 88.5735516 24.3379822 77.6233264 28.7526219 76.8755025 26.8976935"></polygon>
                <polygon id="Stroke-35" fill="#02BDF3" fill-rule="nonzero" points="34.6158935 54.6485941 36.0208632 56.0719915 27.6181605 64.3659104 26.2131908 62.942513"></polygon>
                <path d="M52.9032883,104.492095 C56.8797999,104.492095 60.1035135,101.268381 60.1035135,97.2918694 L60.1035135,92.5193468 C60.1035135,88.5428353 56.8797999,85.3191216 52.9032883,85.3191216 C48.9267767,85.3191216 45.7030631,88.5428353 45.7030631,92.5193468 L45.7030631,97.2918694 C45.7030631,101.268381 48.9267767,104.492095 52.9032883,104.492095 Z M52.9032883,108.492095 C46.7176377,108.492095 41.7030631,103.47752 41.7030631,97.2918694 L41.7030631,92.5193468 C41.7030631,86.3336963 46.7176377,81.3191216 52.9032883,81.3191216 C59.0889389,81.3191216 64.1035135,86.3336963 64.1035135,92.5193468 L64.1035135,97.2918694 C64.1035135,103.47752 59.0889389,108.492095 52.9032883,108.492095 Z" id="Stroke-11" fill="url(#linearGradient-1)" fill-rule="nonzero"></path>
                <path d="M47.2817655,103.759394 L49.6313426,106.996597 L38.3633175,115.174981 C37.188079,116.027966 36.4925901,117.392133 36.4925901,118.844212 L36.4925901,129.852545 L32.4925901,129.852545 L32.4925901,118.844212 C32.4925901,116.111032 33.8017059,113.543267 36.0137475,111.937772 L47.2817655,103.759394 Z" id="Stroke-13" fill="url(#linearGradient-1)" fill-rule="nonzero"></path>
                <path d="M56.1406169,106.996597 L58.4901939,103.759394 L69.7582049,111.937767 C71.9702535,113.543267 73.2793694,116.111032 73.2793694,118.844212 L73.2793694,129.852545 L69.2793694,129.852545 L69.2793694,118.844212 C69.2793694,117.392133 68.5838805,116.027966 67.4086349,115.174976 L56.1406169,106.996597 Z" id="Stroke-15" fill="url(#linearGradient-1)" fill-rule="nonzero"></path>
                <polygon id="Stroke-37" fill="#02BDF3" fill-rule="nonzero" points="79.4300377 10.4140896 80.8350074 11.837487 72.4323047 20.1314059 71.027335 18.7080085"></polygon>
                <polygon id="Stroke-39" fill="#02BDF3" fill-rule="nonzero" points="67.0388678 2.51642344 68.8837448 3.2887117 64.3247358 14.1794775 62.4798588 13.4071892"></polygon>
                <polygon id="Stroke-41" fill="#02BDF3" fill-rule="nonzero" points="52.4334939 0.00514791131 54.4334881 0.00030253914 54.4620917 11.8068341 52.4620975 11.8116794"></polygon>
                <polygon id="Stroke-43" fill="#02BDF3" fill-rule="nonzero" points="79.1049775 38.3900225 79.1049775 36.3900225 90.911509 36.3900225 90.911509 38.3900225"></polygon>
                <polygon id="Stroke-45" fill="#02BDF3" fill-rule="nonzero" points="16.1367342 38.3900225 16.1367342 36.3900225 27.9432658 36.3900225 27.9432658 38.3900225"></polygon>
                <polygon id="Stroke-47" fill="#02BDF3" fill-rule="nonzero" points="76.8755475 47.8823966 77.6233714 46.0274682 88.5735966 50.4421079 87.8257727 52.2970363"></polygon>
                <polygon id="Stroke-49" fill="#02BDF3" fill-rule="nonzero" points="18.4747142 24.3379822 19.2225381 22.4830538 30.1727633 26.8976935 29.4249394 28.7526219"></polygon>
                <polygon id="Stroke-51" fill="#02BDF3" fill-rule="nonzero" points="71.02738 56.0719915 72.4323497 54.6485941 80.8350524 62.942513 79.4300827 64.3659104"></polygon>
                <polygon id="Stroke-53" fill="#02BDF3" fill-rule="nonzero" points="26.2132359 11.837487 27.6182056 10.4140896 36.0209083 18.7080085 34.6159386 20.1314059"></polygon>
                <polygon id="Stroke-55" fill="#02BDF3" fill-rule="nonzero" points="38.164521 3.2887117 40.0093979 2.51642344 44.5684069 13.4071892 42.72353 14.1794775"></polygon>
            </g>
        </g>
    </g>
</svg>