<?xml version="1.0" encoding="UTF-8"?>
<svg width="30px" height="30px" viewBox="0 0 30 30" version="1.1" xmlns="http://www.w3.org/2000/svg" xmlns:xlink="http://www.w3.org/1999/xlink">
    <!-- Generator: Sketch 52.3 (67297) - http://www.bohemiancoding.com/sketch -->
    <title>tw_article</title>
    <desc>Created with Sketch.</desc>
    <defs>
        <linearGradient x1="1.20662332%" y1="2.14292466%" x2="90.267142%" y2="79.7543246%" id="linearGradient-1">
            <stop stop-color="#0497F4" offset="0%"></stop>
            <stop stop-color="#0BCBF9" offset="100%"></stop>
        </linearGradient>
    </defs>
    <g id="Design" stroke="none" stroke-width="1" fill="none" fill-rule="evenodd">
        <g id="Article-1440-" transform="translate(-1308.000000, -4512.000000)" fill="url(#linearGradient-1)" fill-rule="nonzero">
            <path d="M1323,4512 C1314.7157,4512 1308,4518.7157 1308,4527 C1308,4535.2843 1314.7157,4542 1323,4542 C1331.2843,4542 1338,4535.2843 1338,4527 C1338,4518.7157 1331.2843,4512 1323,4512 Z M1332.07059,4522.9998 C1332.07765,4523.17688 1332.08133,4523.35427 1332.08133,4523.53258 C1332.08133,4529.94015 1327.20552,4536.56777 1319.04614,4536.56777 C1316.55192,4536.56777 1314.12338,4535.85606 1312.02322,4534.50905 C1311.97934,4534.48113 1311.96123,4534.4268 1311.97872,4534.37801 C1311.99621,4534.32951 1312.04563,4534.29944 1312.09627,4534.30527 C1312.44859,4534.34731 1312.8089,4534.36818 1313.16645,4534.36818 C1315.10701,4534.36818 1316.94414,4533.76818 1318.49801,4532.62987 C1316.6354,4532.47274 1315.03458,4531.21228 1314.45882,4529.41412 C1314.44685,4529.37668 1314.45545,4529.33586 1314.48123,4529.30639 C1314.50731,4529.27693 1314.54721,4529.26404 1314.58527,4529.2711 C1315.10148,4529.369 1315.62629,4529.37545 1316.13207,4529.2932 C1314.21115,4528.69627 1312.86107,4526.89688 1312.86107,4524.84829 L1312.86169,4524.78875 C1312.86261,4524.74977 1312.88379,4524.71417 1312.91754,4524.69483 C1312.951,4524.67519 1312.99274,4524.67488 1313.0265,4524.69391 C1313.52737,4524.97197 1314.08164,4525.15059 1314.65033,4525.21903 C1313.54639,4524.33913 1312.89821,4523.00532 1312.89821,4521.57852 C1312.89821,4520.7554 1313.11611,4519.94639 1313.52859,4519.23898 C1313.54701,4519.20737 1313.57954,4519.18711 1313.61575,4519.18435 C1313.65228,4519.18066 1313.68757,4519.19662 1313.71059,4519.22486 C1315.97003,4521.99621 1319.2935,4523.70261 1322.84747,4523.92205 C1322.78824,4523.62373 1322.75816,4523.31621 1322.75816,4523.00593 C1322.75816,4520.4399 1324.84573,4518.35263 1327.41146,4518.35263 C1328.67284,4518.35263 1329.89187,4518.871 1330.76563,4519.77698 C1331.75049,4519.57627 1332.6887,4519.21412 1333.5554,4518.70036 C1333.59499,4518.67673 1333.64471,4518.68041 1333.68123,4518.70895 C1333.71683,4518.7378 1333.73156,4518.78568 1333.71744,4518.82987 C1333.42373,4519.74844 1332.85105,4520.54977 1332.08164,4521.12829 C1332.80624,4521.00215 1333.50936,4520.78916 1334.17811,4520.49238 C1334.22292,4520.47182 1334.27601,4520.48471 1334.30824,4520.52246 C1334.34015,4520.56051 1334.34292,4520.61483 1334.31529,4520.65596 C1333.70609,4521.56777 1332.9511,4522.35621 1332.07059,4522.9998 Z" id="tw_article"></path>
        </g>
    </g>
</svg>