<?xml version="1.0" encoding="utf-8"?>
<!-- Generator: Adobe Illustrator 19.2.0, SVG Export Plug-In . SVG Version: 6.00 Build 0)  -->
<svg version="1.1" id="Layer_1" xmlns="http://www.w3.org/2000/svg" xmlns:xlink="http://www.w3.org/1999/xlink" x="0px" y="0px"
	 width="45px" height="45px" viewBox="0 0 45 45" style="enable-background:new 0 0 45 45;" xml:space="preserve">
<style type="text/css">
	.st0{fill:#EF1C3B;}
</style>
<title>categories-wrestling icon</title>
<desc>Created with Sketch.</desc>
<path class="st0" d="M0,23.9C0,23,0,22,0,21.1c0-0.1,0.1-0.2,0.1-0.3c0.2-2.9,1-5.7,2.3-8.3C5.9,5.8,11.3,1.8,18.7,0.3
	c0.8-0.2,1.6-0.2,2.4-0.3c0.9,0,1.8,0,2.7,0c0.1,0,0.2,0.1,0.3,0.1c1,0.1,1.9,0.2,2.9,0.4c12.3,2.5,20.3,14.9,17.4,27.1
	C41.5,40,29.2,47.4,16.9,44.3C8.4,42.2,1.8,35,0.3,26.4C0.2,25.6,0.1,24.7,0,23.9z M34.4,11.8c-0.1-0.3-0.1-0.7-0.3-0.9
	c-1.4-1.4-2.9-2.7-4.5-3.7C29.5,7.1,29.3,7,29.1,7c-0.7,0-1.3,0-2,0.1c-3.1,0.4-5.9,1.6-8.7,3.1c-0.1,0.1-0.3,0.2-0.3,0.4
	c-0.4,1.5-0.7,3.1-1.1,4.7c-0.1,0.3,0,0.5,0.2,0.7c2.8,2.5,5.7,5,8.5,7.5c0.2,0.2,0.4,0.2,0.6,0.1c1.9-0.6,3.8-1.2,5.8-1.7
	c0.6-0.2,0.9-0.4,1-1c0,0,0-0.1,0-0.1C33.9,17.9,34.1,14.8,34.4,11.8z M8.6,28.5c0,0.5,0,1,0,1.5c0,0.2,0.1,0.4,0.2,0.6
	c1.3,1.6,2.9,2.9,4.5,4.2c0.1,0.1,0.4,0.1,0.5,0.1c0.9-0.2,1.9-0.4,2.8-0.7c2.2-0.7,4.5-1.5,6.7-2.3c0.3-0.1,0.5-0.3,0.5-0.6
	c0.2-1.8,0.4-3.7,0.7-5.5c0-0.3,0-0.4-0.2-0.6c-2.8-2.5-5.6-5-8.5-7.5c-0.2-0.2-0.4-0.2-0.7-0.1c-1.6,0.6-3.2,1.2-4.8,1.8
	c-0.3,0.1-0.5,0.3-0.6,0.7C9,22.7,8.8,25.6,8.6,28.5z M14.8,37c0.1,1.4,0.1,2.8,0.2,4.2c0,0.1,0.2,0.3,0.3,0.3
	c4.9,1.8,9.8,1.7,14.6-0.1c0.3-0.1,0.4-0.3,0.5-0.5c0.4-1.3,0.5-2.7,0.5-4.1c0-0.1-0.2-0.3-0.3-0.3c-2.1-0.4-4-1.3-5.8-2.5
	c-0.1-0.1-0.4-0.1-0.5,0c-1.9,0.7-3.8,1.4-5.7,2C17.5,36.3,16.2,36.6,14.8,37z M42.9,22.5c-0.1-3.7-1.1-7.2-3-10.4
	c-0.1-0.3-0.3-0.3-0.6-0.3c-0.8,0.1-1.7,0.2-2.5,0.2c-0.2,0-0.3,0.1-0.3,0.3c-0.1,1.2-0.2,2.5-0.4,3.7c-0.2,1.9-0.4,3.9-1,5.7
	c0,0.1,0,0.3,0.1,0.4c1.2,1.7,2.1,3.5,2.7,5.4c0,0.1,0.2,0.2,0.3,0.2c1.4,0,2.6-0.4,3.8-1c0.2-0.1,0.3-0.3,0.3-0.5
	C42.5,25.1,42.7,23.8,42.9,22.5z M4,30.8c0.8-0.3,1.5-0.6,2.3-0.9c0.1,0,0.2-0.2,0.2-0.4c0.1-1,0.1-2.1,0.2-3.1
	c0.2-2.5,0.5-4.9,1.2-7.3c0.1-0.2,0-0.4-0.1-0.6c-0.3-0.6-0.6-1.1-0.9-1.7c-0.4-0.7-0.7-1.5-1-2.3c-0.7,0.3-1.3,0.5-2,0.9
	c-0.2,0.1-0.4,0.3-0.5,0.6c-1.2,3.4-1.4,6.9-0.8,10.4C2.9,27.8,3.3,29.3,4,30.8z M28.3,3.1C28.1,3,28,3,27.9,3
	C23.2,1.7,18.5,2,14,4.1c-1.3,0.6-1,0.2-1.2,1.7c0,0.2,0,0.4,0,0.7c0,0.3,0.1,0.4,0.4,0.4c1.3,0.3,2.6,0.7,3.9,1.1
	c0.3,0.1,0.5,0.1,0.8,0c3.1-1.5,6.3-2.8,9.7-3.1c0.1,0,0.2-0.1,0.3-0.2C28.1,4.1,28.2,3.6,28.3,3.1z M41.5,29.5
	c-1.3,0.4-2.5,0.6-3.7,0.6c-0.1,0-0.2,0.1-0.3,0.2c-1.1,2-2.5,3.7-4.1,5.3c-0.1,0.1-0.2,0.2-0.2,0.3c0,1.3-0.1,2.6-0.1,3.9
	C37,37.4,39.8,34,41.5,29.5z M10.7,6.1c-2.4,1.8-4.3,3.9-5.8,6.5c0.4-0.1,0.6-0.2,0.9-0.3c0.4-0.1,0.7-0.3,1-0.7
	C7.6,10.3,8.7,9,9.9,8c0.6-0.5,0.9-1,0.8-1.8C10.7,6.2,10.7,6.2,10.7,6.1z"/>
</svg>
