<?xml version="1.0" encoding="utf-8"?>
<!-- Generator: Adobe Illustrator 19.2.0, SVG Export Plug-In . SVG Version: 6.00 Build 0)  -->
<svg version="1.1" id="Layer_1" xmlns="http://www.w3.org/2000/svg" xmlns:xlink="http://www.w3.org/1999/xlink" x="0px" y="0px"
	 width="45px" height="45px" viewBox="0 0 45 45" style="enable-background:new 0 0 45 45;" xml:space="preserve">
<style type="text/css">
	.st0{fill:#EF1C3B;}
</style>
<title>categories-wrestling icon</title>
<desc>Created with Sketch.</desc>
<g>
	<path class="st0" d="M44.9,15.5c-0.4-3.8-1.9-7.2-4.5-10c-4-4.2-9-6-14.8-5.4c-4.3,0.5-7.9,2.4-10.7,5.7
		c-4.1,4.8-5.2,10.2-3.6,16.3c0.1,0.2,0,0.3-0.1,0.5C9,24.8,6.8,27,4.6,29.2C3.8,30,3,30.8,2.3,31.5c-0.3,0.3-0.4,0.8-0.2,1.1
		c0.2,0.4,0.6,0.6,1,0.5c0.2-0.1,0.5-0.2,0.7-0.4c2.7-2.7,5.5-5.5,8.2-8.2c0.1-0.1,0.1-0.1,0.2-0.2c2.2,4.6,5.7,7.7,10.6,9.3
		c-0.8,0.8-1.5,1.5-2.2,2.2c-1.3,1.3-2.5,2.5-3.8,3.8c-0.3,0.3-0.4,0.8-0.2,1.2c0.2,0.4,0.6,0.6,1,0.5c0.2-0.1,0.4-0.2,0.6-0.4
		c2.2-2.2,4.4-4.4,6.6-6.6c0.1-0.1,0.3-0.2,0.5-0.2c1.9,0.3,3.7,0.3,5.6,0C39.6,32.7,45.8,24.5,44.9,15.5z M33.7,3.1
		c1.8,0.8,3.5,1.9,4.9,3.3c0.1,0.1,0.1,0.3,0.1,0.4c-0.2,2-0.5,4.1-0.7,6.1c0,0.1-0.1,0.2-0.2,0.2c-1.5,0.3-3,0.7-4.5,1
		c-0.1,0-0.2,0-0.3-0.1c-1.3-1-2.7-1.9-4-2.9c-0.1-0.1-0.2-0.2-0.2-0.3c0-0.7,0-1.4,0-2.1c0-0.7,0-1.4,0-2c0-0.2,0.1-0.3,0.2-0.4
		c1.4-1,2.9-2.1,4.3-3.1C33.4,3.1,33.5,3,33.7,3.1z M31.7,15.8c-0.5,1.4-0.9,2.8-1.3,4.1c-0.1,0.2-0.1,0.3-0.3,0.3
		c-1.5,0-2.9,0-4.4,0c-0.2,0-0.3,0-0.3-0.2c-0.4-1.4-0.9-2.8-1.3-4.2c0-0.1-0.1-0.2,0.1-0.3c1.3-0.9,2.5-1.8,3.7-2.7c0,0,0,0,0.1,0
		c0.5,0.3,0.9,0.7,1.4,1c0.8,0.6,1.6,1.1,2.3,1.7C31.7,15.5,31.7,15.6,31.7,15.8z M31.1,2.3c-0.1,0.1-0.2,0.2-0.3,0.2
		c-1,0.7-1.9,1.4-2.9,2.1c-0.1,0.1-0.2,0.2-0.4,0.1c-1.2-0.7-2.3-1.4-3.5-2.1c0,0-0.1,0-0.1-0.1C26.4,1.8,28.7,1.8,31.1,2.3z
		 M16.8,6.6c1.3-1.4,2.9-2.5,4.6-3.3c0.2-0.1,0.3-0.1,0.5,0c1.6,1,3.2,2,4.8,2.9c0.2,0.1,0.2,0.2,0.2,0.4c0,0.7,0,1.4,0,2.1
		c0,0.7,0,1.4,0,2.1c0,0.1-0.1,0.3-0.2,0.4c-1.3,1-2.6,1.9-3.9,2.9c-0.1,0.1-0.3,0.1-0.4,0.1c-1.4-0.3-2.9-0.6-4.3-1
		c-0.2,0-0.3-0.2-0.3-0.4C17.3,10.8,17,8.9,16.7,7C16.6,6.9,16.7,6.7,16.8,6.6z M15,8.8c0.2,1.2,0.4,2.3,0.5,3.4
		c0.1,0.4,0.1,0.8,0.2,1.1c0,0.1,0,0.2-0.1,0.3c-1,1-2.1,2-3.1,3.1C12.6,13.9,13.4,11.3,15,8.8z M14.6,24.6c-0.1,0-0.2-0.1-0.2-0.2
		c-0.8-1.5-1.4-3.2-1.6-4.9c0,0,0,0,0-0.1c0,0,0.1-0.1,0.1-0.2c1.4-1.4,2.7-2.8,4.1-4.2c0.1-0.1,0.3-0.1,0.4-0.1
		c1.5,0.3,2.9,0.7,4.4,1c0.2,0,0.2,0.1,0.3,0.3c0.5,1.5,1,3.1,1.5,4.6c0,0.1,0,0.3-0.1,0.4c-0.9,1.5-1.9,2.9-2.8,4.4
		c-0.1,0.1-0.2,0.2-0.3,0.1C18.4,25.3,16.5,25,14.6,24.6z M15.9,26.8c0.4,0.1,0.8,0.1,1.1,0.2c1,0.2,2,0.4,3,0.6
		c0.2,0,0.4,0.1,0.5,0.3c0.6,1.1,1.3,2.2,1.9,3.4c0,0.1,0.1,0.2,0.2,0.3C19.9,30.6,17.7,29,15.9,26.8z M30.4,32.1
		c-0.1,0.1-0.2,0.2-0.3,0.2c-1.6,0.2-3.1,0.2-4.7,0c-0.1,0-0.2-0.1-0.3-0.2c-1-1.7-2-3.4-3-5.1c0-0.1,0-0.2,0-0.3
		c0.9-1.5,1.9-2.9,2.8-4.4c0.1-0.1,0.2-0.2,0.3-0.2c0.8,0,1.6,0,2.4,0c0.8,0,1.6,0,2.4,0c0.1,0,0.3,0.1,0.3,0.2
		c0.9,1.4,1.9,2.9,2.8,4.3c0.1,0.1,0.1,0.2,0,0.4C32.4,28.7,31.4,30.4,30.4,32.1z M33,31.5c0.7-1.2,1.4-2.5,2.2-3.7
		c0-0.1,0.1-0.1,0.2-0.1c1.4-0.3,2.8-0.5,4.3-0.8C37.8,29,35.7,30.6,33,31.5z M42.5,21.2c-0.3,1.1-0.7,2.2-1.3,3.2
		c-0.1,0.1-0.2,0.2-0.3,0.2c-1.9,0.4-3.8,0.7-5.7,1.1c-0.2,0-0.3,0-0.3-0.2c-0.9-1.5-1.9-2.9-2.8-4.4c-0.1-0.1-0.1-0.2,0-0.3
		c0.5-1.5,1-3.1,1.5-4.6c0-0.1,0.2-0.2,0.3-0.2c1.5-0.3,3-0.7,4.5-1c0.1,0,0.2,0,0.3,0.1c1.4,1.4,2.8,2.8,4.1,4.2
		c0.1,0.1,0.1,0.1,0.2,0.2C42.8,20.1,42.7,20.6,42.5,21.2z M41.7,15.4c-0.6-0.6-1.1-1.2-1.7-1.8c-0.1-0.1-0.2-0.2-0.1-0.3
		c0.2-1.5,0.3-2.9,0.5-4.4c0-0.1,0-0.2,0.1-0.3c1.7,2.5,2.6,5.2,2.7,8.1C42.6,16.3,42.1,15.9,41.7,15.4z"/>
	<path class="st0" d="M12.9,31.3c-0.5,0-0.7,0.2-1,0.4c-3.6,3.6-7.2,7.2-10.8,10.8c-0.3,0.3-0.5,0.5-0.8,0.8c-0.4,0.4-0.5,1-0.1,1.4
		c0.4,0.4,1,0.4,1.4,0c0.1-0.1,0.2-0.1,0.2-0.2c3.1-3.1,6.3-6.3,9.4-9.4c0.7-0.7,1.4-1.4,2.1-2.1c0.3-0.3,0.4-0.7,0.2-1.1
		C13.5,31.5,13.2,31.3,12.9,31.3z"/>
</g>
</svg>
