<?xml version="1.0" encoding="UTF-8"?>
<svg width="168px" height="35px" viewBox="0 0 168 35" version="1.1" xmlns="http://www.w3.org/2000/svg" xmlns:xlink="http://www.w3.org/1999/xlink">
    <!-- Generator: Sketch 52.3 (67297) - http://www.bohemiancoding.com/sketch -->
    <title>Combined Shape</title>
    <desc>Created with Sketch.</desc>
    <g id="Design" stroke="none" stroke-width="1" fill="none" fill-rule="evenodd">
        <g id="PopUp-Menu-320" transform="translate(-18.000000, -53.000000)" fill="#ED1A3A">
            <path d="M89.6267898,75.5417584 C90.2140607,76.1349331 90.6306817,76.702241 90.8760644,77.2430941 C91.1214471,77.7839472 91.2444327,78.3753584 91.2444327,79.0161517 C91.2444327,80.2642291 90.812512,81.2953773 89.9492592,82.1090085 C89.0854178,82.9226397 87.9591288,83.3288674 86.5709805,83.3288674 C85.4864713,83.3288674 84.5414241,83.0637318 83.7364276,82.5328727 C82.931431,82.0014258 82.2423587,81.1678065 81.6692106,80.0302513 L84.1053843,78.5617175 C84.8380018,79.9062078 85.6812475,80.578159 86.6351213,80.578159 C87.1329481,80.578159 87.550746,80.4335396 87.889692,80.1437129 C88.2280494,79.8544741 88.3975224,79.5199682 88.3975224,79.1407831 C88.3975224,78.7962832 88.2698292,78.4511954 88.0138544,78.1066955 C87.7578797,77.7616077 87.1947351,77.2348638 86.3238324,76.5241122 C84.6644097,75.1731552 83.5928463,74.1308372 83.1091423,73.3965703 C82.6254382,72.6623034 82.3829977,71.9286244 82.3829977,71.1984727 C82.3829977,70.1432213 82.7860844,69.2384681 83.5904925,68.4836252 C84.3954891,67.7287824 85.3893774,67.3507731 86.5703921,67.3507731 C87.3306666,67.3507731 88.0544573,67.5271383 88.7417643,67.8786928 C89.4290713,68.2302473 90.1740462,68.8716286 90.9755121,69.8022486 L88.8288546,71.6946467 C88.0744646,70.6470377 87.3077171,70.1226453 86.52567,70.1226453 C86.1461212,70.1226453 85.8354208,70.2249371 85.5929803,70.4283449 C85.3511283,70.6311648 85.229908,70.8604395 85.229908,71.116169 C85.229908,71.3707227 85.3164099,71.611755 85.4894135,71.839854 C85.7242042,72.143202 86.4326953,72.7945773 87.6148868,73.7939798 C88.7211687,74.7181331 89.3919991,75.300726 89.6267898,75.5417584 Z M96.2284088,67.5478906 L96.2284088,71.694823 L97.9060734,71.694823 L97.9060734,74.1251347 L96.2284088,74.1251347 L96.2284088,82.9463314 L93.4026826,82.9463314 L93.4026826,74.1251347 L91.9533357,74.1251347 L91.9533357,71.694823 L93.4026826,71.694823 L93.4026826,67.5478906 L96.2284088,67.5478906 Z M106.506179,79.6891023 C107.094038,79.0753516 107.387673,78.2858237 107.387673,77.3211063 C107.387673,76.3552132 107.099334,75.5709762 106.522067,74.9683953 C105.9448,74.3646386 105.206886,74.0636421 104.308326,74.0636421 C103.430362,74.0636421 102.69951,74.3681659 102.115181,74.9783893 C101.530853,75.5880248 101.238983,76.3699103 101.238983,77.3211063 C101.238983,78.2999329 101.527322,79.0924003 102.105178,79.6996842 C102.681857,80.3063803 103.413297,80.6091405 104.297734,80.6091405 C105.18276,80.6091405 105.918908,80.3022652 106.506179,79.6891023 Z M107.258215,72.201814 C108.193258,72.7326731 108.922934,73.4528308 109.447829,74.3628749 C109.972136,75.2729191 110.234584,76.255273 110.234584,77.3105244 C110.234584,78.3722426 109.970959,79.3651784 109.442533,80.2887438 C108.914695,81.2123093 108.195024,81.9348185 107.284107,82.4550957 C106.37319,82.9759608 105.369298,83.2358054 104.271843,83.2358054 C102.657142,83.2358054 101.278409,82.6626187 100.13682,81.5138937 C98.9940545,80.3663445 98.4238486,78.9718841 98.4238486,77.3305125 C98.4238486,75.5727398 99.0681989,74.1083212 100.359253,72.9360809 C101.490838,71.9155146 102.791896,71.4052314 104.261839,71.4052314 C105.323987,71.4052314 106.323171,71.6709549 107.258215,72.201814 Z M118.221115,71.4052902 C119.3374,71.4052902 120.284801,71.7950572 121.063317,72.5740033 C121.717671,73.2353726 122.045437,74.214787 122.045437,75.5104829 L122.045437,82.9466254 L119.250898,82.9466254 L119.250898,78.0189832 C119.250898,76.6762566 119.190288,75.7844368 119.069656,75.3441118 C118.949025,74.903199 118.739537,74.5675173 118.440017,74.336479 C118.140497,74.1060285 117.770364,73.9902154 117.329616,73.9902154 C116.758822,73.9902154 116.268056,74.1818655 115.858497,74.56399 C115.448349,74.9461145 115.164717,75.474622 115.006424,76.1495127 C114.923453,76.5004793 114.882262,77.2617888 114.882262,78.4322655 L114.882262,82.9466254 L112.055947,82.9466254 L112.055947,71.6945291 L114.882262,71.6945291 L114.882262,72.8479571 C115.523082,72.3076919 116.10388,71.932622 116.624067,71.7221596 C117.144255,71.5111093 117.676212,71.4052902 118.221115,71.4052902 Z M126.702412,75.9143591 L132.830507,75.9143591 C132.643969,75.2870871 132.27619,74.7762161 131.726579,74.3835097 C131.176969,73.9908033 130.539092,73.7944501 129.812947,73.7944501 C129.025016,73.7944501 128.33359,74.0154944 127.739846,74.4564073 C127.366181,74.7321248 127.020763,75.2177168 126.702412,75.9143591 Z M129.673485,71.4052902 C131.447067,71.4052902 132.889352,71.9725981 134.000342,73.106626 C135.111331,74.240066 135.666826,75.7385819 135.666826,77.599822 L135.656822,78.1377357 L126.57825,78.1377357 C126.709474,78.9378456 127.0596,79.5739359 127.628629,80.0454187 C128.198247,80.5180773 128.924391,80.7538187 129.807651,80.7538187 C130.863915,80.7538187 131.770713,80.3846277 132.530399,79.6474214 L134.911259,80.7644006 C134.317515,81.6056624 133.60667,82.2276435 132.778724,82.6309318 C131.950778,83.0342201 130.967482,83.2358642 129.828835,83.2358642 C128.062315,83.2358642 126.622972,82.6797261 125.512571,81.5656863 C124.400993,80.4528222 123.845498,79.0583618 123.845498,77.3828929 C123.845498,75.6656843 124.399228,74.240066 125.507275,73.106626 C126.614734,71.9725981 128.00347,71.4052902 129.673485,71.4052902 Z M146.259121,67.733897 L146.259121,80.1852763 L150.482999,80.1852763 L150.482999,82.9465666 L143.360427,82.9465666 L143.360427,67.733897 L146.259121,67.733897 Z M159.450355,79.7252572 C160.034683,79.1079792 160.327142,78.2996389 160.327142,77.3002364 C160.327142,76.320822 160.034683,75.5277667 159.450355,74.9210706 C158.865438,74.3149624 158.126347,74.0110265 157.231907,74.0110265 C156.35865,74.0110265 155.633682,74.3202534 155.055238,74.9363556 C154.477383,75.5536336 154.189043,76.3449252 154.189043,77.3108183 C154.189043,78.2825903 154.482679,79.0821123 155.070538,79.7099722 C155.658986,80.3366564 156.382188,80.6505863 157.242499,80.6505863 C158.129878,80.6505863 158.865438,80.3419473 159.450355,79.7252572 Z M160.202391,72.935787 L160.202391,71.6947642 L163.029294,71.6947642 L163.029294,82.9468605 L160.202391,82.9468605 L160.202391,81.7569837 C159.651604,82.281376 159.097874,82.6582096 158.543557,82.8898358 C157.98865,83.1202862 157.387257,83.2360994 156.739376,83.2360994 C155.284733,83.2360994 154.026632,82.6729067 152.965072,81.5453455 C151.9041,80.4177843 151.372732,79.0162693 151.372732,77.3408004 C151.372732,75.6036037 151.886447,74.1797491 152.913877,73.0704124 C153.940718,71.9604877 155.188227,71.4055254 156.656993,71.4055254 C157.331943,71.4055254 157.966289,71.5330962 158.558856,71.7876499 C159.151423,72.0433793 159.699856,72.4260917 160.202391,72.935787 Z M173.435169,79.7097371 C174.024794,79.082465 174.319606,78.2823551 174.319606,77.3105832 C174.319606,76.3446901 174.03009,75.5539863 173.450469,74.9367083 C172.870848,74.3200182 172.139407,74.0113792 171.256147,74.0113792 C170.365825,74.0113792 169.626735,74.3147273 169.040641,74.9208355 C168.453959,75.5281195 168.160912,76.3205868 168.160912,77.3000013 C168.160912,78.2999917 168.453959,79.1083319 169.040641,79.725022 C169.626735,80.3417122 170.365825,80.6509391 171.256147,80.6509391 C172.118811,80.6509391 172.844956,80.3364212 173.435169,79.7097371 Z M171.84636,71.4052902 C173.315714,71.4052902 174.564989,71.9602526 175.593007,73.0701772 C176.621614,74.1801019 177.135917,75.6039565 177.135917,77.3411532 C177.135917,79.0160342 176.604549,80.4175492 175.541224,81.5451103 C174.478487,82.6726715 173.219209,83.2358642 171.763389,83.2358642 C171.114331,83.2358642 170.510584,83.120639 169.951558,82.8896006 C169.392533,82.6585623 168.837627,82.2811409 168.285074,81.7567485 L168.285074,82.9466254 L165.479355,82.9466254 L165.479355,67.3512434 L168.285074,67.3512434 L168.285074,72.9361397 C168.795258,72.4258565 169.347811,72.0431442 169.941555,71.7874147 C170.53471,71.5334489 171.169057,71.4052902 171.84636,71.4052902 Z M185.38978,77.7652525 C185.796397,78.3237422 186,78.9786447 186,79.7305481 C186,80.7299506 185.632809,81.5641578 184.897249,82.2331696 C184.162866,82.9015935 183.177216,83.2360994 181.942653,83.2360994 C180.300295,83.2360994 178.988645,82.5947181 178.008879,81.3125435 L179.747742,79.4201455 C180.079627,79.8063852 180.468003,80.1179636 180.912869,80.3560565 C181.357147,80.5935616 181.751996,80.712902 182.097414,80.712902 C182.469902,80.712902 182.770599,80.6229558 182.998328,80.4442391 C183.226057,80.2643467 183.340216,80.0574116 183.340216,79.8234338 C183.340216,79.3889876 182.92948,78.9651234 182.108006,78.5512532 L181.155898,78.0750673 C179.334064,77.1591443 178.423147,76.0110072 178.423147,74.6318318 C178.423147,73.7423636 178.766212,72.9822298 179.45293,72.3514305 C180.139649,71.7206311 181.017613,71.4055254 182.087411,71.4055254 C182.818851,71.4055254 183.507335,71.5654298 184.152274,71.8858265 C184.797213,72.206811 185.343881,72.6671241 185.793455,73.2667656 L184.044,75.0139563 C183.333155,74.3114351 182.687627,73.9598806 182.108006,73.9598806 C181.790833,73.9598806 181.542508,74.0268993 181.362443,74.1615247 C181.183555,74.2955622 181.093522,74.4631091 181.093522,74.6629896 C181.093522,74.8146637 181.150602,74.95458 181.264172,75.0821508 C181.37892,75.2091337 181.659021,75.3831473 182.108006,75.6036037 L183.143675,76.1209415 C184.23348,76.6588552 184.981985,77.2073508 185.38978,77.7652525 Z M18,53 L67.5184684,66.4196239 L69.9252198,70.4689677 L73.0210435,74.0838653 L73.9184263,83.7774816 L66.6722805,87.2495234 L61.884081,86.6610517 L56.9381775,87.2495234 L21.38534,62.0686958 L57.3612714,85.9473607 L61.460987,84.9250308 L66.2491865,85.5135025 L72.2248736,82.9097651 L71.3280792,74.5183114 L69.0796203,71.3366842 L66.6722805,67.2873404 L18,53 Z M50.4411256,68.2773368 L20.444412,56.3721016 L52.4953968,67.8669939 L50.4411256,68.2773368 Z M66.2609555,63.1456989 L51.4685554,59.0410941 L65.8508074,61.9675798 L66.2609555,63.1456989 Z M48.386266,74.0256648 L21.2664736,59.2462656 L48.797591,72.9257342 L48.386266,74.0256648 Z M52.78609,70.0398125 L56.8958092,68.397853 L59.3090335,68.8005534 L64.001316,68.6876797 L66.3462804,71.2714291 L69.2226131,74.555936 L68.4005516,74.9662789 L66.6946415,73.0168561 L68.1304541,78.472418 L68.4005516,74.9662789 L69.2214362,74.5823908 L68.8118766,80.7134311 L65.1134823,82.7663214 L60.3023334,82.2348744 L60.3023334,81.973854 L56.4844842,82.3553906 L52.374765,80.7134311 L52.374765,78.6611287 L50.7318188,77.0185813 L51.9640284,73.7352502 L52.78609,70.0398125 Z M56.3779752,74.955697 L56.407986,74.9580485 L58.233351,69.4860259 L57.1694374,69.2737999 L57.0529248,69.3202427 L57.0682244,69.3296488 L57.0364482,69.3678613 L56.3779752,74.955697 Z M60.0904922,69.6024269 L65.5659987,71.7305664 L65.5242189,71.681772 L63.5617456,69.5195353 L60.0904922,69.6024269 Z M58.6387915,69.566566 L56.8563832,74.9104299 L65.5071539,72.1450244 L59.0259901,69.6277059 L58.9500804,69.6294696 L58.6387915,69.566566 Z M53.4651587,70.7535034 L52.8878914,73.6353099 L56.2814697,69.6282938 L53.4651587,70.7535034 Z M52.6225015,74.5806271 L55.9695924,74.915133 L56.5562748,69.9351692 L52.6236784,74.5765119 L52.6225015,74.5806271 Z M56.7269247,75.3830885 L60.1893514,81.1484651 L65.8584572,72.4642454 L56.7269247,75.3830885 Z M60.593615,81.2801511 L60.593615,81.3089574 L67.9980533,80.1996206 L68.0345371,79.7193196 L66.1885764,72.7093929 L60.593615,81.2801511 Z M52.4742127,74.9762729 L51.8269201,76.7005362 L55.6906682,75.2972575 L52.4742127,74.9762729 Z M51.8122089,77.1432127 L52.875534,78.3072226 L55.8289534,75.6829093 L51.8122089,77.1432127 Z M56.4362315,75.6940791 L56.3314878,75.7875526 L56.4844842,75.7875526 L56.4844842,81.2437023 L56.6292424,81.3894975 L56.5256756,81.492965 L59.7438964,81.2013747 L56.4362315,75.6940791 Z M53.5210612,78.2831194 L56.0737477,80.8327715 L56.0737477,76.0162394 L53.5210612,78.2831194 Z M53.1968265,80.3025003 L56.0196105,81.3601033 L53.2133031,78.5558975 L53.1521045,78.6105707 L53.1968265,78.6611287 L53.1968265,80.3025003 Z M61.6910701,81.5552807 L65.1758578,81.9097747 L67.2583745,80.7210736 L61.6910701,81.5552807 Z M48.797591,86.7509979 L40.5793294,79.3612983 L50.4411256,86.4464741 L48.797591,86.7509979 Z" id="Combined-Shape"></path>
        </g>
    </g>
</svg>