<?xml version="1.0" encoding="UTF-8"?>
<svg width="161px" height="60px" viewBox="0 0 161 60" version="1.1" xmlns="http://www.w3.org/2000/svg" xmlns:xlink="http://www.w3.org/1999/xlink">
    <!-- Generator: Sketch 52.3 (67297) - http://www.bohemiancoding.com/sketch -->
    <title>BTN share</title>
    <desc>Created with Sketch.</desc>
    <g id="Design" stroke="none" stroke-width="1" fill="none" fill-rule="evenodd">
        <g id="Showcase-1440-(Web/Tablet-project)" transform="translate(-1289.000000, -611.000000)">
            <g id="BTN-share" transform="translate(1289.000000, 611.000000)">
                <rect id="Rectangle-Copy" fill="#EF1C3B" fill-rule="nonzero" x="0" y="0" width="161" height="60" rx="30"></rect>
                <path d="M70.528,26.536 C70.469333,26.6533339 70.4013337,26.7359998 70.324,26.784 C70.2466663,26.8320002 70.1546672,26.856 70.048,26.856 C69.9413328,26.856 69.821334,26.8146671 69.688,26.732 C69.554666,26.6493329 69.3973342,26.5573338 69.216,26.456 C69.0346658,26.3546662 68.8226679,26.2626671 68.58,26.18 C68.3373321,26.0973329 68.0506683,26.056 67.72,26.056 C67.4213318,26.056 67.1613344,26.0919996 66.94,26.164 C66.7186656,26.2360004 66.5320008,26.3359994 66.38,26.464 C66.2279992,26.5920006 66.114667,26.7453324 66.04,26.924 C65.965333,27.1026676 65.928,27.2986656 65.928,27.512 C65.928,27.7840014 66.0039992,28.0106658 66.156,28.192 C66.3080008,28.3733342 66.5093321,28.5279994 66.76,28.656 C67.0106679,28.7840006 67.2959984,28.8986662 67.616,29 C67.9360016,29.1013338 68.262665,29.2093328 68.596,29.324 C68.929335,29.4386672 69.2559984,29.5719992 69.576,29.724 C69.8960016,29.8760008 70.1813321,30.0679988 70.432,30.3 C70.6826679,30.5320012 70.8839992,30.8159983 71.036,31.152 C71.1880008,31.4880017 71.264,31.8959976 71.264,32.376 C71.264,32.8986693 71.1746676,33.3879977 70.996,33.844 C70.8173324,34.3000023 70.5560017,34.6973316 70.212,35.036 C69.8679983,35.3746684 69.4480025,35.6413324 68.952,35.836 C68.4559975,36.0306676 67.8880032,36.128 67.248,36.128 C66.8799982,36.128 66.5173351,36.0920004 66.16,36.02 C65.8026649,35.9479996 65.4600016,35.845334 65.132,35.712 C64.8039984,35.578666 64.4973348,35.4186676 64.212,35.232 C63.9266652,35.0453324 63.6720011,34.8373345 63.448,34.608 L64.072,33.576 C64.130667,33.501333 64.2013329,33.4386669 64.284,33.388 C64.3666671,33.3373331 64.4586662,33.312 64.56,33.312 C64.693334,33.312 64.8373326,33.3666661 64.992,33.476 C65.1466674,33.5853339 65.3293323,33.706666 65.54,33.84 C65.7506677,33.973334 65.9986652,34.0946661 66.284,34.204 C66.5693348,34.3133339 66.911998,34.368 67.312,34.368 C67.9253364,34.368 68.3999983,34.2226681 68.736,33.932 C69.0720017,33.6413319 69.24,33.2240027 69.24,32.68 C69.24,32.3759985 69.1640008,32.128001 69.012,31.936 C68.8599992,31.743999 68.6586679,31.5826673 68.408,31.452 C68.1573321,31.3213327 67.8720016,31.2106671 67.552,31.12 C67.2319984,31.0293329 66.9066683,30.9306672 66.576,30.824 C66.2453317,30.7173328 65.9200016,30.5893341 65.6,30.44 C65.2799984,30.2906659 64.9946679,30.0960012 64.744,29.856 C64.4933321,29.6159988 64.2920008,29.3160018 64.14,28.956 C63.9879992,28.5959982 63.912,28.1520026 63.912,27.624 C63.912,27.2026646 63.9959992,26.792002 64.164,26.392 C64.3320008,25.991998 64.5773317,25.6373349 64.9,25.328 C65.2226683,25.0186651 65.6186643,24.7706676 66.088,24.584 C66.5573357,24.3973324 67.0933303,24.304 67.696,24.304 C68.3786701,24.304 69.0079971,24.4106656 69.584,24.624 C70.1600029,24.8373344 70.6506646,25.1359981 71.056,25.52 L70.528,26.536 Z M83.672,36 L81.504,36 L81.504,30.944 L76.08,30.944 L76.08,36 L73.912,36 L73.912,24.432 L76.08,24.432 L76.08,29.408 L81.504,29.408 L81.504,24.432 L83.672,24.432 L83.672,36 Z M97.176,36 L95.512,36 C95.3253324,36 95.1720006,35.9533338 95.052,35.86 C94.9319994,35.7666662 94.8453336,35.6506674 94.792,35.512 L93.928,33.152 L89.136,33.152 L88.272,35.512 C88.2293331,35.6346673 88.145334,35.7466662 88.02,35.848 C87.894666,35.9493338 87.7413342,36 87.56,36 L85.888,36 L90.432,24.432 L92.632,24.432 L97.176,36 Z M89.688,31.632 L93.376,31.632 L91.968,27.784 C91.9039997,27.6133325 91.8333337,27.4120012 91.756,27.18 C91.6786663,26.9479988 91.602667,26.6960014 91.528,26.424 C91.453333,26.6960014 91.3800004,26.9493322 91.308,27.184 C91.2359996,27.4186678 91.1653337,27.6239991 91.096,27.8 L89.688,31.632 Z M101.592,31.48 L101.592,36 L99.44,36 L99.44,24.432 L102.968,24.432 C103.757337,24.432 104.433331,24.5133325 104.996,24.676 C105.558669,24.8386675 106.019998,25.0666652 106.38,25.36 C106.740002,25.6533348 107.003999,26.003998 107.172,26.412 C107.340001,26.820002 107.424,27.2693309 107.424,27.76 C107.424,28.1493353 107.366667,28.5173316 107.252,28.864 C107.137333,29.2106684 106.972001,29.5253319 106.756,29.808 C106.539999,30.0906681 106.273335,30.3386656 105.956,30.552 C105.638665,30.7653344 105.277335,30.9359994 104.872,31.064 C105.144001,31.2186674 105.378666,31.4399986 105.576,31.728 L108.472,36 L106.536,36 C106.349332,36 106.190667,35.962667 106.06,35.888 C105.929333,35.813333 105.818667,35.7066674 105.728,35.568 L103.296,31.864 C103.205333,31.7253326 103.105334,31.626667 102.996,31.568 C102.886666,31.509333 102.725334,31.48 102.512,31.48 L101.592,31.48 Z M101.592,29.936 L102.936,29.936 C103.341335,29.936 103.694665,29.8853338 103.996,29.784 C104.297335,29.6826662 104.545332,29.5426676 104.74,29.364 C104.934668,29.1853324 105.08,28.9733346 105.176,28.728 C105.272,28.4826654 105.32,28.2133348 105.32,27.92 C105.32,27.3333304 105.126669,26.8826682 104.74,26.568 C104.353331,26.2533318 103.762671,26.096 102.968,26.096 L101.592,26.096 L101.592,29.936 Z M118.144,24.432 L118.144,26.144 L113.016,26.144 L113.016,29.352 L117.056,29.352 L117.056,31.008 L113.016,31.008 L113.016,34.28 L118.144,34.28 L118.144,36 L110.848,36 L110.848,24.432 L118.144,24.432 Z" id="Share" fill="#FFFFFF"></path>
                <path d="M34.8324815,33.1095531 C34.2133676,33.6633131 33.3960025,34 32.5,34 C30.5670034,34 29,32.4329966 29,30.5 C29,28.5670034 30.5670034,27 32.5,27 C33.3960025,27 34.2133676,27.3366869 34.8324815,27.8904469 L42.118582,23.4066928 C42.0412363,23.1175111 42,22.8135712 42,22.5 C42,20.5670034 43.5670034,19 45.5,19 C47.4329966,19 49,20.5670034 49,22.5 C49,24.4329966 47.4329966,26 45.5,26 C44.6039975,26 43.7866324,25.6633131 43.1675185,25.1095531 L35.881418,29.5933072 C35.9587637,29.8824889 36,30.1864288 36,30.5 C36,30.8135712 35.9587637,31.1175111 35.881418,31.4066928 L43.1675185,35.8904469 C43.7866324,35.3366869 44.6039975,35 45.5,35 C47.4329966,35 49,36.5670034 49,38.5 C49,40.4329966 47.4329966,42 45.5,42 C43.5670034,42 42,40.4329966 42,38.5 C42,38.1864288 42.0412363,37.8824889 42.118582,37.5933072 L34.8324815,33.1095531 Z" id="Combined-Shape" fill="#FFFFFF"></path>
            </g>
        </g>
    </g>
</svg>