<?xml version="1.0" encoding="UTF-8"?>
<svg width="135px" height="101px" viewBox="0 0 135 101" version="1.1" xmlns="http://www.w3.org/2000/svg" xmlns:xlink="http://www.w3.org/1999/xlink">
    <!-- Generator: Sketch 52.3 (67297) - http://www.bohemiancoding.com/sketch -->
    <title>approach icon 2</title>
    <desc>Created with Sketch.</desc>
    <defs>
        <linearGradient x1="100%" y1="100%" x2="0%" y2="0%" id="linearGradient-1">
            <stop stop-color="#0AC8FA" offset="0%"></stop>
            <stop stop-color="#0497F4" offset="100%"></stop>
        </linearGradient>
    </defs>
    <g id="Design" stroke="none" stroke-width="1" fill="none" fill-rule="evenodd">
        <g id="Approach-1440" transform="translate(-330.000000, -965.000000)">
            <g id="approach-icon-2" transform="translate(330.000000, 965.710116)">
                <path d="M16.154401,62 L44.3409592,45.7144331 L45.3406405,46.2917538 L18.1532913,62 L72.5408443,62 L45.3406405,46.2917538 L18.1532913,62 L16.154401,62 L44.3409592,45.7144331 L15.3333333,28.962392 L15.3333333,62 L16.154401,62 Z M75.3333333,28.9626424 L46.3402036,45.7142284 L45.3405223,45.1369077 L73.8467087,28.6666667 L16.8208578,28.6666667 L45.3405223,45.1369077 L73.8467087,28.6666667 L75.3333333,28.6666667 L75.3333333,28.9626424 L46.3402036,45.7142284 L74.5404432,62 L75.3333333,62 L75.3333333,28.9626424 Z M2,16 L132.666667,16 L132.666667,4 C132.666667,2.8954305 131.771236,2 130.666667,2 L4,2 C2.8954305,2 2,2.8954305 2,4 L2,16 Z M2,18.6666667 L2,96 C2,97.1045695 2.8954305,98 4,98 L130.666667,98 C131.771236,98 132.666667,97.1045695 132.666667,96 L132.666667,18.6666667 L2,18.6666667 Z M4,0 L130.666667,0 C132.875806,-4.05812251e-16 134.666667,1.790861 134.666667,4 L134.666667,96 C134.666667,98.209139 132.875806,100 130.666667,100 L4,100 C1.790861,100 2.40190499e-12,98.209139 2.40163445e-12,96 L2.40163445e-12,4 C2.40136391e-12,1.790861 1.790861,4.05812251e-16 4,0 Z M13.3333333,26.6666667 L77.3333333,26.6666667 L77.3333333,64 L13.3333333,64 L13.3333333,26.6666667 Z M15.3333333,88.6666667 L34,88.6666667 L34,72.6666667 L15.3333333,72.6666667 L15.3333333,88.6666667 Z M13.3333333,70.6666667 L36,70.6666667 L36,90.6666667 L13.3333333,90.6666667 L13.3333333,70.6666667 Z M99.3333333,88.6666667 L118,88.6666667 L118,72.6666667 L99.3333333,72.6666667 L99.3333333,88.6666667 Z M97.3333333,70.6666667 L120,70.6666667 L120,90.6666667 L97.3333333,90.6666667 L97.3333333,70.6666667 Z M84,26.6666667 L120,26.6666667 L120,30.6666667 L84,30.6666667 L84,26.6666667 Z M84,34.6666667 L120,34.6666667 L120,38.6666667 L84,38.6666667 L84,34.6666667 Z M84,42.6666667 L120,42.6666667 L120,46.6666667 L84,46.6666667 L84,42.6666667 Z M84,50.6666667 L105.333333,50.6666667 L105.333333,54.6666667 L84,54.6666667 L84,50.6666667 Z" id="Combined-Shape" fill="url(#linearGradient-1)" fill-rule="nonzero"></path>
                <rect id="Rectangle-Copy-120" fill="#EF1C3B" x="55.3333333" y="70.6666667" width="22.6666667" height="20"></rect>
                <circle id="Oval" fill="#02BDF3" cx="32" cy="9.33333333" r="2.66666667"></circle>
                <circle id="Oval" fill="#02BDF3" cx="24" cy="9.33333333" r="2.66666667"></circle>
                <circle id="Oval" fill="#EF1C3B" cx="16" cy="9.33333333" r="2.66666667"></circle>
            </g>
        </g>
    </g>
</svg>