<?xml version="1.0" encoding="UTF-8"?>
<svg width="136px" height="116px" viewBox="0 0 136 116" version="1.1" xmlns="http://www.w3.org/2000/svg" xmlns:xlink="http://www.w3.org/1999/xlink">
    <!-- Generator: Sketch 52.3 (67297) - http://www.bohemiancoding.com/sketch -->
    <title>approach icon 3</title>
    <desc>Created with Sketch.</desc>
    <defs>
        <linearGradient x1="1.20662332%" y1="2.14292466%" x2="90.267142%" y2="79.7543246%" id="linearGradient-1">
            <stop stop-color="#0497F4" offset="0%"></stop>
            <stop stop-color="#0BCBF9" offset="100%"></stop>
        </linearGradient>
    </defs>
    <g id="Page-1" stroke="none" stroke-width="1" fill="none" fill-rule="evenodd">
        <g id="Approach-1440" transform="translate(-336.000000, -1288.000000)">
            <g id="approach-icon-3" transform="translate(336.000000, 1288.000000)">
                <g id="Group-68" transform="translate(19.632530, 0.000000)">
                    <g id="Group-19-Copy">
                        <path d="M7.36746988,2 L69.2380056,2 L93.3674699,25.5777027 L93.3674699,108 C93.3674699,111.313708 90.6811784,114 87.3674699,114 L7.36746988,114 C4.05376138,114 1.36746988,111.313708 1.36746988,108 L1.36746988,8 C1.36746988,4.6862915 4.05376138,2 7.36746988,2 Z" id="Rectangle" fill="#FFFFFF" fill-rule="nonzero"></path>
                        <path d="M67.2247343,2.32076087 L7.71890556,2.32076087 C4.60048773,2.32076087 2.07262048,4.8484084 2.07262048,7.96649064 L2.07262048,108.363944 C2.07262048,111.482026 4.60048773,114.009674 7.71890556,114.009674 L87.3750703,114.009674 C90.4934882,114.009674 93.0213554,111.482026 93.0213554,108.363944 L93.0213554,28.1419424 L67.2247343,2.32076087 Z M94.5063554,27.5272492 L94.5063554,108.363944 C94.5063554,112.302198 91.3136021,115.494674 87.3750703,115.494674 L7.71890556,115.494674 C3.78037377,115.494674 0.587620482,112.302198 0.587620482,108.363944 L0.587620482,7.96649064 C0.587620482,4.02823665 3.78037377,0.83576087 7.71890556,0.83576087 L67.8402554,0.83576087 L94.5063554,27.5272492 Z" id="Combined-Shape" fill="#0497F4" fill-rule="nonzero"></path>
                        <polygon id="Fill-14" fill="url(#linearGradient-1)" points="33.5168675 47.8391304 74.2744964 47.8391304 74.2744964 43.7086957 33.5168675 43.7086957"></polygon>
                        <polygon id="Fill-16" fill="url(#linearGradient-1)" points="33.5168675 63.7826087 74.2744964 63.7826087 74.2744964 59.6521739 33.5168675 59.6521739"></polygon>
                        <polygon id="Fill-17" fill="url(#linearGradient-1)" points="33.5168675 79.4782609 74.2744964 79.4782609 74.2744964 75.3478261 33.5168675 75.3478261"></polygon>
                        <polygon id="Fill-18" fill="url(#linearGradient-1)" points="33.5168675 95.173913 74.2744964 95.173913 74.2744964 91.0434783 33.5168675 91.0434783"></polygon>
                        <path d="M67.8493976,1.82608696 L67.8493976,20.4688261 C67.8493976,24.1139054 70.8043182,27.0688261 74.4493976,27.0688261 L94.2589975,27.0688261 L67.8493976,1.82608696 Z" id="Path-24" fill="url(#linearGradient-1)" fill-rule="nonzero"></path>
                    </g>
                </g>
                <g id="settings" transform="translate(0.000000, 10.086957)" fill-rule="nonzero">
                    <rect id="Rectangle" fill="url(#linearGradient-1)" x="0" y="0" width="63.4186233" height="57.0648464" rx="4.125"></rect>
                    <g id="operations-icon" transform="translate(9.078313, 8.260870)" fill="#FFFFFF">
                        <path d="M7.61010631,12.2510276 C5.05282272,12.2510276 2.98005316,10.1762846 2.98005316,7.61735173 C2.98005316,5.05841887 5.05282272,2.98367587 7.61010631,2.98367587 C10.1673899,2.98367587 12.2401595,5.05841887 12.2401595,7.61735173 C12.2401595,10.1762846 10.1673899,12.2510276 7.61010631,12.2510276 Z M7.61010631,10.6010276 C9.25576838,10.6010276 10.5901595,9.26536607 10.5901595,7.61735173 C10.5901595,5.9693374 9.25576838,4.63367587 7.61010631,4.63367587 C5.96444424,4.63367587 4.63005316,5.9693374 4.63005316,7.61735173 C4.63005316,9.26536607 5.96444424,10.6010276 7.61010631,10.6010276 Z" id="Oval"></path>
                        <path d="M34.5076365,7.48629866 C34.5076365,6.66719562 33.8445285,6.00385938 33.0273919,6.00385938 C32.2102554,6.00385938 31.5471474,6.66719562 31.5471474,7.48629866 C31.5471474,8.30538042 32.2102696,8.96873794 33.0273919,8.96873794 C33.8445143,8.96873794 34.5076365,8.30538042 34.5076365,7.48629866 Z M36.1576365,7.48629866 C36.1576365,9.21651921 34.7559152,10.6187379 33.0273919,10.6187379 C31.2988687,10.6187379 29.8971474,9.21651921 29.8971474,7.48629866 C29.8971474,5.75605291 31.2988584,4.35385938 33.0273919,4.35385938 C34.7559255,4.35385938 36.1576365,5.75605291 36.1576365,7.48629866 Z" id="Path"></path>
                        <path d="M13.5894756,28.5562138 L13.5894756,30.2062138 L4.24979963,30.2062138 C3.55073493,30.2062138 2.98005316,29.642281 2.98005316,28.9417512 L2.98005316,17.9551862 L4.63005316,17.9551862 L4.63005316,28.5562138 L13.5894756,28.5562138 Z" id="Path"></path>
                        <path d="M14.4144756,28.9111417 L14.4144756,30.3953825 L16.3485147,29.6532621 L14.4144756,28.9111417 Z M18.7207525,30.5102995 L13.9980394,32.3224767 C13.3803702,32.5595563 12.7644756,32.086032 12.7644756,31.4654687 L12.7644756,27.8410555 C12.7644756,27.2204922 13.3803702,26.7469679 13.9979628,26.9840181 L18.7207525,28.7962247 C19.5019962,29.0960069 19.5019962,30.2105174 18.7207525,30.5102995 Z" id="Path"></path>
                        <path d="M33.1881184,35.6471794 C30.1805192,35.6471794 27.7426967,33.2070359 27.7426967,30.1973587 C27.7426967,27.1876815 30.1805192,24.747538 33.1881184,24.747538 C36.1957176,24.747538 38.6335401,27.1876815 38.6335401,30.1973587 C38.6335401,33.2070359 36.1957176,35.6471794 33.1881184,35.6471794 Z M33.1881184,33.9971794 C35.2840961,33.9971794 36.9835401,32.2961173 36.9835401,30.1973587 C36.9835401,28.0986 35.2840961,26.397538 33.1881184,26.397538 C31.0921407,26.397538 29.3926967,28.0986 29.3926967,30.1973587 C29.3926967,32.2961173 31.0921407,33.9971794 33.1881184,33.9971794 Z" id="Oval"></path>
                        <path d="M34.9697895,27.8039891 L36.2986584,28.7820523 L33.7453576,32.2511554 C33.3831664,32.7431301 32.666224,32.7816944 32.2564256,32.3228171 L30.951973,30.8621385 L32.1826549,29.7630835 L32.9201005,30.5888482 L34.9697895,27.8039891 Z" id="Path"></path>
                        <polygon id="Path" points="18.4816868 7.90422407 18.4816868 6.25422407 23.917477 6.25422407 23.917477 7.90422407"></polygon>
                        <path d="M6.98795073,1.19366677 C6.3732008,2.28409156 5.06510001,2.76647944 3.89692796,2.32948906 C3.37878087,2.13566115 2.84256897,2.59152675 2.94383471,3.15808016 C3.16353432,4.38722029 2.47274453,5.59946712 1.30503216,6.02390002 C0.778025527,6.21545451 0.654186325,6.92703339 1.08899975,7.29325256 C2.03969276,8.0939705 2.27898085,9.46889756 1.65743818,10.5480542 C1.37080139,11.0457754 1.72478345,11.6669696 2.27942149,11.6643973 C3.52358675,11.6584851 4.58620227,12.5619054 4.79508793,13.7954985 C4.89052514,14.3590731 5.54161307,14.5991601 5.96434577,14.2363717 C6.91311154,13.4221898 8.30712439,13.4221898 9.25588276,14.2363871 C9.67860116,14.5991632 10.329724,14.359068 10.4251399,13.795548 C10.6339667,12.5619308 11.6966309,11.6584851 12.9407208,11.6643968 C13.4953993,11.6669694 13.8494076,11.0457172 13.5627819,10.5480706 C12.9412569,9.468901 13.1805381,8.09399215 14.1311945,7.29325188 C14.5660262,6.92701736 14.4422028,6.21545367 13.9151829,6.02390164 C12.7474539,5.59946729 12.0566699,4.38721095 12.2763977,3.15805393 C12.3776791,2.59152649 11.8414726,2.13566306 11.3233407,2.3294897 C10.1551662,2.76647628 8.84703308,2.28409597 8.23223276,1.19364904 C7.95515126,0.702114031 7.26505821,0.702114031 6.98795073,1.19366677 Z M9.66956023,0.383346795 C9.88642986,0.76799984 10.3405547,0.93546053 10.7452311,0.784080624 C12.4692259,0.139155721 14.2253525,1.63215126 13.9006475,3.44842012 C13.8215648,3.89080872 14.0684004,4.32398047 14.478826,4.47315779 C16.2015693,5.0993106 16.597305,7.37344518 15.1941427,8.55525079 C14.8555067,8.8404847 14.7691609,9.33662723 14.9925926,9.72457732 C15.9105965,11.3184381 14.7683988,13.3228913 12.9329742,13.3143786 C12.500553,13.3123238 12.1265953,13.6302516 12.0519897,14.0709746 C11.7432977,15.8940898 9.58238717,16.6909046 8.18132511,15.4885156 C7.85073018,15.2048085 7.36948923,15.2048085 7.03889515,15.4885073 C5.63782689,16.6909016 3.47697841,15.8940941 3.16824788,14.0709825 C3.09361767,13.6302471 2.71967194,13.3123239 2.2871679,13.3143791 C0.451804858,13.3228911 -0.69034981,11.3185527 0.227614834,9.72458278 C0.451065232,9.33661588 0.364721942,8.8404954 0.0260722249,8.55526883 C-1.37710239,7.37345287 -0.981325445,5.09932229 0.74137694,4.47316059 C1.15180641,4.32398021 1.39865197,3.89079814 1.31957697,3.44840202 C0.994936107,1.63212756 2.75103225,0.139165879 4.47503458,0.784078847 C4.87969628,0.935454896 5.33376577,0.768010122 5.55061765,0.383374479 C6.45890645,-1.22779736 8.76134939,-1.22779445 9.66956023,0.383346795 Z" id="Path"></path>
                        <path d="M32.0363078,22.1551585 C31.3948972,23.2935883 30.0300209,23.7971893 28.811091,23.3409566 L27.98551,23.0319181 C27.3896132,22.8088672 26.7735598,23.3329315 26.8897179,23.9832646 L27.046529,24.8611465 C27.2757358,26.1444443 26.5550243,27.4100331 25.3366537,27.8531672 L24.5082482,28.1544668 C23.9028698,28.3746215 23.7608288,29.1912462 24.2598549,29.6117933 L24.9366386,30.1821195 C25.9285738,31.0180315 26.1782697,32.4535101 25.5297722,33.5802999 L25.0862021,34.3509297 C24.7574355,34.9220978 25.1636908,35.6354437 25.8013611,35.6324541 L26.681507,35.6283121 C27.9796036,35.622286 29.0882457,36.5654437 29.3062444,37.8532849 L29.4550494,38.7326114 C29.5646297,39.3799544 30.3133171,39.6562138 30.7993819,39.2388466 L31.4708826,38.6622471 C32.4608802,37.8122239 33.9153566,37.8122239 34.9053763,38.6622661 L35.5768524,39.2388444 C36.0629481,39.6562382 36.811606,39.3800054 36.9211806,38.7326517 L37.0699989,37.8532466 C37.2879911,36.5654437 38.3966332,35.622286 39.6947824,35.6283124 L40.5748612,35.632454 C41.212546,35.6354437 41.6188013,34.9220978 41.2900316,34.3509245 L40.8464437,33.5802636 C40.197967,32.4535101 40.4476629,31.0180315 41.4396009,30.1821171 L42.116369,29.6118041 C42.6154079,29.1912462 42.4733669,28.3746215 41.8679574,28.1544554 L41.0395829,27.8531671 C39.8212125,27.4100331 39.100501,26.1444443 39.3297101,24.8611333 L39.4865173,23.9832734 C39.6026769,23.3329315 38.9866236,22.8088672 38.3907385,23.0319136 L37.5651194,23.3409664 C36.3462158,23.7971893 34.9813396,23.2935883 34.3399329,22.1551654 L33.9034044,21.3803951 C33.5850161,20.8152982 32.7912206,20.8152982 32.4728324,21.3803951 L32.0363078,22.1551585 Z M35.3409348,20.5704531 L35.7774651,21.3452263 C36.0210828,21.7776196 36.5316353,21.9659992 36.9867019,21.7956725 L37.8123064,21.4866252 C39.6144296,20.8120704 41.4501281,22.3736624 41.1108095,24.2734025 L40.9540031,25.151258 C40.8652518,25.6481647 41.1423796,26.1348086 41.6035603,26.3025448 L42.4319034,26.6038217 C44.2327249,27.2587168 44.6464629,29.6373871 43.1796454,30.8735265 L42.5028672,31.443848 C42.1226147,31.7642899 42.0257029,32.3214271 42.2764926,32.757184 L42.7200567,33.5278033 C43.6796546,35.1949182 42.4856766,37.2914308 40.5671109,37.2824358 L39.6870701,37.2782944 C39.2008615,37.2760372 38.7806671,37.6335102 38.6968621,38.1285938 L38.548045,39.0079916 C38.2252706,40.9149049 35.9665724,41.7482982 34.5019454,40.4906731 L33.830489,39.9141116 C33.4587539,39.5949357 32.9174828,39.5949357 32.54577,39.9140926 L31.8742888,40.4906753 C30.409682,41.7482831 28.1509775,40.91484 27.8281865,39.0079605 L27.6793811,38.128632 C27.5955696,37.6335102 27.1753753,37.2760372 26.6892192,37.2782941 L25.8091113,37.2824359 C23.8905602,37.2914308 22.6965822,35.1949182 23.6561771,33.5278085 L24.0997232,32.7572203 C24.3505339,32.3214271 24.253622,31.7642899 23.8733723,31.4438503 L23.1965785,30.8735156 C21.7297739,29.6373871 22.1435119,27.2587168 23.9443022,26.603833 L24.7726763,26.3025449 C25.2338572,26.1348086 25.510985,25.6481647 25.422236,25.1512712 L25.2654257,24.2733937 C24.9261087,22.3736624 26.7618072,20.8120704 28.5639421,21.4866296 L29.3895085,21.7956627 C29.8446014,21.9659992 30.355154,21.7776196 30.5987756,21.3452194 L31.0353019,20.5704531 C31.9847674,18.8852775 34.3914694,18.8852775 35.3409348,20.5704531 Z" id="Path"></path>
                        <path d="M30.2358689,3.11660035 C29.9521121,3.01044713 29.6554907,3.26263239 29.7122557,3.58016794 C29.9054622,4.66109175 29.297844,5.72741686 28.2700638,6.10098241 C27.978218,6.20706245 27.9086882,6.606672 28.1513632,6.81108683 C28.9877331,7.51544268 29.1981026,8.72443167 28.6515344,9.67350267 C28.4908,9.95263806 28.6884414,10.2995186 28.993248,10.2980945 C30.0887254,10.2929092 31.0238228,11.087956 31.207597,12.1731248 C31.2607974,12.4872847 31.6179343,12.6189846 31.8500158,12.4198216 C32.6853463,11.7029702 33.9130166,11.7029702 34.7483453,12.41982 C34.9804286,12.6189846 35.3375655,12.4872847 35.3907671,12.1731176 C35.5745402,11.087956 36.5096375,10.2929092 37.6050643,10.2980943 C37.9099215,10.2995186 38.1075629,9.95263806 37.9468497,9.67353952 C37.4002603,8.72443167 37.6106298,7.51544268 38.4469326,6.8111433 C38.6896747,6.606672 38.6201449,6.20706245 38.328307,6.10098527 C37.3005189,5.72741686 36.6929007,4.66109175 36.8861108,3.58014811 C36.9428722,3.26263239 36.6462508,3.01044713 36.3625121,3.1165936 C35.3338401,3.50144643 34.1819219,3.07664062 33.64108,2.11705808 C33.487845,1.845251 33.1105609,1.84523811 32.9573047,2.11701943 C32.4164101,3.07665203 31.264509,3.50144126 30.2358689,3.11660035 Z M31.5199165,1.30682483 C32.3043844,-0.0846583691 34.2939785,-0.0846583691 35.0784464,1.30682483 C35.2214656,1.56057505 35.51924,1.67038865 35.7843608,1.57120007 C37.2740076,1.01392426 38.7905337,2.30326348 38.5103647,3.87049101 C38.4577813,4.16467709 38.6214641,4.45192835 38.8919607,4.5502453 C40.3795152,5.09094128 40.7209099,7.05304411 39.5098628,8.07315735 C39.2856088,8.26201474 39.2281579,8.59218365 39.3767111,8.85013415 C40.1686492,10.2254338 39.182922,11.9554842 37.5973048,11.9480761 C37.3135774,11.946733 37.0671111,12.1562858 37.0176047,12.4486164 C36.751117,14.0222848 34.8842525,14.7107209 33.6738038,13.6719624 C33.4566282,13.48559 33.1417347,13.48559 32.9245573,13.6719639 C31.7141104,14.7107209 29.8472459,14.0222848 29.5807595,12.4486237 C29.5312518,12.1562858 29.2847855,11.946733 29.0010075,11.9480763 C27.4154409,11.9554842 26.4297137,10.2254338 27.221673,8.8500973 C27.370205,8.59218365 27.3127541,8.26201474 27.0884331,8.07310088 C25.877453,7.05304411 26.2188477,5.09094128 27.70641,4.55024244 C27.9768988,4.45192835 28.1405816,4.16467709 28.0880017,3.87051085 C27.8078293,2.30326348 29.3243553,1.01392426 30.8140201,1.57120682 C31.0791229,1.67038865 31.3768973,1.56057505 31.5199165,1.30682483 Z" id="Path"></path>
                    </g>
                </g>
                <polygon id="Path-26" fill="#EF1C3B" fill-rule="nonzero" points="46.7459913 71.4802493 47.9516415 72.6067072 40.851361 80.2061516 36.5357291 75.5871222 37.7413793 74.4606642 40.851361 77.7892838"></polygon>
                <polygon id="Path-26-Copy" fill="#EF1C3B" fill-rule="nonzero" points="46.7459913 88.0019884 47.9516415 89.1284464 40.851361 96.7278908 36.5357291 92.1088613 37.7413793 90.9824033 40.851361 94.311023"></polygon>
                <g id="pencil" transform="translate(114.204492, 79.413913) rotate(30.000000) translate(-114.204492, -79.413913) translate(108.840034, 43.479130)" fill-rule="nonzero">
                    <rect id="Rectangle" fill="#EF1C3B" x="0" y="8.26086957" width="10.7289157" height="46.2608696"></rect>
                    <path d="M0.825,7.43586957 L9.90391566,7.43586957 L9.90391566,3.3 C9.90391566,1.93309524 8.79582042,0.825 7.42891566,0.825 L3.3,0.825 C1.93309524,0.825 0.825,1.93309524 0.825,3.3 L0.825,7.43586957 Z" id="Rectangle-Copy-57" stroke="#EF1C3B" stroke-width="1.65"></path>
                    <path d="M1.09799125,55.3467391 L5.48462507,70.4854249 L9.6465009,55.3467391 L1.09799125,55.3467391 Z" id="Path-27" stroke="#EF1C3B" stroke-width="1.65"></path>
                </g>
            </g>
        </g>
    </g>
</svg>