<?xml version="1.0" encoding="UTF-8"?>
<svg width="140px" height="103px" viewBox="0 0 140 103" version="1.1" xmlns="http://www.w3.org/2000/svg" xmlns:xlink="http://www.w3.org/1999/xlink">
    <!-- Generator: Sketch 52.3 (67297) - http://www.bohemiancoding.com/sketch -->
    <title>approach icon 5</title>
    <desc>Created with Sketch.</desc>
    <defs>
        <linearGradient x1="1.20662332%" y1="2.14292466%" x2="90.267142%" y2="79.7543246%" id="linearGradient-1">
            <stop stop-color="#0497F4" offset="0%"></stop>
            <stop stop-color="#0BCBF9" offset="100%"></stop>
        </linearGradient>
    </defs>
    <g id="Page-1" stroke="none" stroke-width="1" fill="none" fill-rule="evenodd">
        <g id="Approach-1440" transform="translate(-538.000000, -1960.000000)">
            <g id="approach-icon-5" transform="translate(538.000000, 1960.000000)">
                <g id="monitor" transform="translate(15.721925, 0.000000)">
                    <rect id="Rectangle" fill="url(#linearGradient-1)" x="0" y="0" width="123.669946" height="86.9345557" rx="6"></rect>
                    <polygon id="Fill-14" fill="#FFFFFF" points="10.4812834 16.540146 65.8823529 16.540146 65.8823529 13.5328467 10.4812834 13.5328467"></polygon>
                    <polygon id="Fill-14-Copy-3" fill="#FFFFFF" points="10.4812834 39.8467153 108.55615 39.8467153 108.55615 36.8394161 10.4812834 36.8394161"></polygon>
                    <polygon id="Fill-16" fill="#FFFFFF" points="10.4812834 24.0583942 54.6524064 24.0583942 54.6524064 21.0510949 10.4812834 21.0510949"></polygon>
                    <polygon id="Fill-16-Copy-7" fill="#FFFFFF" points="10.4812834 47.3649635 88.342246 47.3649635 88.342246 44.3576642 10.4812834 44.3576642"></polygon>
                    <polygon id="Fill-17" fill="#FFFFFF" points="10.4812834 31.5766423 35.1871658 31.5766423 35.1871658 28.5693431 10.4812834 28.5693431"></polygon>
                    <polygon id="Fill-17-Copy-3" fill="#FFFFFF" points="10.4812834 63.1532847 35.1871658 63.1532847 35.1871658 60.1459854 10.4812834 60.1459854"></polygon>
                    <polygon id="Fill-17-Copy-2" fill="#FFFFFF" points="10.4812834 54.8832117 53.9037433 54.8832117 53.9037433 51.8759124 10.4812834 51.8759124"></polygon>
                    <g id="Group-89" transform="translate(31.443850, 85.708029)" fill="url(#linearGradient-1)" fill-rule="nonzero">
                        <path d="M17.9705882,1.5 L17.9705882,13.5364964 L42.671123,13.5364964 L42.671123,1.5 L17.9705882,1.5 Z M16.4705882,0 L44.171123,0 L44.171123,15.0364964 L16.4705882,15.0364964 L16.4705882,0 Z" id="Rectangle-Copy-55"></path>
                        <rect id="Rectangle-Copy-54" x="0" y="12.7810219" width="60.6417112" height="4.51094891" rx="2.25547445"></rect>
                    </g>
                </g>
                <g id="html" transform="translate(0.000000, 34.583942)" fill-rule="nonzero">
                    <path d="M3.75,1.5 C2.50735931,1.5 1.5,2.50735931 1.5,3.75 L1.5,38.3521898 C1.5,39.5948305 2.50735931,40.6021898 3.75,40.6021898 L56.8917112,40.6021898 C58.1343519,40.6021898 59.1417112,39.5948305 59.1417112,38.3521898 L59.1417112,3.75 C59.1417112,2.50735931 58.1343519,1.5 56.8917112,1.5 L3.75,1.5 Z M3.75,0 L56.8917112,8.8817842e-16 C58.962779,5.07729435e-16 60.6417112,1.67893219 60.6417112,3.75 L60.6417112,38.3521898 C60.6417112,40.4232576 58.962779,42.1021898 56.8917112,42.1021898 L3.75,42.1021898 C1.67893219,42.1021898 0,40.4232576 0,38.3521898 L0,3.75 C0,1.67893219 1.67893219,8.24538195e-16 3.75,0 Z" id="Rectangle" fill="url(#linearGradient-1)"></path>
                    <rect id="Rectangle" fill="#FFFFFF" x="1" y="1" width="58.6417112" height="40.1021898" rx="3.75"></rect>
                    <g id="Group-88" transform="translate(8.732620, 8.270073)" fill="#EF1C3B">
                        <path d="M12.5314893,3.23399256 L14.0887301,5.79816907 L2.86348746,12.6153306 L14.1029509,19.6135306 L12.5172684,22.1602169 L1.27780499,15.1620169 C0.878598038,14.9134525 0.543416925,14.57452 0.29931095,14.1725714 C-0.56072938,12.7564158 -0.109908893,10.9111944 1.30624669,10.0511541 L12.5314893,3.23399256 Z" id="Path-25"></path>
                        <path d="M42.076159,3.23399256 L43.6333998,5.79816907 L32.4081572,12.6153306 L43.6476206,19.6135306 L42.0619382,22.1602169 L30.8224747,15.1620169 C30.4232678,14.9134525 30.0880867,14.57452 29.8439807,14.1725714 C28.9839404,12.7564158 29.4347609,10.9111944 30.8509164,10.0511541 L42.076159,3.23399256 Z" id="Path-25-Copy" transform="translate(36.527670, 12.697105) scale(-1, 1) translate(-36.527670, -12.697105) "></path>
                        <polygon id="Line-8" points="24.7697203 -1.32498335 27.6234826 -0.399758787 18.8283524 26.7279379 15.9745901 25.8027134"></polygon>
                    </g>
                </g>
            </g>
        </g>
    </g>
</svg>