<?xml version="1.0" encoding="UTF-8"?>
<svg width="132px" height="118px" viewBox="0 0 132 118" version="1.1" xmlns="http://www.w3.org/2000/svg" xmlns:xlink="http://www.w3.org/1999/xlink">
    <!-- Generator: Sketch 52.3 (67297) - http://www.bohemiancoding.com/sketch -->
    <title>approach icon 7</title>
    <desc>Created with Sketch.</desc>
    <defs>
        <linearGradient x1="1.20662332%" y1="2.14292466%" x2="90.267142%" y2="79.7543246%" id="linearGradient-1">
            <stop stop-color="#0497F4" offset="0%"></stop>
            <stop stop-color="#0BCBF9" offset="100%"></stop>
        </linearGradient>
    </defs>
    <g id="Page-1" stroke="none" stroke-width="1" fill="none" fill-rule="evenodd">
        <g id="Approach-1440" transform="translate(-342.000000, -2607.000000)">
            <g id="approach-icon-7" transform="translate(342.000000, 2607.000000)">
                <path d="M8,2 L69.8705357,2 L94,25.5777027 L94,108 C94,111.313708 91.3137085,114 88,114 L8,114 C4.6862915,114 2,111.313708 2,108 L2,8 C2,4.6862915 4.6862915,2 8,2 Z" id="Rectangle" fill="#FFFFFF" fill-rule="nonzero"></path>
                <path d="M67.8979263,2.3310596 L8.17742514,2.3310596 C5.17632727,2.3310596 2.74485174,4.75459103 2.74485174,7.74264921 L2.74485174,108.350066 C2.74485174,111.338124 5.17632727,113.761656 8.17742514,113.761656 L88.2548669,113.761656 C91.2559648,113.761656 93.6874403,111.338124 93.6874403,108.350066 L93.6874403,28.0630243 L67.8979263,2.3310596 Z M95.6674403,27.2415856 L95.6674403,108.350066 C95.6674403,112.433101 92.3480407,115.741656 88.2548669,115.741656 L8.17742514,115.741656 C4.08425135,115.741656 0.764851742,112.433101 0.764851742,108.350066 L0.764851742,7.74264921 C0.764851742,3.65961409 4.08425135,0.351059603 8.17742514,0.351059603 L68.7167739,0.351059603 L95.6674403,27.2415856 Z" id="Combined-Shape" fill="#0497F4" fill-rule="nonzero"></path>
                <polygon id="Fill-14" fill="url(#linearGradient-1)" points="33.7421875 45.2152318 76.2764591 45.2152318 76.2764591 41.0761589 33.7421875 41.0761589"></polygon>
                <polygon id="Path-26" fill="#EF1C3B" fill-rule="nonzero" points="27.9041961 35.0771305 29.3622991 36.4460483 20.2266966 46.1768371 14.6939339 40.2836137 16.1520368 38.914696 20.2266966 43.2548207"></polygon>
                <polygon id="Path-26-Copy-2" fill="#EF1C3B" fill-rule="nonzero" points="27.9041961 51.0771305 29.3622991 52.4460483 20.2266966 62.1768371 14.6939339 56.2836137 16.1520368 54.914696 20.2266966 59.2548207"></polygon>
                <polygon id="Path-26-Copy-2" fill="#EF1C3B" fill-rule="nonzero" points="27.9041961 68.0771305 29.3622991 69.4460483 20.2266966 79.1768371 14.6939339 73.2836137 16.1520368 71.914696 20.2266966 76.2548207"></polygon>
                <polygon id="Path-26-Copy-2" fill="#EF1C3B" fill-rule="nonzero" points="27.9041961 85.0771305 29.3622991 86.4460483 20.2266966 96.1768371 14.6939339 90.2836137 16.1520368 88.914696 20.2266966 93.2548207"></polygon>
                <polygon id="Fill-16" fill="url(#linearGradient-1)" points="33.7421875 62.192053 76.2764591 62.192053 76.2764591 58.0529801 33.7421875 58.0529801"></polygon>
                <polygon id="Fill-17" fill="url(#linearGradient-1)" points="33.7421875 78.9205298 76.2764591 78.9205298 76.2764591 74.781457 33.7421875 74.781457"></polygon>
                <polygon id="Fill-18" fill="url(#linearGradient-1)" points="33.7421875 95.6490066 76.2764591 95.6490066 76.2764591 91.5099338 33.7421875 91.5099338"></polygon>
                <path d="M68.6259289,1.58940397 L68.6259289,18.0849338 C68.6259289,22.9450396 72.5658231,26.8849338 77.4259289,26.8849338 L95.175201,26.8849338 L68.6259289,1.58940397 Z" id="Path-24" fill="url(#linearGradient-1)" fill-rule="nonzero"></path>
                <path d="M88.769074,98.0414821 C100.718564,98.0414821 110.401217,88.384651 110.401217,76.4776947 C110.401217,64.5707384 100.718564,54.9139073 88.769074,54.9139073 C76.8195837,54.9139073 67.136931,64.5707384 67.136931,76.4776947 C67.136931,88.384651 76.8195837,98.0414821 88.769074,98.0414821 Z M88.769074,102.041482 C74.6128323,102.041482 63.136931,90.5961846 63.136931,76.4776947 C63.136931,62.3592048 74.6128323,50.9139073 88.769074,50.9139073 C102.925316,50.9139073 114.401217,62.3592048 114.401217,76.4776947 C114.401217,90.5961846 102.925316,102.041482 88.769074,102.041482 Z" id="Oval" fill="url(#linearGradient-1)" fill-rule="nonzero"></path>
                <circle id="Oval" fill="#FFFFFF" fill-rule="nonzero" cx="89" cy="76" r="22"></circle>
                <g id="Group-107" transform="translate(74.000000, 68.000000)" fill="#EF1C3B">
                    <circle id="Oval" cx="16" cy="8" r="8"></circle>
                    <path d="M32.2414199,8.06595466 L29.7585801,9.74985089 C26.2239527,4.53817961 21.0602109,1.5 15.5310783,1.5 C9.97047566,1.5 4.77992616,4.57322624 1.24523136,9.83630069 L-1.24523136,8.16369931 C2.82114287,2.10896711 8.91653611,-1.5 15.5310783,-1.5 C22.1086611,-1.5 28.1739423,2.06861647 32.2414199,8.06595466 Z" id="Oval" fill-rule="nonzero"></path>
                </g>
                <rect id="Rectangle" fill="url(#linearGradient-1)" transform="translate(118.495689, 104.495689) rotate(-45.000000) translate(-118.495689, -104.495689) " x="113.495689" y="88.995689" width="10" height="31" rx="4"></rect>
            </g>
        </g>
    </g>
</svg>