<?xml version="1.0" encoding="UTF-8"?>
<svg width="151px" height="120px" viewBox="0 0 151 120" version="1.1" xmlns="http://www.w3.org/2000/svg" xmlns:xlink="http://www.w3.org/1999/xlink">
    <!-- Generator: Sketch 52.3 (67297) - http://www.bohemiancoding.com/sketch -->
    <title>approach icon 4</title>
    <desc>Created with Sketch.</desc>
    <defs>
        <linearGradient x1="1.20662332%" y1="2.14292466%" x2="90.267142%" y2="79.7543246%" id="linearGradient-1">
            <stop stop-color="#0497F4" offset="0%"></stop>
            <stop stop-color="#0BCBF9" offset="100%"></stop>
        </linearGradient>
    </defs>
    <g id="Page-1" stroke="none" stroke-width="1" fill="none" fill-rule="evenodd">
        <g id="Approach-1440" transform="translate(-543.000000, -1608.000000)">
            <g id="Group-13-Copy-4" transform="translate(479.000000, 1543.000000)">
                <g id="approach-icon-4" transform="translate(63.000000, 60.000000)">
                    <g id="staff" transform="translate(0.000000, 27.000000)">
                        <g id="monitor" transform="translate(14.721925, 6.000000)" fill="url(#linearGradient-1)">
                            <rect id="Rectangle" x="0.278074866" y="0" width="112" height="79" rx="6"></rect>
                            <path d="M47.3185763,87.5304136 L66.9321469,87.5304136 L66.9321469,79 L47.3185763,79 L47.3185763,87.5304136 Z M45.3185763,77 L68.9321469,77 L68.9321469,89.5304136 L45.3185763,89.5304136 L45.3185763,77 Z" id="Rectangle-Copy-55" fill-rule="nonzero"></path>
                            <rect id="Rectangle-Copy-54" fill-rule="nonzero" x="31.2780749" y="87.6508516" width="51.6945735" height="3.75912409" rx="1.87956204"></rect>
                        </g>
                        <circle id="Oval" fill="#FFFFFF" cx="51.6704545" cy="41.2017045" r="16.6704545"></circle>
                        <path d="M57.7219251,46 L57.7219251,70 L81.7219251,70 L81.7219251,46 L57.7219251,46 Z M55.7219251,44 L83.7219251,44 L83.7219251,72 L55.7219251,72 L55.7219251,44 Z" id="Rectangle" fill="#FFFFFF" fill-rule="nonzero"></path>
                        <g id="picture" transform="translate(101.721925, 58.000000)" fill-rule="nonzero">
                            <path d="M3.87807487,1.8 C2.88396232,1.8 2.07807487,2.60588745 2.07807487,3.6 L2.07807487,36.1639211 C2.07807487,37.1580337 2.88396232,37.9639211 3.87807487,37.9639211 L46.4876596,37.9639211 C47.4817722,37.9639211 48.2876596,37.1580337 48.2876596,36.1639211 L48.2876596,3.6 C48.2876596,2.60588745 47.4817722,1.8 46.4876596,1.8 L3.87807487,1.8 Z M3.87807487,2.22044605e-15 L46.4876596,2.22044605e-15 C48.4758847,1.85521502e-15 50.0876596,1.6117749 50.0876596,3.6 L50.0876596,36.1639211 C50.0876596,38.1521462 48.4758847,39.7639211 46.4876596,39.7639211 L3.87807487,39.7639211 C1.88984977,39.7639211 0.278074866,38.1521462 0.278074866,36.1639211 L0.278074866,3.6 C0.278074866,1.6117749 1.88984977,3.65231026e-16 3.87807487,2.22044605e-15 Z" id="Rectangle" fill="url(#linearGradient-1)"></path>
                            <rect id="Rectangle" fill="#FFFFFF" x="1.27807487" y="1" width="47.8095847" height="37.7639211" rx="3.6"></rect>
                            <polygon id="Triangle" fill="url(#linearGradient-1)" points="18.0029893 14.558325 31.7523646 35.0910126 4.25361394 35.0910126"></polygon>
                            <polygon id="Triangle-Copy-2" fill="url(#linearGradient-1)" points="32.1958928 20.8074038 41.5099858 35.0910126 22.8817999 35.0910126"></polygon>
                            <ellipse id="Oval" fill="url(#linearGradient-1)" cx="40.1399247" cy="11.8006911" rx="5.32233883" ry="5.3563533"></ellipse>
                        </g>
                        <g id="text" transform="translate(0.721925, 0.000000)">
                            <rect id="Rectangle-Copy-61" fill="#EF1C3B" fill-rule="nonzero" x="0.278074866" y="0" width="45" height="38" rx="3.6"></rect>
                            <path d="M17.7357989,21.3636364 L9.88672996,21.3636364 L9.35329809,22.6770909 C8.56076678,24.5811004 8.16450706,25.8232698 8.16450706,26.4036364 C8.16450706,27.0247304 8.37533755,27.4956348 8.79700485,27.8163636 C9.21867215,28.1370925 9.75971907,28.2974545 10.4201618,28.2974545 L10.4201618,29 L4.27807487,29 L4.27807487,28.2974545 C5.19253407,28.1549084 5.87328794,27.8316389 6.32035688,27.3276364 C6.76742583,26.8236338 7.30593262,25.7621899 7.9358934,24.1432727 C7.98669669,23.9905447 8.23054882,23.4000051 8.66745711,22.3716364 L14.6723759,8 L15.2667714,8 L22.1709039,24.4487273 L23.1158403,26.6174545 C23.3292142,27.1061843 23.6162484,27.4905441 23.9769518,27.7705455 C24.3376551,28.0505469 24.8787021,28.2261815 25.6001088,28.2974545 L25.6001088,29 L17.4767034,29 L17.4767034,28.2974545 C18.4724479,28.2974545 19.1455814,28.2236371 19.4961241,28.076 C19.8466668,27.9283629 20.0219355,27.6356386 20.0219355,27.1978182 C20.0219355,26.9738171 19.7882439,26.3069146 19.3208536,25.1970909 L17.7357989,21.3636364 Z M17.5323122,20.4864865 L13.7787295,11.972973 L10.0407867,20.4864865 L17.5323122,20.4864865 Z M36.1170579,16.1697297 L37.9693582,16.1697297 L35.2217795,24.9122162 C34.8204457,26.1753577 34.6197819,26.9411878 34.6197819,27.2097297 C34.6197819,27.4086496 34.6660889,27.5603238 34.7587044,27.6647568 C34.8513199,27.7691897 34.990241,27.8214054 35.175472,27.8214054 C35.8855239,27.8214054 36.703615,27.0356835 37.6297698,25.4642162 L38.2780749,25.4642162 C37.8767411,26.3593558 37.3030483,27.1724288 36.5569792,27.9034595 C35.8109101,28.6344901 35.1240223,29 34.4962952,29 C34.0126366,29 33.6421803,28.8259477 33.3849151,28.4778378 C33.1276499,28.129728 32.9990192,27.7020566 32.9990192,27.1948108 C32.9990192,26.787025 33.1019237,26.2549222 33.3077359,25.5984865 C32.8446585,26.3643282 32.1732064,27.1226989 31.2933594,27.8736216 C30.4135124,28.6245443 29.5877034,29 28.8159078,29 C28.0955652,29 27.4755654,28.7041111 26.9558896,28.1123243 C26.4362139,27.5205376 26.17638,26.7223834 26.17638,25.7178378 C26.17638,24.3651824 26.5777077,22.9155753 27.3803751,21.368973 C28.1830426,19.8223706 29.2300963,18.5318971 30.5215676,17.4975135 C31.813039,16.46313 32.9166901,15.9459459 33.8325543,15.9459459 C34.3676659,15.9459459 34.7921471,16.070269 35.1060107,16.3189189 C35.4198743,16.5675688 35.6282559,16.9405381 35.731162,17.4378378 L36.1170579,16.1697297 Z M28.4814647,26.4640755 C28.4814647,27.1152645 28.5801825,27.6061155 28.7776212,27.9366433 C28.9750598,28.267171 29.2712134,28.4324324 29.6660907,28.4324324 C30.3176382,28.4324324 31.0999772,27.9539144 32.0131309,26.9968639 C32.9262847,26.0398134 33.7184954,24.5746601 34.3897868,22.6013602 C35.0610783,20.6280602 35.3967189,19.2862363 35.3967189,18.5758483 C35.3967189,18.1614553 35.2905973,17.8087333 35.0783507,17.5176715 C34.8661041,17.2266098 34.5625468,17.0810811 34.1676695,17.0810811 C32.9632937,17.0810811 31.7145129,18.2699765 30.4212898,20.647803 C29.1280666,23.0256294 28.4814647,24.9643676 28.4814647,26.4640755 Z" id="Aa" fill="#FFFFFF"></path>
                        </g>
                    </g>
                    <g id="pencil" transform="translate(105.296095, 48.017718) scale(-1, -1) rotate(40.000000) translate(-105.296095, -48.017718) translate(93.296095, -3.482282)" fill-rule="nonzero">
                        <path d="M11.3727908,34.5861572 L0.495688608,26.5478346 L11.9956886,0.586157222 L23.4956886,27.8295139 L11.3727908,34.5861572 Z" id="Combined-Shape" fill="#FFFFFF"></path>
                        <g id="Group-99" transform="translate(0.333315, 25.564363)">
                            <path d="M0.338571462,-6.36646291e-12 L10.9182932,7.19801711 L10.1317186,76.3180299 L1.84855841,73.4332526 C0.944424102,73.1183696 0.338571462,72.2658253 0.338571462,71.3084277 L0.338571462,-6.36646291e-12 Z" id="Rectangle" fill="url(#linearGradient-1)"></path>
                            <path d="M20.7565165,3.37079682 L11.7610383,8.28262879 L11.7610383,73.6735502 L20.5688598,71.4054628 C20.6793162,71.3770194 20.7565165,71.2774208 20.7565165,71.1633609 L20.7565165,3.37079682 Z M22.7565165,8.18545232e-12 L22.7565165,71.1633609 C22.7565165,72.1898995 22.0617135,73.0862868 21.0676058,73.3422778 L9.76103829,76.2538132 L9.76103829,7.09596575 L22.7565165,8.18545232e-12 Z" id="Rectangle" fill="#02BDF3"></path>
                            <path d="M21.7565165,2 L21.7565165,70.3526707 C21.7565165,71.3521279 21.0972198,72.231787 20.1379233,72.5122599 L10.7610383,75.2538132 L10.7610383,8.81679418 L21.7565165,2 Z" id="Rectangle" fill="#FFFFFF"></path>
                        </g>
                        <polygon id="Path-28" fill="#EF1C3B" points="8.39430503 8.97332837 11.9215084 13.0752662 15.394305 8.97332837 12.4901174 0.0752661877"></polygon>
                    </g>
                </g>
            </g>
        </g>
    </g>
</svg>