<?xml version="1.0" encoding="utf-8"?>
<!-- Generator: Adobe Illustrator 19.2.0, SVG Export Plug-In . SVG Version: 6.00 Build 0)  -->
<svg version="1.1" id="Layer_1" xmlns="http://www.w3.org/2000/svg" xmlns:xlink="http://www.w3.org/1999/xlink" x="0px" y="0px"
	 width="77px" height="1432px" viewBox="0 0 77 1432" style="enable-background:new 0 0 77 1432;" xml:space="preserve">
<style type="text/css">
	.st0{fill:#0497F4;}
	.st1{fill:url(#Rectangle_4_);}
	.st2{enable-background:new    ;}
	.st3{fill:#FFFFFF;}
	.st4{fill:url(#Rectangle_5_);}
	.st5{fill:url(#Rectangle_6_);}
</style>
<title>Group 2</title>
<desc>Created with Sketch.</desc>
<g>
	<path class="st0" d="M71.6,1430.7l-1.2-0.7c-0.5-0.3-0.9-0.5-1.4-0.8c-0.7-0.4-1.6-0.2-2.1,0.5c-0.4,0.7-0.2,1.6,0.5,2.1
		c0.5,0.3,0.9,0.6,1.4,0.8l1.2,0.7c0.2,0.1,0.5,0.2,0.8,0.2c0.5,0,1-0.3,1.3-0.7C72.6,1432.1,72.3,1431.1,71.6,1430.7z"/>
	<path class="st0" d="M59.4,1422.4c-0.8-0.6-1.5-1.2-2.3-1.9c-0.6-0.5-1.6-0.5-2.1,0.2c-0.5,0.6-0.5,1.6,0.2,2.1
		c0.8,0.7,1.6,1.3,2.4,1.9c0.3,0.2,0.6,0.3,0.9,0.3c0.4,0,0.9-0.2,1.2-0.6C60.2,1423.8,60.1,1422.9,59.4,1422.4z"/>
	<path class="st0" d="M46.7,1410.1c-0.5-0.6-1.5-0.7-2.1-0.2c-0.6,0.5-0.7,1.5-0.2,2.1c0.7,0.8,1.3,1.5,2,2.3
		c0.3,0.3,0.7,0.5,1.1,0.5c0.4,0,0.7-0.1,1-0.4c0.6-0.6,0.6-1.5,0.1-2.1C48,1411.6,47.3,1410.8,46.7,1410.1z"/>
	<path class="st0" d="M37.8,1398.3c-0.4-0.7-1.4-0.9-2.1-0.5c-0.7,0.4-0.9,1.4-0.5,2.1c0.5,0.9,1.1,1.7,1.7,2.5
		c0.3,0.4,0.8,0.7,1.2,0.7c0.3,0,0.6-0.1,0.8-0.3c0.7-0.5,0.9-1.4,0.4-2.1C38.9,1399.9,38.4,1399.1,37.8,1398.3z"/>
	<path class="st0" d="M30.9,1385.2c-0.3-0.8-1.2-1.1-2-0.8c-0.8,0.3-1.1,1.2-0.8,2c0.4,0.9,0.8,1.9,1.3,2.8c0.3,0.5,0.8,0.9,1.4,0.9
		c0.2,0,0.4,0,0.6-0.1c0.7-0.4,1.1-1.3,0.7-2C31.7,1387,31.3,1386.1,30.9,1385.2z"/>
	<path class="st0" d="M26,1371.3c-0.2-0.8-1-1.3-1.8-1.1c-0.8,0.2-1.3,1-1.1,1.8c0.3,1,0.5,2,0.8,2.9c0.2,0.6,0.8,1.1,1.4,1.1
		c0.1,0,0.3,0,0.4-0.1c0.8-0.2,1.2-1.1,1-1.9C26.5,1373.2,26.2,1372.3,26,1371.3z"/>
	<path class="st0" d="M23.5,1359.8c-0.1-1-0.3-1.9-0.4-2.9c-0.1-0.8-0.8-1.4-1.7-1.3c-0.8,0.1-1.4,0.8-1.3,1.7c0.1,1,0.2,2,0.4,3
		c0.1,0.7,0.8,1.3,1.5,1.3c0.1,0,0.1,0,0.2,0C23.1,1361.3,23.7,1360.6,23.5,1359.8z"/>
	<path class="st0" d="M22.5,1345v-3c0-0.8-0.7-1.5-1.5-1.5s-1.5,0.7-1.5,1.5v3c0,0.8,0.7,1.5,1.5,1.5S22.5,1345.9,22.5,1345z"/>
	<path class="st0" d="M21,1331.5c0.8,0,1.5-0.7,1.5-1.5v-3c0-0.8-0.7-1.5-1.5-1.5s-1.5,0.7-1.5,1.5v3
		C19.5,1330.9,20.2,1331.5,21,1331.5z"/>
	<path class="st0" d="M21,1316.5c0.8,0,1.5-0.7,1.5-1.5v-3c0-0.8-0.7-1.5-1.5-1.5s-1.5,0.7-1.5,1.5v3
		C19.5,1315.9,20.2,1316.5,21,1316.5z"/>
	<path class="st0" d="M21,1301.5c0.8,0,1.5-0.7,1.5-1.5v-3c0-0.8-0.7-1.5-1.5-1.5s-1.5,0.7-1.5,1.5v3
		C19.5,1300.9,20.2,1301.5,21,1301.5z"/>
	<path class="st0" d="M21,1286.5c0.8,0,1.5-0.7,1.5-1.5v-3c0-0.8-0.7-1.5-1.5-1.5s-1.5,0.7-1.5,1.5v3
		C19.5,1285.9,20.2,1286.5,21,1286.5z"/>
	<path class="st0" d="M21,1271.5c0.8,0,1.5-0.7,1.5-1.5v-3c0-0.8-0.7-1.5-1.5-1.5s-1.5,0.7-1.5,1.5v3
		C19.5,1270.9,20.2,1271.5,21,1271.5z"/>
	<path class="st0" d="M21,1256.5c0.8,0,1.5-0.7,1.5-1.5v-3c0-0.8-0.7-1.5-1.5-1.5s-1.5,0.7-1.5,1.5v3
		C19.5,1255.9,20.2,1256.5,21,1256.5z"/>
	<path class="st0" d="M21,1241.5c0.8,0,1.5-0.7,1.5-1.5v-3c0-0.8-0.7-1.5-1.5-1.5s-1.5,0.7-1.5,1.5v3
		C19.5,1240.9,20.2,1241.5,21,1241.5z"/>
	<path class="st0" d="M21,1226.5c0.8,0,1.5-0.7,1.5-1.5v-3c0-0.8-0.7-1.5-1.5-1.5s-1.5,0.7-1.5,1.5v3
		C19.5,1225.9,20.2,1226.5,21,1226.5z"/>
	<path class="st0" d="M21,1211.5c0.8,0,1.5-0.7,1.5-1.5v-3c0-0.8-0.7-1.5-1.5-1.5s-1.5,0.7-1.5,1.5v3
		C19.5,1210.9,20.2,1211.5,21,1211.5z"/>
	<path class="st0" d="M21,1196.5c0.8,0,1.5-0.7,1.5-1.5v-3c0-0.8-0.7-1.5-1.5-1.5s-1.5,0.7-1.5,1.5v3
		C19.5,1195.9,20.2,1196.5,21,1196.5z"/>
	<path class="st0" d="M21,1181.5c0.8,0,1.5-0.7,1.5-1.5v-3c0-0.8-0.7-1.5-1.5-1.5s-1.5,0.7-1.5,1.5v3
		C19.5,1180.9,20.2,1181.5,21,1181.5z"/>
	<path class="st0" d="M21,1166.5c0.8,0,1.5-0.7,1.5-1.5v-3c0-0.8-0.7-1.5-1.5-1.5s-1.5,0.7-1.5,1.5v3
		C19.5,1165.9,20.2,1166.5,21,1166.5z"/>
	<path class="st0" d="M21,1151.5c0.8,0,1.5-0.7,1.5-1.5v-3c0-0.8-0.7-1.5-1.5-1.5s-1.5,0.7-1.5,1.5v3
		C19.5,1150.9,20.2,1151.5,21,1151.5z"/>
	<path class="st0" d="M21,1136.5c0.8,0,1.5-0.7,1.5-1.5v-3c0-0.8-0.7-1.5-1.5-1.5s-1.5,0.7-1.5,1.5v3
		C19.5,1135.9,20.2,1136.5,21,1136.5z"/>
	<path class="st0" d="M21,1121.5c0.8,0,1.5-0.7,1.5-1.5v-3c0-0.8-0.7-1.5-1.5-1.5s-1.5,0.7-1.5,1.5v3
		C19.5,1120.9,20.2,1121.5,21,1121.5z"/>
	<path class="st0" d="M21,1106.5c0.8,0,1.5-0.7,1.5-1.5v-3c0-0.8-0.7-1.5-1.5-1.5s-1.5,0.7-1.5,1.5v3
		C19.5,1105.9,20.2,1106.5,21,1106.5z"/>
	<path class="st0" d="M21,1091.5c0.8,0,1.5-0.7,1.5-1.5v-3c0-0.8-0.7-1.5-1.5-1.5s-1.5,0.7-1.5,1.5v3
		C19.5,1090.9,20.2,1091.5,21,1091.5z"/>
	<path class="st0" d="M21,1076.5c0.8,0,1.5-0.7,1.5-1.5v-3c0-0.8-0.7-1.5-1.5-1.5s-1.5,0.7-1.5,1.5v3
		C19.5,1075.9,20.2,1076.5,21,1076.5z"/>
	<path class="st0" d="M21,1061.5c0.8,0,1.5-0.7,1.5-1.5v-3c0-0.8-0.7-1.5-1.5-1.5s-1.5,0.7-1.5,1.5v3
		C19.5,1060.9,20.2,1061.5,21,1061.5z"/>
	<path class="st0" d="M21,1046.5c0.8,0,1.5-0.7,1.5-1.5v-3c0-0.8-0.7-1.5-1.5-1.5s-1.5,0.7-1.5,1.5v3
		C19.5,1045.9,20.2,1046.5,21,1046.5z"/>
	<path class="st0" d="M21,1031.5c0.8,0,1.5-0.7,1.5-1.5v-3c0-0.8-0.7-1.5-1.5-1.5s-1.5,0.7-1.5,1.5v3
		C19.5,1030.9,20.2,1031.5,21,1031.5z"/>
	<path class="st0" d="M21,1016.5c0.8,0,1.5-0.7,1.5-1.5v-3c0-0.8-0.7-1.5-1.5-1.5s-1.5,0.7-1.5,1.5v3
		C19.5,1015.9,20.2,1016.5,21,1016.5z"/>
	<path class="st0" d="M21,1001.5c0.8,0,1.5-0.7,1.5-1.5v-3c0-0.8-0.7-1.5-1.5-1.5s-1.5,0.7-1.5,1.5v3
		C19.5,1000.9,20.2,1001.5,21,1001.5z"/>
	<path class="st0" d="M21,986.5c0.8,0,1.5-0.7,1.5-1.5v-3c0-0.8-0.7-1.5-1.5-1.5s-1.5,0.7-1.5,1.5v3C19.5,985.9,20.2,986.5,21,986.5
		z"/>
	<path class="st0" d="M21,971.5c0.8,0,1.5-0.7,1.5-1.5v-3c0-0.8-0.7-1.5-1.5-1.5s-1.5,0.7-1.5,1.5v3C19.5,970.9,20.2,971.5,21,971.5
		z"/>
	<path class="st0" d="M21,956.5c0.8,0,1.5-0.7,1.5-1.5v-3c0-0.8-0.7-1.5-1.5-1.5s-1.5,0.7-1.5,1.5v3C19.5,955.9,20.2,956.5,21,956.5
		z"/>
	<path class="st0" d="M21,941.5c0.8,0,1.5-0.7,1.5-1.5v-3c0-0.8-0.7-1.5-1.5-1.5s-1.5,0.7-1.5,1.5v3C19.5,940.9,20.2,941.5,21,941.5
		z"/>
	<path class="st0" d="M21,926.5c0.8,0,1.5-0.7,1.5-1.5v-3c0-0.8-0.7-1.5-1.5-1.5s-1.5,0.7-1.5,1.5v3C19.5,925.9,20.2,926.5,21,926.5
		z"/>
	<path class="st0" d="M21,911.5c0.8,0,1.5-0.7,1.5-1.5v-3c0-0.8-0.7-1.5-1.5-1.5s-1.5,0.7-1.5,1.5v3C19.5,910.9,20.2,911.5,21,911.5
		z"/>
	<path class="st0" d="M21,896.5c0.8,0,1.5-0.7,1.5-1.5v-3c0-0.8-0.7-1.5-1.5-1.5s-1.5,0.7-1.5,1.5v3C19.5,895.9,20.2,896.5,21,896.5
		z"/>
	<path class="st0" d="M21,881.5c0.8,0,1.5-0.7,1.5-1.5v-3c0-0.8-0.7-1.5-1.5-1.5s-1.5,0.7-1.5,1.5v3C19.5,880.9,20.2,881.5,21,881.5
		z"/>
	<path class="st0" d="M21,866.5c0.8,0,1.5-0.7,1.5-1.5v-3c0-0.8-0.7-1.5-1.5-1.5s-1.5,0.7-1.5,1.5v3C19.5,865.9,20.2,866.5,21,866.5
		z"/>
	<path class="st0" d="M21,851.5c0.8,0,1.5-0.7,1.5-1.5v-3c0-0.8-0.7-1.5-1.5-1.5s-1.5,0.7-1.5,1.5v3C19.5,850.9,20.2,851.5,21,851.5
		z"/>
	<path class="st0" d="M21,836.5c0.8,0,1.5-0.7,1.5-1.5v-3c0-0.8-0.7-1.5-1.5-1.5s-1.5,0.7-1.5,1.5v3C19.5,835.9,20.2,836.5,21,836.5
		z"/>
	<path class="st0" d="M21,821.5c0.8,0,1.5-0.7,1.5-1.5v-3c0-0.8-0.7-1.5-1.5-1.5s-1.5,0.7-1.5,1.5v3C19.5,820.9,20.2,821.5,21,821.5
		z"/>
	<path class="st0" d="M21,806.5c0.8,0,1.5-0.7,1.5-1.5v-3c0-0.8-0.7-1.5-1.5-1.5s-1.5,0.7-1.5,1.5v3C19.5,805.9,20.2,806.5,21,806.5
		z"/>
	<path class="st0" d="M21,791.5c0.8,0,1.5-0.7,1.5-1.5v-3c0-0.8-0.7-1.5-1.5-1.5s-1.5,0.7-1.5,1.5v3C19.5,790.9,20.2,791.5,21,791.5
		z"/>
	<path class="st0" d="M21,776.5c0.8,0,1.5-0.7,1.5-1.5v-3c0-0.8-0.7-1.5-1.5-1.5s-1.5,0.7-1.5,1.5v3C19.5,775.9,20.2,776.5,21,776.5
		z"/>
	<path class="st0" d="M21,761.5c0.8,0,1.5-0.7,1.5-1.5v-3c0-0.8-0.7-1.5-1.5-1.5s-1.5,0.7-1.5,1.5v3C19.5,760.9,20.2,761.5,21,761.5
		z"/>
	<path class="st0" d="M21,746.5c0.8,0,1.5-0.7,1.5-1.5v-3c0-0.8-0.7-1.5-1.5-1.5s-1.5,0.7-1.5,1.5v3C19.5,745.9,20.2,746.5,21,746.5
		z"/>
	<path class="st0" d="M21,731.5c0.8,0,1.5-0.7,1.5-1.5v-3c0-0.8-0.7-1.5-1.5-1.5s-1.5,0.7-1.5,1.5v3C19.5,730.9,20.2,731.5,21,731.5
		z"/>
	<path class="st0" d="M21,716.5c0.8,0,1.5-0.7,1.5-1.5v-3c0-0.8-0.7-1.5-1.5-1.5s-1.5,0.7-1.5,1.5v3C19.5,715.9,20.2,716.5,21,716.5
		z"/>
	<path class="st0" d="M21,701.5c0.8,0,1.5-0.7,1.5-1.5v-3c0-0.8-0.7-1.5-1.5-1.5s-1.5,0.7-1.5,1.5v3C19.5,700.9,20.2,701.5,21,701.5
		z"/>
	<path class="st0" d="M21,686.5c0.8,0,1.5-0.7,1.5-1.5v-3c0-0.8-0.7-1.5-1.5-1.5s-1.5,0.7-1.5,1.5v3C19.5,685.9,20.2,686.5,21,686.5
		z"/>
	<path class="st0" d="M21,671.5c0.8,0,1.5-0.7,1.5-1.5v-3c0-0.8-0.7-1.5-1.5-1.5s-1.5,0.7-1.5,1.5v3C19.5,670.9,20.2,671.5,21,671.5
		z"/>
	<path class="st0" d="M21,656.5c0.8,0,1.5-0.7,1.5-1.5v-3c0-0.8-0.7-1.5-1.5-1.5s-1.5,0.7-1.5,1.5v3C19.5,655.9,20.2,656.5,21,656.5
		z"/>
	<path class="st0" d="M21,641.5c0.8,0,1.5-0.7,1.5-1.5v-3c0-0.8-0.7-1.5-1.5-1.5s-1.5,0.7-1.5,1.5v3C19.5,640.9,20.2,641.5,21,641.5
		z"/>
	<path class="st0" d="M21,626.5c0.8,0,1.5-0.7,1.5-1.5v-3c0-0.8-0.7-1.5-1.5-1.5s-1.5,0.7-1.5,1.5v3C19.5,625.9,20.2,626.5,21,626.5
		z"/>
	<path class="st0" d="M21,611.5c0.8,0,1.5-0.7,1.5-1.5v-3c0-0.8-0.7-1.5-1.5-1.5s-1.5,0.7-1.5,1.5v3C19.5,610.9,20.2,611.5,21,611.5
		z"/>
	<path class="st0" d="M21,596.5c0.8,0,1.5-0.7,1.5-1.5v-3c0-0.8-0.7-1.5-1.5-1.5s-1.5,0.7-1.5,1.5v3C19.5,595.9,20.2,596.5,21,596.5
		z"/>
	<path class="st0" d="M21,581.5c0.8,0,1.5-0.7,1.5-1.5v-3c0-0.8-0.7-1.5-1.5-1.5s-1.5,0.7-1.5,1.5v3C19.5,580.9,20.2,581.5,21,581.5
		z"/>
	<path class="st0" d="M21,566.5c0.8,0,1.5-0.7,1.5-1.5v-3c0-0.8-0.7-1.5-1.5-1.5s-1.5,0.7-1.5,1.5v3C19.5,565.9,20.2,566.5,21,566.5
		z"/>
	<path class="st0" d="M21,551.5c0.8,0,1.5-0.7,1.5-1.5v-3c0-0.8-0.7-1.5-1.5-1.5s-1.5,0.7-1.5,1.5v3C19.5,550.9,20.2,551.5,21,551.5
		z"/>
	<path class="st0" d="M21,536.5c0.8,0,1.5-0.7,1.5-1.5v-3c0-0.8-0.7-1.5-1.5-1.5s-1.5,0.7-1.5,1.5v3C19.5,535.9,20.2,536.5,21,536.5
		z"/>
	<path class="st0" d="M21,521.5c0.8,0,1.5-0.7,1.5-1.5v-3c0-0.8-0.7-1.5-1.5-1.5s-1.5,0.7-1.5,1.5v3C19.5,520.9,20.2,521.5,21,521.5
		z"/>
	<path class="st0" d="M21,506.5c0.8,0,1.5-0.7,1.5-1.5v-3c0-0.8-0.7-1.5-1.5-1.5s-1.5,0.7-1.5,1.5v3C19.5,505.9,20.2,506.5,21,506.5
		z"/>
	<path class="st0" d="M21,491.5c0.8,0,1.5-0.7,1.5-1.5v-3c0-0.8-0.7-1.5-1.5-1.5s-1.5,0.7-1.5,1.5v3C19.5,490.9,20.2,491.5,21,491.5
		z"/>
	<path class="st0" d="M21,476.5c0.8,0,1.5-0.7,1.5-1.5v-3c0-0.8-0.7-1.5-1.5-1.5s-1.5,0.7-1.5,1.5v3C19.5,475.9,20.2,476.5,21,476.5
		z"/>
	<path class="st0" d="M21,461.5c0.8,0,1.5-0.7,1.5-1.5v-3c0-0.8-0.7-1.5-1.5-1.5s-1.5,0.7-1.5,1.5v3C19.5,460.9,20.2,461.5,21,461.5
		z"/>
	<path class="st0" d="M21,446.5c0.8,0,1.5-0.7,1.5-1.5v-3c0-0.8-0.7-1.5-1.5-1.5s-1.5,0.7-1.5,1.5v3C19.5,445.9,20.2,446.5,21,446.5
		z"/>
	<path class="st0" d="M21,431.5c0.8,0,1.5-0.7,1.5-1.5v-3c0-0.8-0.7-1.5-1.5-1.5s-1.5,0.7-1.5,1.5v3C19.5,430.9,20.2,431.5,21,431.5
		z"/>
	<path class="st0" d="M21,416.5c0.8,0,1.5-0.7,1.5-1.5v-3c0-0.8-0.7-1.5-1.5-1.5s-1.5,0.7-1.5,1.5v3C19.5,415.9,20.2,416.5,21,416.5
		z"/>
	<path class="st0" d="M21,401.5c0.8,0,1.5-0.7,1.5-1.5v-3c0-0.8-0.7-1.5-1.5-1.5s-1.5,0.7-1.5,1.5v3C19.5,400.9,20.2,401.5,21,401.5
		z"/>
	<path class="st0" d="M21,386.5c0.8,0,1.5-0.7,1.5-1.5v-3c0-0.8-0.7-1.5-1.5-1.5s-1.5,0.7-1.5,1.5v3C19.5,385.9,20.2,386.5,21,386.5
		z"/>
	<path class="st0" d="M21,371.5c0.8,0,1.5-0.7,1.5-1.5v-3c0-0.8-0.7-1.5-1.5-1.5s-1.5,0.7-1.5,1.5v3C19.5,370.9,20.2,371.5,21,371.5
		z"/>
	<path class="st0" d="M21,356.5c0.8,0,1.5-0.7,1.5-1.5v-3c0-0.8-0.7-1.5-1.5-1.5s-1.5,0.7-1.5,1.5v3C19.5,355.9,20.2,356.5,21,356.5
		z"/>
	<path class="st0" d="M21,341.5c0.8,0,1.5-0.7,1.5-1.5v-3c0-0.8-0.7-1.5-1.5-1.5s-1.5,0.7-1.5,1.5v3C19.5,340.9,20.2,341.5,21,341.5
		z"/>
	<path class="st0" d="M21,326.5c0.8,0,1.5-0.7,1.5-1.5v-3c0-0.8-0.7-1.5-1.5-1.5s-1.5,0.7-1.5,1.5v3C19.5,325.9,20.2,326.5,21,326.5
		z"/>
	<path class="st0" d="M21,311.5c0.8,0,1.5-0.7,1.5-1.5v-3c0-0.8-0.7-1.5-1.5-1.5s-1.5,0.7-1.5,1.5v3C19.5,310.9,20.2,311.5,21,311.5
		z"/>
	<path class="st0" d="M21,296.5c0.8,0,1.5-0.7,1.5-1.5v-3c0-0.8-0.7-1.5-1.5-1.5s-1.5,0.7-1.5,1.5v3C19.5,295.9,20.2,296.5,21,296.5
		z"/>
	<path class="st0" d="M21,281.5c0.8,0,1.5-0.7,1.5-1.5v-3c0-0.8-0.7-1.5-1.5-1.5s-1.5,0.7-1.5,1.5v3C19.5,280.9,20.2,281.5,21,281.5
		z"/>
	<path class="st0" d="M21,266.5c0.8,0,1.5-0.7,1.5-1.5v-3c0-0.8-0.7-1.5-1.5-1.5s-1.5,0.7-1.5,1.5v3C19.5,265.9,20.2,266.5,21,266.5
		z"/>
	<path class="st0" d="M21,251.5c0.8,0,1.5-0.7,1.5-1.5v-3c0-0.8-0.7-1.5-1.5-1.5s-1.5,0.7-1.5,1.5v3C19.5,250.9,20.2,251.5,21,251.5
		z"/>
	<path class="st0" d="M21,236.5c0.8,0,1.5-0.7,1.5-1.5v-3c0-0.8-0.7-1.5-1.5-1.5s-1.5,0.7-1.5,1.5v3C19.5,235.9,20.2,236.5,21,236.5
		z"/>
	<path class="st0" d="M21,221.5c0.8,0,1.5-0.7,1.5-1.5v-3c0-0.8-0.7-1.5-1.5-1.5s-1.5,0.7-1.5,1.5v3C19.5,220.9,20.2,221.5,21,221.5
		z"/>
	<path class="st0" d="M21,206.5c0.8,0,1.5-0.7,1.5-1.5v-3c0-0.8-0.7-1.5-1.5-1.5s-1.5,0.7-1.5,1.5v3C19.5,205.9,20.2,206.5,21,206.5
		z"/>
	<path class="st0" d="M21,191.5c0.8,0,1.5-0.7,1.5-1.5v-3c0-0.8-0.7-1.5-1.5-1.5s-1.5,0.7-1.5,1.5v3C19.5,190.9,20.2,191.5,21,191.5
		z"/>
	<path class="st0" d="M21,176.5c0.8,0,1.5-0.7,1.5-1.5v-3c0-0.8-0.7-1.5-1.5-1.5s-1.5,0.7-1.5,1.5v3C19.5,175.9,20.2,176.5,21,176.5
		z"/>
	<path class="st0" d="M21,161.5c0.8,0,1.5-0.7,1.5-1.5v-3c0-0.8-0.7-1.5-1.5-1.5s-1.5,0.7-1.5,1.5v3C19.5,160.9,20.2,161.5,21,161.5
		z"/>
	<path class="st0" d="M21,146.5c0.8,0,1.5-0.7,1.5-1.5v-3c0-0.8-0.7-1.5-1.5-1.5s-1.5,0.7-1.5,1.5v3C19.5,145.9,20.2,146.5,21,146.5
		z"/>
	<path class="st0" d="M21,131.5c0.8,0,1.5-0.7,1.5-1.5v-3c0-0.8-0.7-1.5-1.5-1.5s-1.5,0.7-1.5,1.5v3C19.5,130.9,20.2,131.5,21,131.5
		z"/>
	<path class="st0" d="M21,116.5c0.8,0,1.5-0.7,1.5-1.5v-3c0-0.8-0.7-1.5-1.5-1.5s-1.5,0.7-1.5,1.5v3C19.5,115.9,20.2,116.5,21,116.5
		z"/>
	<path class="st0" d="M21,101.5c0.8,0,1.5-0.7,1.5-1.5v-3c0-0.8-0.7-1.5-1.5-1.5s-1.5,0.7-1.5,1.5v3C19.5,100.9,20.2,101.5,21,101.5
		z"/>
	<path class="st0" d="M21,86.5c0.8,0,1.5-0.7,1.5-1.5v-3c0-0.8-0.7-1.5-1.5-1.5s-1.5,0.7-1.5,1.5v3C19.5,85.9,20.2,86.5,21,86.5z"/>
	<path class="st0" d="M21,71.5c0.8,0,1.5-0.7,1.5-1.5v-3c0-0.8-0.7-1.5-1.5-1.5s-1.5,0.7-1.5,1.5v3C19.5,70.9,20.2,71.5,21,71.5z"/>
	<path class="st0" d="M21,56.5c0.8,0,1.5-0.7,1.5-1.5v-3c0-0.8-0.7-1.5-1.5-1.5s-1.5,0.7-1.5,1.5v3C19.5,55.9,20.2,56.5,21,56.5z"/>
	<path class="st0" d="M21.7,41.6c0.1,0,0.2,0,0.3,0c0.7,0,1.3-0.5,1.5-1.2c0.2-0.9,0.5-1.9,0.7-2.8c0.2-0.8-0.2-1.6-1-1.9
		c-0.8-0.2-1.6,0.2-1.9,1c-0.3,1-0.6,2-0.8,3C20.4,40.6,20.9,41.4,21.7,41.6z"/>
	<path class="st0" d="M29.2,27.2c0.5-0.8,1.1-1.6,1.7-2.3c0.5-0.7,0.4-1.6-0.3-2.1c-0.7-0.5-1.6-0.4-2.1,0.3
		c-0.6,0.8-1.2,1.7-1.8,2.5c-0.5,0.7-0.3,1.6,0.4,2.1c0.3,0.2,0.5,0.3,0.8,0.3C28.4,27.9,28.9,27.7,29.2,27.2z"/>
	<path class="st0" d="M40,12.7c-0.9,0.5-1.7,1.1-2.6,1.7c-0.7,0.5-0.8,1.4-0.3,2.1c0.3,0.4,0.8,0.6,1.2,0.6c0.3,0,0.6-0.1,0.9-0.3
		c0.8-0.6,1.6-1.1,2.4-1.6c0.7-0.4,0.9-1.4,0.5-2.1C41.6,12.5,40.7,12.3,40,12.7z"/>
	<path class="st0" d="M56.2,8.4C56,7.5,55.2,7,54.4,7.2c-1,0.2-2,0.4-3,0.7c-0.8,0.2-1.3,1-1.1,1.8c0.2,0.7,0.8,1.1,1.4,1.1
		c0.1,0,0.3,0,0.4-0.1c0.9-0.2,1.9-0.5,2.8-0.6C55.8,10,56.3,9.2,56.2,8.4z"/>
</g>
<path id="Path-22_2_" class="st0" d="M52,1l24.4,7.8L52,16.7C52.2,16.9,52,1,52,1z"/>
<linearGradient id="Rectangle_4_" gradientUnits="userSpaceOnUse" x1="-263.0144" y1="1105.5911" x2="-262.1237" y2="1104.8149" gradientTransform="matrix(4.898587e-15 -80 -42 -2.571758e-15 46437 -20267)">
	<stop  offset="0" style="stop-color:#0497F4"/>
	<stop  offset="1" style="stop-color:#0BCBF9"/>
</linearGradient>
<path id="Rectangle_1_" class="st1" d="M0,755v-44c0-9.9,8.1-18,18-18h6c9.9,0,18,8.1,18,18v44c0,9.9-8.1,18-18,18h-6
	C8.1,773,0,764.9,0,755z"/>
<g class="st2">
	<path class="st3" d="M18,756.1c0.1,0.1,0.2,0.1,0.2,0.2c0,0.1,0.1,0.2,0.1,0.3c0,0.1,0,0.2-0.1,0.4c-0.1,0.1-0.2,0.3-0.3,0.5
		c-0.1,0.2-0.2,0.4-0.3,0.6c-0.1,0.2-0.1,0.5-0.1,0.9c0,0.3,0,0.6,0.1,0.8c0.1,0.2,0.2,0.4,0.3,0.6c0.1,0.2,0.3,0.3,0.5,0.3
		s0.4,0.1,0.6,0.1c0.3,0,0.5-0.1,0.7-0.2c0.2-0.2,0.3-0.4,0.5-0.6c0.1-0.3,0.2-0.5,0.3-0.9s0.2-0.6,0.3-1c0.1-0.3,0.2-0.7,0.4-1
		c0.2-0.3,0.3-0.6,0.6-0.9c0.2-0.3,0.5-0.5,0.9-0.6s0.7-0.2,1.2-0.2c0.5,0,1,0.1,1.5,0.3s0.9,0.4,1.2,0.8c0.3,0.3,0.6,0.8,0.8,1.3
		s0.3,1.1,0.3,1.7c0,0.4,0,0.7-0.1,1.1c-0.1,0.4-0.2,0.7-0.3,1c-0.1,0.3-0.3,0.6-0.5,0.9c-0.2,0.3-0.4,0.5-0.6,0.8l-1-0.6
		c-0.1-0.1-0.1-0.1-0.2-0.2s-0.1-0.2-0.1-0.3c0-0.1,0.1-0.3,0.2-0.4c0.1-0.2,0.2-0.3,0.4-0.5c0.1-0.2,0.3-0.5,0.4-0.7s0.2-0.6,0.2-1
		c0-0.6-0.1-1.1-0.4-1.4c-0.3-0.3-0.7-0.5-1.3-0.5c-0.3,0-0.6,0.1-0.7,0.2c-0.2,0.2-0.4,0.4-0.5,0.6c-0.1,0.3-0.2,0.5-0.3,0.9
		c-0.1,0.3-0.2,0.6-0.3,1s-0.2,0.7-0.4,1c-0.1,0.3-0.3,0.6-0.6,0.9c-0.2,0.3-0.5,0.5-0.9,0.6c-0.4,0.2-0.8,0.2-1.3,0.2
		c-0.4,0-0.8-0.1-1.2-0.3c-0.4-0.2-0.8-0.4-1.1-0.7s-0.6-0.7-0.7-1.2c-0.2-0.5-0.3-1-0.3-1.6c0-0.7,0.1-1.3,0.3-1.9s0.5-1.1,0.9-1.5
		L18,756.1z"/>
	<path class="st3" d="M24.8,744.9c0-0.1,0-0.2,0.1-0.3l0.9-0.8c0.6,0.5,1,1,1.3,1.7s0.5,1.5,0.5,2.5c0,0.9-0.1,1.6-0.4,2.3
		c-0.3,0.7-0.7,1.3-1.2,1.8s-1.1,0.9-1.9,1.1c-0.7,0.3-1.5,0.4-2.4,0.4c-0.9,0-1.7-0.1-2.4-0.4c-0.7-0.3-1.3-0.7-1.9-1.2
		c-0.5-0.5-0.9-1.1-1.2-1.9c-0.3-0.7-0.4-1.5-0.4-2.4c0-0.9,0.1-1.6,0.4-2.3c0.3-0.6,0.6-1.2,1.1-1.7l1,0.7c0.1,0,0.1,0.1,0.2,0.2
		c0,0.1,0.1,0.2,0.1,0.3c0,0.1,0,0.2-0.1,0.4c-0.1,0.1-0.2,0.3-0.3,0.5c-0.1,0.2-0.2,0.4-0.3,0.7c-0.1,0.3-0.1,0.7-0.1,1.1
		c0,0.5,0.1,1,0.3,1.5s0.5,0.8,0.8,1.2c0.4,0.3,0.8,0.6,1.3,0.8s1.1,0.3,1.7,0.3c0.7,0,1.2-0.1,1.7-0.3s0.9-0.4,1.3-0.7
		s0.6-0.7,0.8-1.1c0.2-0.4,0.3-0.9,0.3-1.4c0-0.3,0-0.6,0-0.8s-0.1-0.5-0.2-0.7c-0.1-0.2-0.2-0.4-0.3-0.6c-0.1-0.2-0.2-0.4-0.4-0.5
		c0-0.1-0.1-0.1-0.1-0.2C24.8,745,24.8,745,24.8,744.9z"/>
	<path class="st3" d="M23,739h4.5v2.2H15.9v-3.5c0-0.8,0.1-1.5,0.2-2c0.2-0.6,0.4-1,0.7-1.4c0.3-0.4,0.6-0.6,1.1-0.8
		s0.9-0.3,1.3-0.3c0.4,0,0.8,0.1,1.1,0.2c0.3,0.1,0.7,0.3,0.9,0.5c0.3,0.2,0.5,0.5,0.7,0.8c0.2,0.3,0.4,0.7,0.5,1.1
		c0.2-0.3,0.4-0.5,0.7-0.7l4.3-2.9v1.9c0,0.2,0,0.3-0.1,0.5c-0.1,0.1-0.2,0.2-0.3,0.3l-3.7,2.4c-0.1,0.1-0.2,0.2-0.3,0.3
		s-0.1,0.3-0.1,0.5V739z M21.4,739v-1.3c0-0.4,0-0.8-0.2-1.1c-0.1-0.3-0.2-0.5-0.4-0.7c-0.2-0.2-0.4-0.3-0.6-0.4
		c-0.2-0.1-0.5-0.1-0.8-0.1c-0.6,0-1,0.2-1.4,0.6c-0.3,0.4-0.5,1-0.5,1.8v1.4H21.4z"/>
	<path class="st3" d="M25.8,725.7c0-0.4-0.1-0.8-0.2-1.1s-0.3-0.6-0.6-0.8c-0.2-0.2-0.6-0.4-0.9-0.5c-0.4-0.1-0.8-0.2-1.2-0.2h-6.9
		v-2.2h6.9c0.7,0,1.3,0.1,1.9,0.3c0.6,0.2,1.1,0.5,1.5,1s0.8,0.9,1,1.5c0.2,0.6,0.4,1.3,0.4,2c0,0.7-0.1,1.4-0.4,2
		c-0.2,0.6-0.6,1.1-1,1.5c-0.4,0.4-0.9,0.7-1.5,1s-1.2,0.3-1.9,0.3h-6.9v-2.2h6.9c0.4,0,0.8-0.1,1.2-0.2s0.7-0.3,0.9-0.5
		c0.3-0.2,0.4-0.5,0.6-0.8S25.8,726.1,25.8,725.7z"/>
</g>
<g class="st2">
	<path class="st3" d="M23.2,711.7c0.2-0.1,0.4-0.2,0.6-0.2c-0.2-0.1-0.4-0.2-0.6-0.2c-0.2-0.1-0.4-0.2-0.5-0.3l-6.4-3.4
		c-0.1,0-0.1-0.1-0.2-0.1s-0.1-0.1-0.1-0.2c0-0.1,0-0.1,0-0.2c0-0.1,0-0.2,0-0.2v-1.6h11.6v1.9H20c-0.1,0-0.3,0-0.5,0
		c-0.2,0-0.3,0-0.5,0l6.6,3.5c0.1,0.1,0.3,0.2,0.3,0.3c0.1,0.1,0.1,0.3,0.1,0.4v0.3c0,0.2,0,0.3-0.1,0.4c-0.1,0.1-0.2,0.2-0.3,0.3
		l-6.6,3.5c0.2,0,0.3,0,0.5,0c0.2,0,0.3,0,0.5,0h7.5v1.9H15.9v-1.6c0-0.1,0-0.2,0-0.2c0-0.1,0-0.1,0-0.2c0-0.1,0.1-0.1,0.1-0.2
		c0,0,0.1-0.1,0.2-0.1l6.4-3.5C22.9,711.8,23,711.8,23.2,711.7z"/>
</g>
<linearGradient id="Rectangle_5_" gradientUnits="userSpaceOnUse" x1="-263.0144" y1="1105.5911" x2="-262.1237" y2="1104.8149" gradientTransform="matrix(4.898587e-15 -80 -42 -2.571758e-15 46437 -20603)">
	<stop  offset="0" style="stop-color:#0497F4"/>
	<stop  offset="1" style="stop-color:#0BCBF9"/>
</linearGradient>
<path id="Rectangle_2_" class="st4" d="M0,419v-44c0-9.9,8.1-18,18-18h6c9.9,0,18,8.1,18,18v44c0,9.9-8.1,18-18,18h-6
	C8.1,437,0,428.9,0,419z"/>
<linearGradient id="Rectangle_6_" gradientUnits="userSpaceOnUse" x1="-263.0144" y1="1105.5911" x2="-262.1237" y2="1104.8149" gradientTransform="matrix(4.898587e-15 -80 -42 -2.571758e-15 46437 -19884)">
	<stop  offset="0" style="stop-color:#0497F4"/>
	<stop  offset="1" style="stop-color:#0BCBF9"/>
</linearGradient>
<path id="Rectangle_3_" class="st5" d="M0,1138v-44c0-9.9,8.1-18,18-18h6c9.9,0,18,8.1,18,18v44c0,9.9-8.1,18-18,18h-6
	C8.1,1156,0,1147.9,0,1138z"/>
<g class="st2">
	<path class="st3" d="M18,1139.1c0.1,0.1,0.2,0.1,0.2,0.2c0,0.1,0.1,0.2,0.1,0.3c0,0.1,0,0.2-0.1,0.4c-0.1,0.1-0.2,0.3-0.3,0.5
		c-0.1,0.2-0.2,0.4-0.3,0.6c-0.1,0.2-0.1,0.5-0.1,0.9c0,0.3,0,0.6,0.1,0.8c0.1,0.2,0.2,0.4,0.3,0.6c0.1,0.2,0.3,0.3,0.5,0.3
		s0.4,0.1,0.6,0.1c0.3,0,0.5-0.1,0.7-0.2c0.2-0.2,0.3-0.4,0.5-0.6c0.1-0.3,0.2-0.5,0.3-0.9s0.2-0.6,0.3-1c0.1-0.3,0.2-0.7,0.4-1
		c0.2-0.3,0.3-0.6,0.6-0.9c0.2-0.3,0.5-0.5,0.9-0.6s0.7-0.2,1.2-0.2c0.5,0,1,0.1,1.5,0.3s0.9,0.4,1.2,0.8c0.3,0.3,0.6,0.8,0.8,1.3
		s0.3,1.1,0.3,1.7c0,0.4,0,0.7-0.1,1.1c-0.1,0.4-0.2,0.7-0.3,1c-0.1,0.3-0.3,0.6-0.5,0.9c-0.2,0.3-0.4,0.5-0.6,0.8l-1-0.6
		c-0.1-0.1-0.1-0.1-0.2-0.2s-0.1-0.2-0.1-0.3c0-0.1,0.1-0.3,0.2-0.4c0.1-0.2,0.2-0.3,0.4-0.5c0.1-0.2,0.3-0.5,0.4-0.7s0.2-0.6,0.2-1
		c0-0.6-0.1-1.1-0.4-1.4c-0.3-0.3-0.7-0.5-1.3-0.5c-0.3,0-0.6,0.1-0.7,0.2c-0.2,0.2-0.4,0.4-0.5,0.6c-0.1,0.3-0.2,0.5-0.3,0.9
		c-0.1,0.3-0.2,0.6-0.3,1s-0.2,0.7-0.4,1c-0.1,0.3-0.3,0.6-0.6,0.9c-0.2,0.3-0.5,0.5-0.9,0.6c-0.4,0.2-0.8,0.2-1.3,0.2
		c-0.4,0-0.8-0.1-1.2-0.3c-0.4-0.2-0.8-0.4-1.1-0.7s-0.6-0.7-0.7-1.2c-0.2-0.5-0.3-1-0.3-1.6c0-0.7,0.1-1.3,0.3-1.9s0.5-1.1,0.9-1.5
		L18,1139.1z"/>
	<path class="st3" d="M24.8,1127.9c0-0.1,0-0.2,0.1-0.3l0.9-0.8c0.6,0.5,1,1,1.3,1.7s0.5,1.5,0.5,2.5c0,0.9-0.1,1.6-0.4,2.3
		c-0.3,0.7-0.7,1.3-1.2,1.8s-1.1,0.9-1.9,1.1c-0.7,0.3-1.5,0.4-2.4,0.4c-0.9,0-1.7-0.1-2.4-0.4c-0.7-0.3-1.3-0.7-1.9-1.2
		c-0.5-0.5-0.9-1.1-1.2-1.9c-0.3-0.7-0.4-1.5-0.4-2.4c0-0.9,0.1-1.6,0.4-2.3c0.3-0.6,0.6-1.2,1.1-1.7l1,0.7c0.1,0,0.1,0.1,0.2,0.2
		c0,0.1,0.1,0.2,0.1,0.3c0,0.1,0,0.2-0.1,0.4c-0.1,0.1-0.2,0.3-0.3,0.5c-0.1,0.2-0.2,0.4-0.3,0.7c-0.1,0.3-0.1,0.7-0.1,1.1
		c0,0.5,0.1,1,0.3,1.5s0.5,0.8,0.8,1.2c0.4,0.3,0.8,0.6,1.3,0.8s1.1,0.3,1.7,0.3c0.7,0,1.2-0.1,1.7-0.3s0.9-0.4,1.3-0.7
		s0.6-0.7,0.8-1.1c0.2-0.4,0.3-0.9,0.3-1.4c0-0.3,0-0.6,0-0.8s-0.1-0.5-0.2-0.7c-0.1-0.2-0.2-0.4-0.3-0.6c-0.1-0.2-0.2-0.4-0.4-0.5
		c0-0.1-0.1-0.1-0.1-0.2C24.8,1128,24.8,1128,24.8,1127.9z"/>
	<path class="st3" d="M23,1122h4.5v2.2H15.9v-3.5c0-0.8,0.1-1.5,0.2-2c0.2-0.6,0.4-1,0.7-1.4c0.3-0.4,0.6-0.6,1.1-0.8
		s0.9-0.3,1.3-0.3c0.4,0,0.8,0.1,1.1,0.2c0.3,0.1,0.7,0.3,0.9,0.5c0.3,0.2,0.5,0.5,0.7,0.8c0.2,0.3,0.4,0.7,0.5,1.1
		c0.2-0.3,0.4-0.5,0.7-0.7l4.3-2.9v1.9c0,0.2,0,0.3-0.1,0.5c-0.1,0.1-0.2,0.2-0.3,0.3l-3.7,2.4c-0.1,0.1-0.2,0.2-0.3,0.3
		s-0.1,0.3-0.1,0.5V1122z M21.4,1122v-1.3c0-0.4,0-0.8-0.2-1.1c-0.1-0.3-0.2-0.5-0.4-0.7c-0.2-0.2-0.4-0.3-0.6-0.4
		c-0.2-0.1-0.5-0.1-0.8-0.1c-0.6,0-1,0.2-1.4,0.6c-0.3,0.4-0.5,1-0.5,1.8v1.4H21.4z"/>
	<path class="st3" d="M25.8,1108.7c0-0.4-0.1-0.8-0.2-1.1s-0.3-0.6-0.6-0.8c-0.2-0.2-0.6-0.4-0.9-0.5c-0.4-0.1-0.8-0.2-1.2-0.2h-6.9
		v-2.2h6.9c0.7,0,1.3,0.1,1.9,0.3c0.6,0.2,1.1,0.5,1.5,1s0.8,0.9,1,1.5c0.2,0.6,0.4,1.3,0.4,2c0,0.7-0.1,1.4-0.4,2
		c-0.2,0.6-0.6,1.1-1,1.5c-0.4,0.4-0.9,0.7-1.5,1s-1.2,0.3-1.9,0.3h-6.9v-2.2h6.9c0.4,0,0.8-0.1,1.2-0.2s0.7-0.3,0.9-0.5
		c0.3-0.2,0.4-0.5,0.6-0.8S25.8,1109.1,25.8,1108.7z"/>
</g>
<g class="st2">
	<path class="st3" d="M23.2,1094.7c0.2-0.1,0.4-0.2,0.6-0.2c-0.2-0.1-0.4-0.2-0.6-0.2c-0.2-0.1-0.4-0.2-0.5-0.3l-6.4-3.4
		c-0.1,0-0.1-0.1-0.2-0.1s-0.1-0.1-0.1-0.2c0-0.1,0-0.1,0-0.2c0-0.1,0-0.2,0-0.2v-1.6h11.6v1.9H20c-0.1,0-0.3,0-0.5,0s-0.3,0-0.5,0
		l6.6,3.5c0.1,0.1,0.3,0.2,0.3,0.3c0.1,0.1,0.1,0.3,0.1,0.4v0.3c0,0.2,0,0.3-0.1,0.4c-0.1,0.1-0.2,0.2-0.3,0.3l-6.6,3.5
		c0.2,0,0.3,0,0.5,0c0.2,0,0.3,0,0.5,0h7.5v1.9H15.9v-1.6c0-0.1,0-0.2,0-0.2c0-0.1,0-0.1,0-0.2c0-0.1,0.1-0.1,0.1-0.2
		s0.1-0.1,0.2-0.1l6.4-3.5C22.9,1094.8,23,1094.8,23.2,1094.7z"/>
</g>
<g class="st2">
	<path class="st3" d="M18,420.1c0.1,0.1,0.2,0.1,0.2,0.2c0,0.1,0.1,0.2,0.1,0.3c0,0.1,0,0.2-0.1,0.4c-0.1,0.1-0.2,0.3-0.3,0.5
		c-0.1,0.2-0.2,0.4-0.3,0.6c-0.1,0.2-0.1,0.5-0.1,0.9c0,0.3,0,0.6,0.1,0.8c0.1,0.2,0.2,0.4,0.3,0.6c0.1,0.2,0.3,0.3,0.5,0.3
		s0.4,0.1,0.6,0.1c0.3,0,0.5-0.1,0.7-0.2c0.2-0.2,0.3-0.4,0.5-0.6c0.1-0.3,0.2-0.5,0.3-0.9s0.2-0.6,0.3-1c0.1-0.3,0.2-0.7,0.4-1
		c0.2-0.3,0.3-0.6,0.6-0.9c0.2-0.3,0.5-0.5,0.9-0.6s0.7-0.2,1.2-0.2c0.5,0,1,0.1,1.5,0.3s0.9,0.4,1.2,0.8c0.3,0.3,0.6,0.8,0.8,1.3
		s0.3,1.1,0.3,1.7c0,0.4,0,0.7-0.1,1.1c-0.1,0.4-0.2,0.7-0.3,1c-0.1,0.3-0.3,0.6-0.5,0.9c-0.2,0.3-0.4,0.5-0.6,0.8l-1-0.6
		c-0.1-0.1-0.1-0.1-0.2-0.2c-0.1-0.1-0.1-0.2-0.1-0.3c0-0.1,0.1-0.3,0.2-0.4c0.1-0.2,0.2-0.3,0.4-0.5c0.1-0.2,0.3-0.5,0.4-0.7
		s0.2-0.6,0.2-1c0-0.6-0.1-1.1-0.4-1.4c-0.3-0.3-0.7-0.5-1.3-0.5c-0.3,0-0.6,0.1-0.7,0.2c-0.2,0.2-0.4,0.4-0.5,0.6
		c-0.1,0.3-0.2,0.5-0.3,0.9c-0.1,0.3-0.2,0.6-0.3,1s-0.2,0.7-0.4,1s-0.3,0.6-0.6,0.9c-0.2,0.3-0.5,0.5-0.9,0.6s-0.8,0.2-1.3,0.2
		c-0.4,0-0.8-0.1-1.2-0.3c-0.4-0.2-0.8-0.4-1.1-0.7c-0.3-0.3-0.6-0.7-0.7-1.2c-0.2-0.5-0.3-1-0.3-1.6c0-0.7,0.1-1.3,0.3-1.9
		c0.2-0.6,0.5-1.1,0.9-1.5L18,420.1z"/>
	<path class="st3" d="M24.8,408.9c0-0.1,0-0.2,0.1-0.3l0.9-0.8c0.6,0.5,1,1,1.3,1.7c0.3,0.7,0.5,1.5,0.5,2.5c0,0.9-0.1,1.6-0.4,2.3
		c-0.3,0.7-0.7,1.3-1.2,1.8s-1.1,0.9-1.9,1.1c-0.7,0.3-1.5,0.4-2.4,0.4c-0.9,0-1.7-0.1-2.4-0.4c-0.7-0.3-1.3-0.7-1.9-1.2
		c-0.5-0.5-0.9-1.1-1.2-1.9c-0.3-0.7-0.4-1.5-0.4-2.4c0-0.9,0.1-1.6,0.4-2.3c0.3-0.6,0.6-1.2,1.1-1.7l1,0.7c0.1,0,0.1,0.1,0.2,0.2
		c0,0.1,0.1,0.2,0.1,0.3c0,0.1,0,0.2-0.1,0.4c-0.1,0.1-0.2,0.3-0.3,0.5c-0.1,0.2-0.2,0.4-0.3,0.7c-0.1,0.3-0.1,0.7-0.1,1.1
		c0,0.5,0.1,1,0.3,1.5s0.5,0.8,0.8,1.2c0.4,0.3,0.8,0.6,1.3,0.8c0.5,0.2,1.1,0.3,1.7,0.3c0.7,0,1.2-0.1,1.7-0.3
		c0.5-0.2,0.9-0.4,1.3-0.7c0.3-0.3,0.6-0.7,0.8-1.1c0.2-0.4,0.3-0.9,0.3-1.4c0-0.3,0-0.6,0-0.8s-0.1-0.5-0.2-0.7
		c-0.1-0.2-0.2-0.4-0.3-0.6s-0.2-0.4-0.4-0.5c0-0.1-0.1-0.1-0.1-0.2C24.8,409,24.8,409,24.8,408.9z"/>
	<path class="st3" d="M23,403h4.5v2.2H15.9v-3.5c0-0.8,0.1-1.5,0.2-2c0.2-0.6,0.4-1,0.7-1.4c0.3-0.4,0.6-0.6,1.1-0.8
		s0.9-0.3,1.3-0.3c0.4,0,0.8,0.1,1.1,0.2s0.7,0.3,0.9,0.5c0.3,0.2,0.5,0.5,0.7,0.8c0.2,0.3,0.4,0.7,0.5,1.1c0.2-0.3,0.4-0.5,0.7-0.7
		l4.3-2.9v1.9c0,0.2,0,0.3-0.1,0.5c-0.1,0.1-0.2,0.2-0.3,0.3l-3.7,2.4c-0.1,0.1-0.2,0.2-0.3,0.3s-0.1,0.3-0.1,0.5V403z M21.4,403
		v-1.3c0-0.4,0-0.8-0.2-1.1s-0.2-0.5-0.4-0.7s-0.4-0.3-0.6-0.4c-0.2-0.1-0.5-0.1-0.8-0.1c-0.6,0-1,0.2-1.4,0.6
		c-0.3,0.4-0.5,1-0.5,1.8v1.4H21.4z"/>
	<path class="st3" d="M25.8,389.7c0-0.4-0.1-0.8-0.2-1.1s-0.3-0.6-0.6-0.8c-0.2-0.2-0.6-0.4-0.9-0.5c-0.4-0.1-0.8-0.2-1.2-0.2h-6.9
		v-2.2h6.9c0.7,0,1.3,0.1,1.9,0.3s1.1,0.5,1.5,1s0.8,0.9,1,1.5c0.2,0.6,0.4,1.3,0.4,2c0,0.7-0.1,1.4-0.4,2c-0.2,0.6-0.6,1.1-1,1.5
		c-0.4,0.4-0.9,0.7-1.5,1c-0.6,0.2-1.2,0.3-1.9,0.3h-6.9v-2.2h6.9c0.4,0,0.8-0.1,1.2-0.2c0.4-0.1,0.7-0.3,0.9-0.5
		c0.3-0.2,0.4-0.5,0.6-0.8S25.8,390.1,25.8,389.7z"/>
</g>
<g class="st2">
	<path class="st3" d="M23.2,375.7c0.2-0.1,0.4-0.2,0.6-0.2c-0.2-0.1-0.4-0.2-0.6-0.2c-0.2-0.1-0.4-0.2-0.5-0.3l-6.4-3.4
		c-0.1,0-0.1-0.1-0.2-0.1s-0.1-0.1-0.1-0.2c0-0.1,0-0.1,0-0.2c0-0.1,0-0.2,0-0.2v-1.6h11.6v1.9H20c-0.1,0-0.3,0-0.5,0
		c-0.2,0-0.3,0-0.5,0l6.6,3.5c0.1,0.1,0.3,0.2,0.3,0.3c0.1,0.1,0.1,0.3,0.1,0.4v0.3c0,0.2,0,0.3-0.1,0.4c-0.1,0.1-0.2,0.2-0.3,0.3
		l-6.6,3.5c0.2,0,0.3,0,0.5,0c0.2,0,0.3,0,0.5,0h7.5v1.9H15.9v-1.6c0-0.1,0-0.2,0-0.2c0-0.1,0-0.1,0-0.2c0-0.1,0.1-0.1,0.1-0.2
		c0,0,0.1-0.1,0.2-0.1l6.4-3.5C22.9,375.8,23,375.8,23.2,375.7z"/>
</g>
</svg>
