<?xml version="1.0" encoding="utf-8"?>
<!-- Generator: Adobe Illustrator 19.2.0, SVG Export Plug-In . SVG Version: 6.00 Build 0)  -->
<svg version="1.1" id="Layer_1" xmlns="http://www.w3.org/2000/svg" xmlns:xlink="http://www.w3.org/1999/xlink" x="0px" y="0px"
	 width="319px" height="907px" viewBox="0 0 319 907" style="enable-background:new 0 0 319 907;" xml:space="preserve">
<style type="text/css">
	.st0{fill:#0497F4;}
	.st1{fill:url(#Rectangle_2_);}
	.st2{enable-background:new    ;}
	.st3{fill:#FFFFFF;}
</style>
<title>Group 2</title>
<desc>Created with Sketch.</desc>
<g>
	<path class="st0" d="M133.8,905l-2.6-1.5c-0.7-0.4-1.6-0.2-2,0.6c-0.4,0.7-0.2,1.6,0.6,2l2.6,1.5c0.2,0.1,0.5,0.2,0.7,0.2
		c0.5,0,1-0.3,1.3-0.8C134.8,906.4,134.6,905.4,133.8,905z"/>
	<path class="st0" d="M120.8,897.6c-0.9-0.5-1.7-1-2.5-1.5c-0.7-0.4-1.6-0.2-2.1,0.5c-0.4,0.7-0.2,1.6,0.5,2.1
		c0.9,0.5,1.7,1.1,2.6,1.6c0.2,0.1,0.5,0.2,0.8,0.2c0.5,0,1-0.3,1.3-0.7C121.8,898.9,121.6,898,120.8,897.6z"/>
	<path class="st0" d="M108.7,889.1c-0.8-0.6-1.5-1.3-2.3-1.9c-0.6-0.5-1.6-0.5-2.1,0.2c-0.5,0.6-0.5,1.6,0.2,2.1
		c0.8,0.7,1.5,1.3,2.3,2c0.3,0.2,0.6,0.3,0.9,0.3c0.4,0,0.9-0.2,1.2-0.6C109.5,890.6,109.4,889.7,108.7,889.1z"/>
	<path class="st0" d="M96,876.8c-0.5-0.6-1.5-0.7-2.1-0.2c-0.6,0.5-0.7,1.5-0.2,2.1c0.7,0.8,1.3,1.5,2,2.3c0.3,0.3,0.7,0.5,1.1,0.5
		c0.4,0,0.7-0.1,1-0.4c0.6-0.6,0.7-1.5,0.1-2.1C97.3,878.3,96.7,877.5,96,876.8z"/>
	<path class="st0" d="M87.3,864.9c-0.4-0.7-1.4-0.9-2.1-0.5c-0.7,0.4-0.9,1.4-0.5,2.1c0.5,0.9,1.1,1.7,1.7,2.6
		c0.3,0.4,0.8,0.7,1.2,0.7c0.3,0,0.6-0.1,0.8-0.3c0.7-0.5,0.9-1.4,0.4-2.1C88.3,866.6,87.8,865.7,87.3,864.9z"/>
	<path class="st0" d="M80.4,851.8c-0.3-0.8-1.2-1.1-2-0.8c-0.8,0.3-1.1,1.2-0.8,2c0.4,0.9,0.8,1.9,1.3,2.8c0.3,0.5,0.8,0.9,1.4,0.9
		c0.2,0,0.4,0,0.6-0.1c0.8-0.4,1.1-1.2,0.7-2C81.2,853.6,80.8,852.7,80.4,851.8z"/>
	<path class="st0" d="M75.6,837.9c-0.2-0.8-1-1.3-1.8-1.1c-0.8,0.2-1.3,1-1.1,1.8c0.3,1,0.5,2,0.8,2.9c0.2,0.7,0.8,1.1,1.4,1.1
		c0.1,0,0.3,0,0.4-0.1c0.8-0.2,1.2-1.1,1-1.9C76.1,839.8,75.8,838.9,75.6,837.9z"/>
	<path class="st0" d="M73.2,826.3c-0.1-1-0.3-1.9-0.4-2.9c-0.1-0.8-0.8-1.4-1.7-1.3c-0.8,0.1-1.4,0.8-1.3,1.7c0.1,1,0.2,2,0.4,3
		c0.1,0.8,0.7,1.3,1.5,1.3c0.1,0,0.1,0,0.2,0C72.8,827.9,73.3,827.1,73.2,826.3z"/>
	<path class="st0" d="M72.3,811.6v-3c0-0.8-0.7-1.5-1.5-1.5s-1.5,0.7-1.5,1.5v3c0,0.8,0.7,1.5,1.5,1.5S72.3,812.4,72.3,811.6z"/>
	<path class="st0" d="M70.8,798.1c0.8,0,1.5-0.7,1.5-1.5v-3c0-0.8-0.7-1.5-1.5-1.5s-1.5,0.7-1.5,1.5v3
		C69.3,797.4,70,798.1,70.8,798.1z"/>
	<path class="st0" d="M70.8,783.1c0.8,0,1.5-0.7,1.5-1.5v-3c0-0.8-0.7-1.5-1.5-1.5s-1.5,0.7-1.5,1.5v3
		C69.3,782.4,70,783.1,70.8,783.1z"/>
	<path class="st0" d="M70.8,768.1c0.8,0,1.5-0.7,1.5-1.5v-3c0-0.8-0.7-1.5-1.5-1.5s-1.5,0.7-1.5,1.5v3
		C69.3,767.4,70,768.1,70.8,768.1z"/>
	<path class="st0" d="M70.8,753.1c0.8,0,1.5-0.7,1.5-1.5v-3c0-0.8-0.7-1.5-1.5-1.5s-1.5,0.7-1.5,1.5v3
		C69.3,752.4,70,753.1,70.8,753.1z"/>
	<path class="st0" d="M70.8,738.1c0.8,0,1.5-0.7,1.5-1.5v-3c0-0.8-0.7-1.5-1.5-1.5s-1.5,0.7-1.5,1.5v3
		C69.3,737.4,70,738.1,70.8,738.1z"/>
	<path class="st0" d="M70.8,723.1c0.8,0,1.5-0.7,1.5-1.5v-3c0-0.8-0.7-1.5-1.5-1.5s-1.5,0.7-1.5,1.5v3
		C69.3,722.4,70,723.1,70.8,723.1z"/>
	<path class="st0" d="M70.8,708.1c0.8,0,1.5-0.7,1.5-1.5v-3c0-0.8-0.7-1.5-1.5-1.5s-1.5,0.7-1.5,1.5v3
		C69.3,707.4,70,708.1,70.8,708.1z"/>
	<path class="st0" d="M70.8,693.1c0.8,0,1.5-0.7,1.5-1.5v-3c0-0.8-0.7-1.5-1.5-1.5s-1.5,0.7-1.5,1.5v3
		C69.3,692.4,70,693.1,70.8,693.1z"/>
	<path class="st0" d="M70.8,678.1c0.8,0,1.5-0.7,1.5-1.5v-3c0-0.8-0.7-1.5-1.5-1.5s-1.5,0.7-1.5,1.5v3
		C69.3,677.4,70,678.1,70.8,678.1z"/>
	<path class="st0" d="M70.8,663.1c0.8,0,1.5-0.7,1.5-1.5v-3c0-0.8-0.7-1.5-1.5-1.5s-1.5,0.7-1.5,1.5v3
		C69.3,662.4,70,663.1,70.8,663.1z"/>
	<path class="st0" d="M70.8,648.1c0.8,0,1.5-0.7,1.5-1.5v-3c0-0.8-0.7-1.5-1.5-1.5s-1.5,0.7-1.5,1.5v3
		C69.3,647.4,70,648.1,70.8,648.1z"/>
	<path class="st0" d="M70.8,633.1c0.8,0,1.5-0.7,1.5-1.5v-3c0-0.8-0.7-1.5-1.5-1.5s-1.5,0.7-1.5,1.5v3
		C69.3,632.4,70,633.1,70.8,633.1z"/>
	<path class="st0" d="M70.8,618.1c0.8,0,1.5-0.7,1.5-1.5v-3c0-0.8-0.7-1.5-1.5-1.5s-1.5,0.7-1.5,1.5v3
		C69.3,617.4,70,618.1,70.8,618.1z"/>
	<path class="st0" d="M70.8,603.1c0.8,0,1.5-0.7,1.5-1.5v-3c0-0.8-0.7-1.5-1.5-1.5s-1.5,0.7-1.5,1.5v3
		C69.3,602.4,70,603.1,70.8,603.1z"/>
	<path class="st0" d="M70.8,588.1c0.8,0,1.5-0.7,1.5-1.5v-3c0-0.8-0.7-1.5-1.5-1.5s-1.5,0.7-1.5,1.5v3
		C69.3,587.4,70,588.1,70.8,588.1z"/>
	<path class="st0" d="M70.8,573.1c0.8,0,1.5-0.7,1.5-1.5v-3c0-0.8-0.7-1.5-1.5-1.5s-1.5,0.7-1.5,1.5v3
		C69.3,572.4,70,573.1,70.8,573.1z"/>
	<path class="st0" d="M70.8,558.1c0.8,0,1.5-0.7,1.5-1.5v-3c0-0.8-0.7-1.5-1.5-1.5s-1.5,0.7-1.5,1.5v3
		C69.3,557.4,70,558.1,70.8,558.1z"/>
	<path class="st0" d="M70.8,543.1c0.8,0,1.5-0.7,1.5-1.5v-3c0-0.8-0.7-1.5-1.5-1.5s-1.5,0.7-1.5,1.5v3
		C69.3,542.4,70,543.1,70.8,543.1z"/>
	<path class="st0" d="M70.8,528.1c0.8,0,1.5-0.7,1.5-1.5v-3c0-0.8-0.7-1.5-1.5-1.5s-1.5,0.7-1.5,1.5v3
		C69.3,527.4,70,528.1,70.8,528.1z"/>
	<path class="st0" d="M70.8,513.1c0.8,0,1.5-0.7,1.5-1.5v-3c0-0.8-0.7-1.5-1.5-1.5s-1.5,0.7-1.5,1.5v3
		C69.3,512.4,70,513.1,70.8,513.1z"/>
	<path class="st0" d="M70.8,498.1c0.8,0,1.5-0.7,1.5-1.5v-3c0-0.8-0.7-1.5-1.5-1.5s-1.5,0.7-1.5,1.5v3
		C69.3,497.4,70,498.1,70.8,498.1z"/>
	<path class="st0" d="M70.8,483.1c0.8,0,1.5-0.7,1.5-1.5v-3c0-0.8-0.7-1.5-1.5-1.5s-1.5,0.7-1.5,1.5v3
		C69.3,482.4,70,483.1,70.8,483.1z"/>
	<path class="st0" d="M70.8,468.1c0.8,0,1.5-0.7,1.5-1.5v-3c0-0.8-0.7-1.5-1.5-1.5s-1.5,0.7-1.5,1.5v3
		C69.3,467.4,70,468.1,70.8,468.1z"/>
	<path class="st0" d="M70.8,453.1c0.8,0,1.5-0.7,1.5-1.5v-3c0-0.8-0.7-1.5-1.5-1.5s-1.5,0.7-1.5,1.5v3
		C69.3,452.4,70,453.1,70.8,453.1z"/>
	<path class="st0" d="M70.8,438.1c0.8,0,1.5-0.7,1.5-1.5v-3c0-0.8-0.7-1.5-1.5-1.5s-1.5,0.7-1.5,1.5v3
		C69.3,437.4,70,438.1,70.8,438.1z"/>
	<path class="st0" d="M70.8,423.1c0.8,0,1.5-0.7,1.5-1.5v-3c0-0.8-0.7-1.5-1.5-1.5s-1.5,0.7-1.5,1.5v3
		C69.3,422.4,70,423.1,70.8,423.1z"/>
	<path class="st0" d="M70.8,408.1c0.8,0,1.5-0.7,1.5-1.5v-3c0-0.8-0.7-1.5-1.5-1.5s-1.5,0.7-1.5,1.5v3
		C69.3,407.4,70,408.1,70.8,408.1z"/>
	<path class="st0" d="M70.8,393.1c0.8,0,1.5-0.7,1.5-1.5v-3c0-0.8-0.7-1.5-1.5-1.5s-1.5,0.7-1.5,1.5v3
		C69.3,392.4,70,393.1,70.8,393.1z"/>
	<path class="st0" d="M70.8,378.1c0.8,0,1.5-0.7,1.5-1.5v-3c0-0.8-0.7-1.5-1.5-1.5s-1.5,0.7-1.5,1.5v3
		C69.3,377.4,70,378.1,70.8,378.1z"/>
	<path class="st0" d="M70.8,363.1c0.8,0,1.5-0.7,1.5-1.5v-3c0-0.8-0.7-1.5-1.5-1.5s-1.5,0.7-1.5,1.5v3
		C69.3,362.4,70,363.1,70.8,363.1z"/>
	<path class="st0" d="M70.8,348.1c0.8,0,1.5-0.7,1.5-1.5v-3c0-0.8-0.7-1.5-1.5-1.5s-1.5,0.7-1.5,1.5v3
		C69.3,347.4,70,348.1,70.8,348.1z"/>
	<path class="st0" d="M70.8,333.1c0.8,0,1.5-0.7,1.5-1.5v-3c0-0.8-0.7-1.5-1.5-1.5s-1.5,0.7-1.5,1.5v3
		C69.3,332.4,70,333.1,70.8,333.1z"/>
	<path class="st0" d="M70.8,318.1c0.8,0,1.5-0.7,1.5-1.5v-3c0-0.8-0.7-1.5-1.5-1.5s-1.5,0.7-1.5,1.5v3
		C69.3,317.4,70,318.1,70.8,318.1z"/>
	<path class="st0" d="M70.8,303.1c0.8,0,1.5-0.7,1.5-1.5v-3c0-0.8-0.7-1.5-1.5-1.5s-1.5,0.7-1.5,1.5v3
		C69.3,302.4,70,303.1,70.8,303.1z"/>
	<path class="st0" d="M70.8,288.1c0.8,0,1.5-0.7,1.5-1.5v-3c0-0.8-0.7-1.5-1.5-1.5s-1.5,0.7-1.5,1.5v3
		C69.3,287.4,70,288.1,70.8,288.1z"/>
	<path class="st0" d="M70.8,273.1c0.8,0,1.5-0.7,1.5-1.5v-3c0-0.8-0.7-1.5-1.5-1.5s-1.5,0.7-1.5,1.5v3
		C69.3,272.4,70,273.1,70.8,273.1z"/>
	<path class="st0" d="M70.8,258.1c0.8,0,1.5-0.7,1.5-1.5v-3c0-0.8-0.7-1.5-1.5-1.5s-1.5,0.7-1.5,1.5v3
		C69.3,257.4,70,258.1,70.8,258.1z"/>
	<path class="st0" d="M70.8,243.1c0.8,0,1.5-0.7,1.5-1.5v-3c0-0.8-0.7-1.5-1.5-1.5s-1.5,0.7-1.5,1.5v3
		C69.3,242.4,70,243.1,70.8,243.1z"/>
	<path class="st0" d="M70.8,228.1c0.8,0,1.5-0.7,1.5-1.5v-3c0-0.8-0.7-1.5-1.5-1.5s-1.5,0.7-1.5,1.5v3
		C69.3,227.4,70,228.1,70.8,228.1z"/>
	<path class="st0" d="M70.8,213.1c0.8,0,1.5-0.7,1.5-1.5v-3c0-0.8-0.7-1.5-1.5-1.5s-1.5,0.7-1.5,1.5v3
		C69.3,212.4,70,213.1,70.8,213.1z"/>
	<path class="st0" d="M70.8,198.1c0.8,0,1.5-0.7,1.5-1.5v-3c0-0.8-0.7-1.5-1.5-1.5s-1.5,0.7-1.5,1.5v3
		C69.3,197.4,70,198.1,70.8,198.1z"/>
	<path class="st0" d="M70.8,183.1c0.8,0,1.5-0.7,1.5-1.5v-3c0-0.8-0.7-1.5-1.5-1.5s-1.5,0.7-1.5,1.5v3
		C69.3,182.4,70,183.1,70.8,183.1z"/>
	<path class="st0" d="M70.8,168.1c0.8,0,1.5-0.7,1.5-1.5v-3c0-0.8-0.7-1.5-1.5-1.5s-1.5,0.7-1.5,1.5v3
		C69.3,167.4,70,168.1,70.8,168.1z"/>
	<path class="st0" d="M70.8,153.1c0.8,0,1.5-0.7,1.5-1.5v-3c0-0.8-0.7-1.5-1.5-1.5s-1.5,0.7-1.5,1.5v3
		C69.3,152.4,70,153.1,70.8,153.1z"/>
	<path class="st0" d="M70.8,138.1c0.8,0,1.5-0.7,1.5-1.5v-3c0-0.8-0.7-1.5-1.5-1.5s-1.5,0.7-1.5,1.5v3
		C69.3,137.4,70,138.1,70.8,138.1z"/>
	<path class="st0" d="M70.8,123.1c0.8,0,1.5-0.7,1.5-1.5v-3c0-0.8-0.7-1.5-1.5-1.5s-1.5,0.7-1.5,1.5v3
		C69.3,122.4,70,123.1,70.8,123.1z"/>
	<path class="st0" d="M70.8,108.1C70.8,108.1,70.8,108.1,70.8,108.1c0.8,0,1.5-0.7,1.5-1.5c0-1,0-2,0.1-3c0-0.8-0.6-1.5-1.4-1.6
		c-0.8,0-1.5,0.6-1.6,1.4c0,1-0.1,2-0.1,3C69.3,107.4,69.9,108.1,70.8,108.1z"/>
	<path class="st0" d="M71.9,93.1c0.1,0,0.2,0,0.2,0c0.7,0,1.4-0.5,1.5-1.3c0.2-1,0.3-1.9,0.5-2.9c0.2-0.8-0.4-1.6-1.2-1.8
		c-0.8-0.2-1.6,0.4-1.8,1.2c-0.2,1-0.4,2-0.5,3C70.5,92.2,71.1,93,71.9,93.1z"/>
	<path class="st0" d="M77.1,72.8c-0.8-0.3-1.6,0.1-1.9,0.9c-0.3,1-0.7,1.9-1,2.9c-0.3,0.8,0.2,1.6,1,1.9c0.2,0,0.3,0.1,0.5,0.1
		c0.6,0,1.2-0.4,1.4-1c0.3-0.9,0.6-1.9,1-2.8C78.3,74,77.9,73.1,77.1,72.8z"/>
	<path class="st0" d="M83.4,59.2c-0.7-0.4-1.6-0.1-2,0.6c-0.5,0.9-1,1.8-1.4,2.7c-0.4,0.7-0.1,1.6,0.7,2c0.2,0.1,0.4,0.2,0.7,0.2
		c0.5,0,1.1-0.3,1.3-0.8c0.4-0.9,0.9-1.8,1.4-2.6C84.4,60.5,84.2,59.6,83.4,59.2z"/>
	<path class="st0" d="M91.7,46.7c-0.7-0.5-1.6-0.4-2.1,0.3c-0.6,0.8-1.2,1.6-1.8,2.5c-0.5,0.7-0.3,1.6,0.4,2.1
		c0.3,0.2,0.6,0.3,0.9,0.3c0.5,0,0.9-0.2,1.2-0.6c0.6-0.8,1.2-1.6,1.7-2.4C92.5,48.2,92.4,47.2,91.7,46.7z"/>
	<path class="st0" d="M99.6,35.6c-0.7,0.7-1.4,1.4-2.1,2.2c-0.6,0.6-0.6,1.5,0,2.1c0.3,0.3,0.7,0.4,1,0.4c0.4,0,0.8-0.2,1.1-0.5
		c0.7-0.7,1.4-1.4,2.1-2.1c0.6-0.6,0.6-1.5,0-2.1C101.2,35,100.2,35,99.6,35.6z"/>
	<path class="st0" d="M111.3,25.8c-0.8,0.6-1.6,1.2-2.4,1.8c-0.7,0.5-0.8,1.4-0.3,2.1c0.3,0.4,0.7,0.6,1.2,0.6
		c0.3,0,0.6-0.1,0.9-0.3c0.8-0.6,1.6-1.2,2.4-1.8c0.7-0.5,0.8-1.4,0.3-2.1C112.9,25.4,111.9,25.3,111.3,25.8z"/>
	<path class="st0" d="M124.2,17.8c-0.9,0.5-1.8,0.9-2.7,1.4c-0.7,0.4-1,1.3-0.6,2c0.3,0.5,0.8,0.8,1.3,0.8c0.2,0,0.5-0.1,0.7-0.2
		c0.9-0.5,1.7-0.9,2.6-1.4c0.7-0.4,1-1.3,0.6-2C125.8,17.7,124.9,17.4,124.2,17.8z"/>
	<path class="st0" d="M138.2,11.8c-1,0.3-1.9,0.7-2.9,1c-0.8,0.3-1.2,1.2-0.9,1.9c0.2,0.6,0.8,1,1.4,1c0.2,0,0.4,0,0.5-0.1
		c0.9-0.3,1.8-0.7,2.8-1c0.8-0.3,1.2-1.1,0.9-1.9S139,11.6,138.2,11.8z"/>
	<path class="st0" d="M152.9,8.1c-1,0.2-2,0.4-3,0.6c-0.8,0.2-1.3,1-1.2,1.8c0.1,0.7,0.8,1.2,1.5,1.2c0.1,0,0.2,0,0.3,0
		c1-0.2,1.9-0.4,2.9-0.6c0.8-0.1,1.4-0.9,1.2-1.7C154.5,8.5,153.7,7.9,152.9,8.1z"/>
	<path class="st0" d="M303.1,7.1l-3,0c0,0,0,0,0,0c-0.8,0-1.5,0.7-1.5,1.5c0,0.8,0.7,1.5,1.5,1.5l3,0c0,0,0,0,0,0
		c0.8,0,1.5-0.7,1.5-1.5C304.6,7.7,303.9,7.1,303.1,7.1z"/>
	<path class="st0" d="M288.1,7l-3,0c0,0,0,0,0,0c-0.8,0-1.5,0.7-1.5,1.5c0,0.8,0.7,1.5,1.5,1.5l3,0c0,0,0,0,0,0
		c0.8,0,1.5-0.7,1.5-1.5C289.6,7.7,288.9,7,288.1,7z"/>
	<path class="st0" d="M273.1,6.9l-3,0c0,0,0,0,0,0c-0.8,0-1.5,0.7-1.5,1.5c0,0.8,0.7,1.5,1.5,1.5l3,0c0,0,0,0,0,0
		c0.8,0,1.5-0.7,1.5-1.5C274.6,7.6,273.9,6.9,273.1,6.9z"/>
	<path class="st0" d="M258.1,6.9l-3,0c0,0,0,0,0,0c-0.8,0-1.5,0.7-1.5,1.5c0,0.8,0.7,1.5,1.5,1.5l3,0c0,0,0,0,0,0
		c0.8,0,1.5-0.7,1.5-1.5C259.6,7.5,258.9,6.9,258.1,6.9z"/>
	<path class="st0" d="M243.1,6.8l-3,0c0,0,0,0,0,0c-0.8,0-1.5,0.7-1.5,1.5c0,0.8,0.7,1.5,1.5,1.5l3,0c0,0,0,0,0,0
		c0.8,0,1.5-0.7,1.5-1.5C244.6,7.5,243.9,6.8,243.1,6.8z"/>
	<path class="st0" d="M228.1,6.7l-3,0c0,0,0,0,0,0c-0.8,0-1.5,0.7-1.5,1.5c0,0.8,0.7,1.5,1.5,1.5l3,0c0,0,0,0,0,0
		c0.8,0,1.5-0.7,1.5-1.5C229.6,7.4,228.9,6.7,228.1,6.7z"/>
	<path class="st0" d="M213.1,6.7l-3,0c0,0,0,0,0,0c-0.8,0-1.5,0.7-1.5,1.5c0,0.8,0.7,1.5,1.5,1.5l3,0c0,0,0,0,0,0
		c0.8,0,1.5-0.7,1.5-1.5C214.6,7.4,213.9,6.7,213.1,6.7z"/>
	<path class="st0" d="M168,6.5c-1,0-2,0.1-3,0.1c-0.8,0-1.5,0.8-1.4,1.6c0,0.8,0.7,1.4,1.5,1.4c0,0,0.1,0,0.1,0c1-0.1,2-0.1,3-0.1
		c0.8,0,1.5-0.7,1.5-1.5C169.6,7.2,168.8,6.5,168,6.5z"/>
	<path class="st0" d="M198.1,6.6l-3,0c0,0,0,0,0,0c-0.8,0-1.5,0.7-1.5,1.5c0,0.8,0.7,1.5,1.5,1.5l3,0c0,0,0,0,0,0
		c0.8,0,1.5-0.7,1.5-1.5C199.6,7.3,198.9,6.6,198.1,6.6z"/>
	<path class="st0" d="M183.1,6.6l-3,0c0,0,0,0,0,0c-0.8,0-1.5,0.7-1.5,1.5c0,0.8,0.7,1.5,1.5,1.5l3,0c0,0,0,0,0,0
		c0.8,0,1.5-0.7,1.5-1.5C184.6,7.2,183.9,6.6,183.1,6.6z"/>
</g>
<path id="Path-22_2_" class="st0" d="M294.3,1l24.4,7.8l-24.4,7.8C294.3,17.1,294.3,1,294.3,1z"/>
<linearGradient id="Rectangle_2_" gradientUnits="userSpaceOnUse" x1="-144.9695" y1="850.7768" x2="-144.0789" y2="850.0007" gradientTransform="matrix(140 0 0 -70 20294 59954)">
	<stop  offset="0" style="stop-color:#0497F4"/>
	<stop  offset="1" style="stop-color:#0BCBF9"/>
</linearGradient>
<path id="Rectangle_1_" class="st1" d="M35.3,396h70c19.3,0,35,15.7,35,35l0,0c0,19.3-15.7,35-35,35h-70c-19.3,0-35-15.7-35-35l0,0
	C0.3,411.7,16,396,35.3,396z"/>
<g class="st2">
	<path class="st3" d="M33.3,425.6c-0.1,0.2-0.2,0.3-0.3,0.4c-0.1,0.1-0.3,0.1-0.4,0.1s-0.4-0.1-0.6-0.2c-0.2-0.1-0.5-0.3-0.8-0.4
		c-0.3-0.2-0.6-0.3-1-0.4c-0.4-0.1-0.9-0.2-1.4-0.2c-0.5,0-0.9,0.1-1.3,0.2c-0.4,0.1-0.7,0.3-0.9,0.5s-0.4,0.5-0.6,0.7
		c-0.1,0.3-0.2,0.6-0.2,1c0,0.4,0.1,0.8,0.4,1.1c0.2,0.3,0.6,0.5,1,0.8c0.4,0.2,0.9,0.4,1.4,0.6c0.5,0.2,1.1,0.3,1.6,0.5
		s1.1,0.4,1.6,0.7c0.5,0.2,1,0.6,1.4,0.9s0.7,0.8,1,1.4s0.4,1.2,0.4,2c0,0.8-0.1,1.6-0.4,2.4c-0.3,0.7-0.7,1.4-1.3,1.9s-1.2,1-2,1.3
		c-0.8,0.3-1.7,0.5-2.8,0.5c-0.6,0-1.2-0.1-1.8-0.2s-1.1-0.3-1.7-0.5c-0.5-0.2-1-0.5-1.5-0.8c-0.5-0.3-0.9-0.6-1.2-1l1-1.7
		c0.1-0.1,0.2-0.2,0.3-0.3c0.1-0.1,0.3-0.1,0.4-0.1c0.2,0,0.5,0.1,0.7,0.3c0.3,0.2,0.5,0.4,0.9,0.6c0.3,0.2,0.7,0.4,1.2,0.6
		c0.5,0.2,1,0.3,1.7,0.3c1,0,1.8-0.2,2.3-0.7s0.8-1.2,0.8-2c0-0.5-0.1-0.9-0.4-1.2c-0.2-0.3-0.6-0.6-1-0.8c-0.4-0.2-0.9-0.4-1.4-0.5
		s-1-0.3-1.6-0.5c-0.5-0.2-1.1-0.4-1.6-0.6c-0.5-0.2-1-0.6-1.4-0.9c-0.4-0.4-0.7-0.9-1-1.5c-0.2-0.6-0.4-1.3-0.4-2.2
		c0-0.7,0.1-1.4,0.4-2c0.3-0.6,0.7-1.2,1.2-1.7c0.5-0.5,1.2-0.9,1.9-1.2s1.6-0.5,2.6-0.5c1.1,0,2.1,0.2,3.1,0.5
		c0.9,0.3,1.7,0.8,2.4,1.5L33.3,425.6z"/>
	<path class="st3" d="M52,436.6c0.2,0,0.4,0.1,0.5,0.2l1.4,1.5c-0.8,0.9-1.7,1.7-2.8,2.2s-2.5,0.8-4,0.8c-1.4,0-2.7-0.2-3.8-0.7
		c-1.1-0.5-2.1-1.1-2.9-2s-1.4-1.9-1.8-3S38,433,38,431.6c0-1.4,0.2-2.7,0.7-3.9c0.5-1.2,1.1-2.2,2-3c0.8-0.8,1.9-1.5,3-2
		c1.2-0.5,2.5-0.7,3.9-0.7c1.4,0,2.6,0.2,3.7,0.7c1,0.4,1.9,1,2.7,1.8l-1.2,1.6c-0.1,0.1-0.2,0.2-0.3,0.3s-0.3,0.1-0.4,0.1
		c-0.2,0-0.4-0.1-0.6-0.2c-0.2-0.2-0.5-0.3-0.8-0.5s-0.7-0.4-1.2-0.5s-1.1-0.2-1.9-0.2c-0.9,0-1.7,0.2-2.4,0.5
		c-0.7,0.3-1.4,0.7-1.9,1.3c-0.5,0.6-0.9,1.3-1.2,2.1c-0.3,0.8-0.4,1.7-0.4,2.8c0,1.1,0.1,2,0.4,2.8c0.3,0.8,0.7,1.5,1.2,2.1
		s1.1,1,1.8,1.3c0.7,0.3,1.4,0.4,2.2,0.4c0.5,0,0.9,0,1.3-0.1s0.7-0.1,1.1-0.2c0.3-0.1,0.6-0.3,0.9-0.4c0.3-0.2,0.6-0.4,0.9-0.7
		c0.1-0.1,0.2-0.1,0.3-0.2S51.9,436.6,52,436.6z"/>
	<path class="st3" d="M62.1,433.7v7.3h-3.5v-18.8h5.7c1.3,0,2.4,0.1,3.3,0.4s1.7,0.6,2.2,1.1s1,1,1.3,1.7c0.3,0.7,0.4,1.4,0.4,2.2
		c0,0.6-0.1,1.2-0.3,1.8s-0.5,1.1-0.8,1.5c-0.4,0.5-0.8,0.9-1.3,1.2s-1.1,0.6-1.8,0.8c0.4,0.3,0.8,0.6,1.1,1.1l4.7,6.9h-3.1
		c-0.3,0-0.6-0.1-0.8-0.2c-0.2-0.1-0.4-0.3-0.5-0.5l-4-6c-0.1-0.2-0.3-0.4-0.5-0.5c-0.2-0.1-0.4-0.1-0.8-0.1H62.1z M62.1,431.1h2.2
		c0.7,0,1.2-0.1,1.7-0.2c0.5-0.2,0.9-0.4,1.2-0.7c0.3-0.3,0.6-0.6,0.7-1c0.2-0.4,0.2-0.8,0.2-1.3c0-1-0.3-1.7-0.9-2.2
		c-0.6-0.5-1.6-0.8-2.9-0.8h-2.2V431.1z"/>
	<path class="st3" d="M84.4,438.2c0.7,0,1.3-0.1,1.8-0.3c0.5-0.2,1-0.5,1.4-0.9c0.4-0.4,0.6-0.9,0.8-1.5c0.2-0.6,0.3-1.2,0.3-2
		v-11.3h3.5v11.3c0,1.1-0.2,2.2-0.5,3.1c-0.4,0.9-0.9,1.8-1.6,2.5c-0.7,0.7-1.5,1.2-2.5,1.6c-1,0.4-2,0.6-3.2,0.6s-2.3-0.2-3.2-0.6
		c-1-0.4-1.8-0.9-2.5-1.6c-0.7-0.7-1.2-1.5-1.5-2.5c-0.4-0.9-0.5-2-0.5-3.1v-11.3h3.5v11.2c0,0.7,0.1,1.4,0.3,2
		c0.2,0.6,0.5,1.1,0.8,1.5c0.4,0.4,0.8,0.7,1.3,1C83.1,438.1,83.7,438.2,84.4,438.2z"/>
</g>
<g class="st2">
	<path class="st3" d="M107.7,434.1c0.1,0.3,0.2,0.6,0.4,0.9c0.1-0.3,0.2-0.6,0.4-0.9c0.1-0.3,0.3-0.6,0.4-0.9l5.6-10.4
		c0.1-0.1,0.1-0.2,0.2-0.3s0.2-0.1,0.2-0.2c0.1,0,0.2-0.1,0.3-0.1c0.1,0,0.2,0,0.4,0h2.6V441h-3.1v-12.1c0-0.2,0-0.5,0-0.7
		c0-0.3,0-0.5,0.1-0.8l-5.7,10.7c-0.1,0.2-0.3,0.4-0.5,0.6c-0.2,0.1-0.5,0.2-0.7,0.2h-0.5c-0.3,0-0.5-0.1-0.7-0.2
		c-0.2-0.1-0.4-0.3-0.5-0.6l-5.8-10.7c0,0.3,0.1,0.6,0.1,0.8c0,0.3,0,0.5,0,0.8V441h-3.1v-18.8h2.6c0.2,0,0.3,0,0.4,0s0.2,0,0.3,0.1
		c0.1,0,0.2,0.1,0.3,0.2s0.2,0.2,0.2,0.3l5.6,10.4C107.4,433.5,107.6,433.8,107.7,434.1z"/>
</g>
</svg>
