<?xml version="1.0" encoding="utf-8"?>
<!-- Generator: Adobe Illustrator 19.2.0, SVG Export Plug-In . SVG Version: 6.00 Build 0)  -->
<svg version="1.1" id="Layer_1" xmlns="http://www.w3.org/2000/svg" xmlns:xlink="http://www.w3.org/1999/xlink" x="0px" y="0px"
	 width="160px" height="897px" viewBox="0 0 160 897" style="enable-background:new 0 0 160 897;" xml:space="preserve">
<style type="text/css">
	.st0{fill:#0497F4;}
	.st1{fill:url(#Rectangle_2_);}
	.st2{enable-background:new    ;}
	.st3{fill:#FFFFFF;}
</style>
<title>Group 2</title>
<desc>Created with Sketch.</desc>
<g>
	<path class="st0" d="M80.2,893.7c-0.4-0.7-1.4-0.9-2.1-0.5c-0.7,0.4-0.9,1.4-0.5,2.1l1.6,2.6c0.3,0.5,0.8,0.7,1.3,0.7
		c0.3,0,0.5-0.1,0.8-0.2c0.7-0.4,0.9-1.4,0.5-2.1L80.2,893.7z"/>
	<path class="st0" d="M72.5,880.8c-0.4-0.7-1.3-1-2-0.6c-0.7,0.4-1,1.3-0.6,2c0.5,0.9,1,1.8,1.5,2.7c0.3,0.5,0.8,0.7,1.3,0.7
		c0.3,0,0.5-0.1,0.8-0.2c0.7-0.4,1-1.3,0.5-2.1C73.5,882.6,73,881.7,72.5,880.8z"/>
	<path class="st0" d="M66.5,867.4c-0.3-0.8-1.1-1.2-1.9-0.9c-0.8,0.3-1.2,1.1-0.9,1.9c0.3,1,0.7,1.9,1.1,2.8
		c0.2,0.6,0.8,0.9,1.4,0.9c0.2,0,0.4,0,0.6-0.1c0.8-0.3,1.1-1.2,0.8-1.9C67.1,869.2,66.8,868.3,66.5,867.4z"/>
	<path class="st0" d="M62.5,853.2c-0.2-0.8-1-1.3-1.8-1.2c-0.8,0.2-1.3,1-1.2,1.8c0.2,1,0.4,2,0.6,3c0.2,0.7,0.8,1.2,1.5,1.2
		c0.1,0,0.2,0,0.3,0c0.8-0.2,1.3-1,1.1-1.8C62.9,855.1,62.7,854.1,62.5,853.2z"/>
	<path class="st0" d="M60.8,841.5c-0.1-1-0.1-2-0.2-2.9c0-0.8-0.7-1.4-1.6-1.4c-0.8,0-1.5,0.7-1.4,1.6c0.1,1,0.1,2,0.2,3
		c0.1,0.8,0.7,1.4,1.5,1.4c0,0,0.1,0,0.1,0C60.3,843,60.9,842.3,60.8,841.5z"/>
	<path class="st0" d="M59,828.1c0.8,0,1.5-0.7,1.5-1.5v-3c0-0.8-0.7-1.5-1.5-1.5s-1.5,0.7-1.5,1.5v3C57.5,827.4,58.2,828.1,59,828.1
		z"/>
	<path class="st0" d="M59,813.1c0.8,0,1.5-0.7,1.5-1.5v-3c0-0.8-0.7-1.5-1.5-1.5s-1.5,0.7-1.5,1.5v3C57.5,812.4,58.2,813.1,59,813.1
		z"/>
	<path class="st0" d="M59,798.1c0.8,0,1.5-0.7,1.5-1.5v-3c0-0.8-0.7-1.5-1.5-1.5s-1.5,0.7-1.5,1.5v3C57.5,797.4,58.2,798.1,59,798.1
		z"/>
	<path class="st0" d="M59,783.1c0.8,0,1.5-0.7,1.5-1.5v-3c0-0.8-0.7-1.5-1.5-1.5s-1.5,0.7-1.5,1.5v3C57.5,782.4,58.2,783.1,59,783.1
		z"/>
	<path class="st0" d="M59,768.1c0.8,0,1.5-0.7,1.5-1.5v-3c0-0.8-0.7-1.5-1.5-1.5s-1.5,0.7-1.5,1.5v3C57.5,767.4,58.2,768.1,59,768.1
		z"/>
	<path class="st0" d="M59,753.1c0.8,0,1.5-0.7,1.5-1.5v-3c0-0.8-0.7-1.5-1.5-1.5s-1.5,0.7-1.5,1.5v3C57.5,752.4,58.2,753.1,59,753.1
		z"/>
	<path class="st0" d="M59,738.1c0.8,0,1.5-0.7,1.5-1.5v-3c0-0.8-0.7-1.5-1.5-1.5s-1.5,0.7-1.5,1.5v3C57.5,737.4,58.2,738.1,59,738.1
		z"/>
	<path class="st0" d="M59,723.1c0.8,0,1.5-0.7,1.5-1.5v-3c0-0.8-0.7-1.5-1.5-1.5s-1.5,0.7-1.5,1.5v3C57.5,722.4,58.2,723.1,59,723.1
		z"/>
	<path class="st0" d="M59,708.1c0.8,0,1.5-0.7,1.5-1.5v-3c0-0.8-0.7-1.5-1.5-1.5s-1.5,0.7-1.5,1.5v3C57.5,707.4,58.2,708.1,59,708.1
		z"/>
	<path class="st0" d="M59,693.1c0.8,0,1.5-0.7,1.5-1.5v-3c0-0.8-0.7-1.5-1.5-1.5s-1.5,0.7-1.5,1.5v3C57.5,692.4,58.2,693.1,59,693.1
		z"/>
	<path class="st0" d="M59,678.1c0.8,0,1.5-0.7,1.5-1.5v-3c0-0.8-0.7-1.5-1.5-1.5s-1.5,0.7-1.5,1.5v3C57.5,677.4,58.2,678.1,59,678.1
		z"/>
	<path class="st0" d="M59,663.1c0.8,0,1.5-0.7,1.5-1.5v-3c0-0.8-0.7-1.5-1.5-1.5s-1.5,0.7-1.5,1.5v3C57.5,662.4,58.2,663.1,59,663.1
		z"/>
	<path class="st0" d="M59,648.1c0.8,0,1.5-0.7,1.5-1.5v-3c0-0.8-0.7-1.5-1.5-1.5s-1.5,0.7-1.5,1.5v3C57.5,647.4,58.2,648.1,59,648.1
		z"/>
	<path class="st0" d="M59,633.1c0.8,0,1.5-0.7,1.5-1.5v-3c0-0.8-0.7-1.5-1.5-1.5s-1.5,0.7-1.5,1.5v3C57.5,632.4,58.2,633.1,59,633.1
		z"/>
	<path class="st0" d="M59,618.1c0.8,0,1.5-0.7,1.5-1.5v-3c0-0.8-0.7-1.5-1.5-1.5s-1.5,0.7-1.5,1.5v3C57.5,617.4,58.2,618.1,59,618.1
		z"/>
	<path class="st0" d="M59,603.1c0.8,0,1.5-0.7,1.5-1.5v-3c0-0.8-0.7-1.5-1.5-1.5s-1.5,0.7-1.5,1.5v3C57.5,602.4,58.2,603.1,59,603.1
		z"/>
	<path class="st0" d="M59,588.1c0.8,0,1.5-0.7,1.5-1.5v-3c0-0.8-0.7-1.5-1.5-1.5s-1.5,0.7-1.5,1.5v3C57.5,587.4,58.2,588.1,59,588.1
		z"/>
	<path class="st0" d="M59,573.1c0.8,0,1.5-0.7,1.5-1.5v-3c0-0.8-0.7-1.5-1.5-1.5s-1.5,0.7-1.5,1.5v3C57.5,572.4,58.2,573.1,59,573.1
		z"/>
	<path class="st0" d="M59,558.1c0.8,0,1.5-0.7,1.5-1.5v-3c0-0.8-0.7-1.5-1.5-1.5s-1.5,0.7-1.5,1.5v3C57.5,557.4,58.2,558.1,59,558.1
		z"/>
	<path class="st0" d="M59,543.1c0.8,0,1.5-0.7,1.5-1.5v-3c0-0.8-0.7-1.5-1.5-1.5s-1.5,0.7-1.5,1.5v3C57.5,542.4,58.2,543.1,59,543.1
		z"/>
	<path class="st0" d="M59,528.1c0.8,0,1.5-0.7,1.5-1.5v-3c0-0.8-0.7-1.5-1.5-1.5s-1.5,0.7-1.5,1.5v3C57.5,527.4,58.2,528.1,59,528.1
		z"/>
	<path class="st0" d="M59,513.1c0.8,0,1.5-0.7,1.5-1.5v-3c0-0.8-0.7-1.5-1.5-1.5s-1.5,0.7-1.5,1.5v3C57.5,512.4,58.2,513.1,59,513.1
		z"/>
	<path class="st0" d="M59,498.1c0.8,0,1.5-0.7,1.5-1.5v-3c0-0.8-0.7-1.5-1.5-1.5s-1.5,0.7-1.5,1.5v3C57.5,497.4,58.2,498.1,59,498.1
		z"/>
	<path class="st0" d="M59,483.1c0.8,0,1.5-0.7,1.5-1.5v-3c0-0.8-0.7-1.5-1.5-1.5s-1.5,0.7-1.5,1.5v3C57.5,482.4,58.2,483.1,59,483.1
		z"/>
	<path class="st0" d="M59,468.1c0.8,0,1.5-0.7,1.5-1.5v-3c0-0.8-0.7-1.5-1.5-1.5s-1.5,0.7-1.5,1.5v3C57.5,467.4,58.2,468.1,59,468.1
		z"/>
	<path class="st0" d="M59,453.1c0.8,0,1.5-0.7,1.5-1.5v-3c0-0.8-0.7-1.5-1.5-1.5s-1.5,0.7-1.5,1.5v3C57.5,452.4,58.2,453.1,59,453.1
		z"/>
	<path class="st0" d="M59,438.1c0.8,0,1.5-0.7,1.5-1.5v-3c0-0.8-0.7-1.5-1.5-1.5s-1.5,0.7-1.5,1.5v3C57.5,437.4,58.2,438.1,59,438.1
		z"/>
	<path class="st0" d="M59,423.1c0.8,0,1.5-0.7,1.5-1.5v-3c0-0.8-0.7-1.5-1.5-1.5s-1.5,0.7-1.5,1.5v3C57.5,422.4,58.2,423.1,59,423.1
		z"/>
	<path class="st0" d="M59,408.1c0.8,0,1.5-0.7,1.5-1.5v-3c0-0.8-0.7-1.5-1.5-1.5s-1.5,0.7-1.5,1.5v3C57.5,407.4,58.2,408.1,59,408.1
		z"/>
	<path class="st0" d="M59,393.1c0.8,0,1.5-0.7,1.5-1.5v-3c0-0.8-0.7-1.5-1.5-1.5s-1.5,0.7-1.5,1.5v3C57.5,392.4,58.2,393.1,59,393.1
		z"/>
	<path class="st0" d="M59,378.1c0.8,0,1.5-0.7,1.5-1.5v-3c0-0.8-0.7-1.5-1.5-1.5s-1.5,0.7-1.5,1.5v3C57.5,377.4,58.2,378.1,59,378.1
		z"/>
	<path class="st0" d="M59,363.1c0.8,0,1.5-0.7,1.5-1.5v-3c0-0.8-0.7-1.5-1.5-1.5s-1.5,0.7-1.5,1.5v3C57.5,362.4,58.2,363.1,59,363.1
		z"/>
	<path class="st0" d="M59,348.1c0.8,0,1.5-0.7,1.5-1.5v-3c0-0.8-0.7-1.5-1.5-1.5s-1.5,0.7-1.5,1.5v3C57.5,347.4,58.2,348.1,59,348.1
		z"/>
	<path class="st0" d="M59,333.1c0.8,0,1.5-0.7,1.5-1.5v-3c0-0.8-0.7-1.5-1.5-1.5s-1.5,0.7-1.5,1.5v3C57.5,332.4,58.2,333.1,59,333.1
		z"/>
	<path class="st0" d="M59,318.1c0.8,0,1.5-0.7,1.5-1.5v-3c0-0.8-0.7-1.5-1.5-1.5s-1.5,0.7-1.5,1.5v3C57.5,317.4,58.2,318.1,59,318.1
		z"/>
	<path class="st0" d="M59,303.1c0.8,0,1.5-0.7,1.5-1.5v-3c0-0.8-0.7-1.5-1.5-1.5s-1.5,0.7-1.5,1.5v3C57.5,302.4,58.2,303.1,59,303.1
		z"/>
	<path class="st0" d="M59,288.1c0.8,0,1.5-0.7,1.5-1.5v-3c0-0.8-0.7-1.5-1.5-1.5s-1.5,0.7-1.5,1.5v3C57.5,287.4,58.2,288.1,59,288.1
		z"/>
	<path class="st0" d="M59,273.1c0.8,0,1.5-0.7,1.5-1.5v-3c0-0.8-0.7-1.5-1.5-1.5s-1.5,0.7-1.5,1.5v3C57.5,272.4,58.2,273.1,59,273.1
		z"/>
	<path class="st0" d="M59,258.1c0.8,0,1.5-0.7,1.5-1.5v-3c0-0.8-0.7-1.5-1.5-1.5s-1.5,0.7-1.5,1.5v3C57.5,257.4,58.2,258.1,59,258.1
		z"/>
	<path class="st0" d="M59,243.1c0.8,0,1.5-0.7,1.5-1.5v-3c0-0.8-0.7-1.5-1.5-1.5s-1.5,0.7-1.5,1.5v3C57.5,242.4,58.2,243.1,59,243.1
		z"/>
	<path class="st0" d="M59,228.1c0.8,0,1.5-0.7,1.5-1.5v-3c0-0.8-0.7-1.5-1.5-1.5s-1.5,0.7-1.5,1.5v3C57.5,227.4,58.2,228.1,59,228.1
		z"/>
	<path class="st0" d="M59,213.1c0.8,0,1.5-0.7,1.5-1.5v-3c0-0.8-0.7-1.5-1.5-1.5s-1.5,0.7-1.5,1.5v3C57.5,212.4,58.2,213.1,59,213.1
		z"/>
	<path class="st0" d="M59,198.1c0.8,0,1.5-0.7,1.5-1.5v-3c0-0.8-0.7-1.5-1.5-1.5s-1.5,0.7-1.5,1.5v3C57.5,197.4,58.2,198.1,59,198.1
		z"/>
	<path class="st0" d="M59,183.1c0.8,0,1.5-0.7,1.5-1.5v-3c0-0.8-0.7-1.5-1.5-1.5s-1.5,0.7-1.5,1.5v3C57.5,182.4,58.2,183.1,59,183.1
		z"/>
	<path class="st0" d="M59,168.1c0.8,0,1.5-0.7,1.5-1.5v-3c0-0.8-0.7-1.5-1.5-1.5s-1.5,0.7-1.5,1.5v3C57.5,167.4,58.2,168.1,59,168.1
		z"/>
	<path class="st0" d="M59,153.1c0.8,0,1.5-0.7,1.5-1.5v-3c0-0.8-0.7-1.5-1.5-1.5s-1.5,0.7-1.5,1.5v3C57.5,152.4,58.2,153.1,59,153.1
		z"/>
	<path class="st0" d="M59,138.1c0.8,0,1.5-0.7,1.5-1.5v-3c0-0.8-0.7-1.5-1.5-1.5s-1.5,0.7-1.5,1.5v3C57.5,137.4,58.2,138.1,59,138.1
		z"/>
	<path class="st0" d="M59,123.1c0.8,0,1.5-0.7,1.5-1.5v-3c0-0.8-0.7-1.5-1.5-1.5s-1.5,0.7-1.5,1.5v3C57.5,122.4,58.2,123.1,59,123.1
		z"/>
	<path class="st0" d="M59,108.1c0.8,0,1.5-0.7,1.5-1.5v-3c0-0.8-0.7-1.5-1.5-1.5s-1.5,0.7-1.5,1.5v3C57.5,107.4,58.2,108.1,59,108.1
		z"/>
	<path class="st0" d="M59,93.1c0.8,0,1.5-0.7,1.5-1.5v-2c0-0.3,0-0.6,0-1c0-0.8-0.7-1.5-1.5-1.5c0,0,0,0,0,0c-0.8,0-1.5,0.7-1.5,1.5
		c0,0.3,0,0.7,0,1v2C57.5,92.4,58.2,93.1,59,93.1z"/>
	<path class="st0" d="M59.8,78.2c0.1,0,0.2,0,0.2,0c0.7,0,1.4-0.5,1.5-1.3c0.2-1,0.3-1.9,0.5-2.9c0.2-0.8-0.4-1.6-1.2-1.8
		c-0.8-0.2-1.6,0.4-1.8,1.2c-0.2,1-0.4,2-0.5,3C58.4,77.3,59,78,59.8,78.2z"/>
	<path class="st0" d="M65.2,62.7c0.3-0.9,0.7-1.8,1.1-2.8c0.3-0.8-0.1-1.6-0.8-2c-0.8-0.3-1.6,0.1-2,0.8c-0.4,0.9-0.7,1.9-1.1,2.9
		c-0.3,0.8,0.1,1.6,0.9,1.9c0.2,0.1,0.3,0.1,0.5,0.1C64.4,63.7,65,63.3,65.2,62.7z"/>
	<path class="st0" d="M71.4,49.4c0.5-0.8,1-1.7,1.5-2.5c0.4-0.7,0.2-1.6-0.5-2.1c-0.7-0.4-1.6-0.2-2.1,0.5c-0.5,0.9-1.1,1.7-1.6,2.6
		c-0.4,0.7-0.2,1.6,0.5,2.1c0.2,0.1,0.5,0.2,0.8,0.2C70.6,50.1,71.1,49.8,71.4,49.4z"/>
	<path class="st0" d="M79.8,33.2c-0.7,0.7-1.4,1.5-2,2.3c-0.5,0.6-0.5,1.6,0.1,2.1c0.3,0.2,0.6,0.4,1,0.4c0.4,0,0.8-0.2,1.1-0.5
		c0.6-0.7,1.3-1.5,2-2.2c0.6-0.6,0.5-1.6-0.1-2.1S80.4,32.6,79.8,33.2z"/>
	<path class="st0" d="M91.2,23.1c-0.8,0.6-1.6,1.2-2.4,1.9c-0.6,0.5-0.8,1.5-0.2,2.1c0.3,0.4,0.7,0.6,1.2,0.6c0.3,0,0.7-0.1,0.9-0.3
		c0.8-0.6,1.5-1.2,2.3-1.8c0.7-0.5,0.8-1.4,0.3-2.1C92.8,22.7,91.9,22.6,91.2,23.1z"/>
	<path class="st0" d="M104.3,15.2c-0.9,0.4-1.8,0.9-2.7,1.4c-0.7,0.4-1,1.3-0.6,2c0.3,0.5,0.8,0.8,1.3,0.8c0.2,0,0.5-0.1,0.7-0.2
		c0.9-0.5,1.7-0.9,2.6-1.3c0.7-0.4,1.1-1.3,0.7-2C105.9,15.2,105,14.8,104.3,15.2z"/>
	<path class="st0" d="M118.6,9.9c-1,0.3-2,0.5-2.9,0.8c-0.8,0.2-1.2,1.1-1,1.9c0.2,0.6,0.8,1.1,1.4,1.1c0.1,0,0.3,0,0.4-0.1
		c0.9-0.3,1.9-0.6,2.8-0.8c0.8-0.2,1.3-1,1.1-1.8C120.2,10.1,119.4,9.7,118.6,9.9z"/>
	<path class="st0" d="M133.6,7.3c-1,0.1-2,0.2-3,0.3c-0.8,0.1-1.4,0.8-1.3,1.7c0.1,0.8,0.7,1.3,1.5,1.3c0.1,0,0.1,0,0.2,0
		c1-0.1,1.9-0.2,2.9-0.3c0.8-0.1,1.4-0.8,1.4-1.6C135.1,7.9,134.4,7.3,133.6,7.3z"/>
</g>
<polygon id="Path-22_2_" class="st0" points="136,1 160,9 136,17 "/>
<linearGradient id="Rectangle_2_" gradientUnits="userSpaceOnUse" x1="-223.1549" y1="845.7393" x2="-222.2643" y2="844.9632" gradientTransform="matrix(121 0 0 -67 27000 57087)">
	<stop  offset="0" style="stop-color:#0497F4"/>
	<stop  offset="1" style="stop-color:#0BCBF9"/>
</linearGradient>
<path id="Rectangle_1_" class="st1" d="M33.5,419h54c18.5,0,33.5,15,33.5,33.5l0,0c0,18.5-15,33.5-33.5,33.5h-54
	C15,486,0,471,0,452.5l0,0C0,434,15,419,33.5,419z"/>
<g class="st2">
	<path class="st3" d="M26.1,447.8c-0.1,0.2-0.2,0.3-0.3,0.4c-0.1,0.1-0.3,0.1-0.4,0.1c-0.2,0-0.3-0.1-0.5-0.2
		c-0.2-0.1-0.4-0.3-0.7-0.4c-0.3-0.2-0.6-0.3-1-0.4c-0.4-0.1-0.8-0.2-1.3-0.2c-0.4,0-0.8,0.1-1.2,0.2c-0.3,0.1-0.6,0.3-0.8,0.5
		c-0.2,0.2-0.4,0.4-0.5,0.7c-0.1,0.3-0.2,0.6-0.2,0.9c0,0.4,0.1,0.7,0.3,1c0.2,0.3,0.5,0.5,0.9,0.7c0.4,0.2,0.8,0.4,1.3,0.5
		s1,0.3,1.5,0.5s1,0.4,1.5,0.6c0.5,0.2,0.9,0.5,1.3,0.9c0.4,0.3,0.7,0.8,0.9,1.3c0.2,0.5,0.3,1.1,0.3,1.8c0,0.8-0.1,1.5-0.4,2.2
		c-0.3,0.7-0.7,1.3-1.2,1.8c-0.5,0.5-1.1,0.9-1.9,1.2s-1.6,0.4-2.6,0.4c-0.6,0-1.1-0.1-1.6-0.2c-0.5-0.1-1-0.3-1.5-0.5
		c-0.5-0.2-1-0.4-1.4-0.7c-0.4-0.3-0.8-0.6-1.1-0.9l0.9-1.5c0.1-0.1,0.2-0.2,0.3-0.3s0.3-0.1,0.4-0.1c0.2,0,0.4,0.1,0.6,0.2
		s0.5,0.3,0.8,0.5c0.3,0.2,0.7,0.4,1.1,0.5c0.4,0.2,0.9,0.2,1.5,0.2c0.9,0,1.6-0.2,2.1-0.7c0.5-0.4,0.8-1.1,0.8-1.9
		c0-0.5-0.1-0.8-0.3-1.1s-0.5-0.5-0.9-0.7c-0.4-0.2-0.8-0.4-1.3-0.5c-0.5-0.1-1-0.3-1.5-0.4s-1-0.4-1.5-0.6s-0.9-0.5-1.3-0.9
		c-0.4-0.4-0.7-0.8-0.9-1.4s-0.3-1.2-0.3-2c0-0.6,0.1-1.2,0.4-1.8c0.3-0.6,0.6-1.1,1.1-1.6s1.1-0.8,1.8-1.1c0.7-0.3,1.5-0.4,2.4-0.4
		c1,0,2,0.2,2.8,0.5c0.9,0.3,1.6,0.8,2.2,1.3L26.1,447.8z"/>
	<path class="st3" d="M43.4,457.9c0.2,0,0.3,0.1,0.5,0.2l1.3,1.4c-0.7,0.9-1.6,1.5-2.6,2c-1,0.5-2.3,0.7-3.7,0.7
		c-1.3,0-2.4-0.2-3.5-0.7c-1-0.4-1.9-1.1-2.6-1.8s-1.3-1.7-1.7-2.8c-0.4-1.1-0.6-2.3-0.6-3.6c0-1.3,0.2-2.5,0.6-3.6s1-2,1.8-2.8
		s1.7-1.4,2.8-1.8c1.1-0.4,2.3-0.7,3.6-0.7c1.3,0,2.4,0.2,3.4,0.6s1.8,1,2.5,1.6l-1.1,1.5c-0.1,0.1-0.1,0.2-0.2,0.3
		c-0.1,0.1-0.2,0.1-0.4,0.1c-0.2,0-0.4-0.1-0.6-0.2c-0.2-0.1-0.4-0.3-0.7-0.5s-0.7-0.3-1.1-0.5c-0.5-0.1-1-0.2-1.7-0.2
		c-0.8,0-1.6,0.1-2.2,0.4s-1.3,0.7-1.8,1.2c-0.5,0.5-0.9,1.2-1.2,1.9c-0.3,0.8-0.4,1.6-0.4,2.5c0,1,0.1,1.8,0.4,2.6
		c0.3,0.8,0.6,1.4,1.1,1.9c0.5,0.5,1,0.9,1.7,1.2c0.6,0.3,1.3,0.4,2.1,0.4c0.4,0,0.8,0,1.2-0.1s0.7-0.1,1-0.2
		c0.3-0.1,0.6-0.2,0.9-0.4s0.5-0.4,0.8-0.6c0.1-0.1,0.2-0.1,0.3-0.2C43.2,457.9,43.3,457.9,43.4,457.9z"/>
	<path class="st3" d="M52.7,455.2v6.8h-3.2v-17.4h5.3c1.2,0,2.2,0.1,3,0.4c0.8,0.2,1.5,0.6,2.1,1c0.5,0.4,0.9,1,1.2,1.6
		s0.4,1.3,0.4,2c0,0.6-0.1,1.1-0.3,1.7c-0.2,0.5-0.4,1-0.7,1.4s-0.7,0.8-1.2,1.1s-1,0.6-1.6,0.8c0.4,0.2,0.8,0.6,1.1,1L63,462h-2.9
		c-0.3,0-0.5-0.1-0.7-0.2c-0.2-0.1-0.4-0.3-0.5-0.5l-3.6-5.6c-0.1-0.2-0.3-0.4-0.5-0.4c-0.2-0.1-0.4-0.1-0.7-0.1H52.7z M52.7,452.9
		h2c0.6,0,1.1-0.1,1.6-0.2c0.5-0.2,0.8-0.4,1.1-0.6c0.3-0.3,0.5-0.6,0.7-1c0.1-0.4,0.2-0.8,0.2-1.2c0-0.9-0.3-1.6-0.9-2
		c-0.6-0.5-1.5-0.7-2.7-0.7h-2.1V452.9z"/>
	<path class="st3" d="M73.2,459.4c0.6,0,1.2-0.1,1.7-0.3c0.5-0.2,0.9-0.5,1.2-0.9c0.3-0.4,0.6-0.8,0.8-1.4s0.3-1.1,0.3-1.8v-10.4
		h3.2V455c0,1-0.2,2-0.5,2.9s-0.8,1.6-1.4,2.3s-1.4,1.1-2.3,1.5c-0.9,0.4-1.9,0.5-3,0.5s-2.1-0.2-3-0.5c-0.9-0.4-1.6-0.9-2.3-1.5
		c-0.6-0.6-1.1-1.4-1.4-2.3S66,456.1,66,455v-10.4h3.2V455c0,0.7,0.1,1.3,0.3,1.8c0.2,0.5,0.4,1,0.8,1.4s0.8,0.7,1.2,0.9
		S72.6,459.4,73.2,459.4z"/>
</g>
<g class="st2">
	<path class="st3" d="M94.6,455.6c0.1,0.3,0.2,0.6,0.3,0.8c0.1-0.3,0.2-0.6,0.3-0.9c0.1-0.3,0.2-0.5,0.4-0.8l5.1-9.6
		c0.1-0.1,0.1-0.2,0.2-0.3c0.1-0.1,0.1-0.1,0.2-0.2c0.1,0,0.2-0.1,0.3-0.1c0.1,0,0.2,0,0.4,0h2.4V462h-2.8v-11.2c0-0.2,0-0.4,0-0.7
		c0-0.2,0-0.5,0.1-0.8l-5.2,9.8c-0.1,0.2-0.3,0.4-0.5,0.5c-0.2,0.1-0.4,0.2-0.7,0.2h-0.4c-0.3,0-0.5-0.1-0.7-0.2
		c-0.2-0.1-0.3-0.3-0.5-0.5l-5.3-9.9c0,0.3,0.1,0.5,0.1,0.8c0,0.3,0,0.5,0,0.7V462h-2.8v-17.4h2.4c0.1,0,0.3,0,0.4,0
		c0.1,0,0.2,0,0.3,0.1c0.1,0,0.2,0.1,0.2,0.2c0.1,0.1,0.1,0.2,0.2,0.3l5.2,9.6C94.3,455.1,94.5,455.3,94.6,455.6z"/>
</g>
</svg>
