<?xml version="1.0" encoding="utf-8"?>
<!-- Generator: Adobe Illustrator 19.2.0, SVG Export Plug-In . SVG Version: 6.00 Build 0)  -->
<svg version="1.1" id="Layer_1" xmlns="http://www.w3.org/2000/svg" xmlns:xlink="http://www.w3.org/1999/xlink" x="0px" y="0px"
	 width="101px" height="847px" viewBox="0 0 101 847" style="enable-background:new 0 0 101 847;" xml:space="preserve">
<style type="text/css">
	.st0{fill:#0497F4;}
	.st1{fill:url(#Rectangle_3_);}
	.st2{enable-background:new    ;}
	.st3{fill:#FFFFFF;}
	.st4{fill:url(#Rectangle_4_);}
</style>
<title>Group 3</title>
<desc>Created with Sketch.</desc>
<g>
	<path class="st0" d="M85.8,844.9l-2.6-1.6c-0.7-0.4-1.6-0.2-2.1,0.5c-0.4,0.7-0.2,1.6,0.5,2.1l2.6,1.6c0.2,0.2,0.5,0.2,0.8,0.2
		c0.5,0,1-0.3,1.3-0.7C86.7,846.2,86.5,845.3,85.8,844.9z"/>
	<path class="st0" d="M73,837l-1.8-1.1c-0.3-0.2-0.5-0.3-0.8-0.5c-0.7-0.4-1.6-0.2-2.1,0.5c-0.4,0.7-0.2,1.6,0.5,2.1
		c0.3,0.2,0.5,0.3,0.8,0.5l1.8,1.1c0.2,0.2,0.5,0.2,0.8,0.2c0.5,0,1-0.3,1.3-0.7C73.9,838.4,73.7,837.4,73,837z"/>
	<path class="st0" d="M60.9,828.5c-0.8-0.6-1.5-1.3-2.3-1.9c-0.6-0.5-1.6-0.5-2.1,0.2c-0.5,0.6-0.5,1.6,0.2,2.1
		c0.8,0.7,1.5,1.3,2.3,2c0.3,0.2,0.6,0.3,0.9,0.3c0.4,0,0.9-0.2,1.2-0.6C61.6,830,61.5,829.1,60.9,828.5z"/>
	<path class="st0" d="M48.2,816.2c-0.5-0.6-1.5-0.7-2.1-0.2c-0.6,0.5-0.7,1.5-0.2,2.1c0.7,0.8,1.3,1.5,2,2.3
		c0.3,0.3,0.7,0.5,1.1,0.5c0.4,0,0.7-0.1,1-0.4c0.6-0.6,0.7-1.5,0.1-2.1C49.5,817.7,48.8,816.9,48.2,816.2z"/>
	<path class="st0" d="M39.5,804.3c-0.4-0.7-1.4-0.9-2.1-0.5c-0.7,0.4-0.9,1.4-0.5,2.1c0.5,0.9,1.1,1.7,1.7,2.6
		c0.3,0.4,0.8,0.7,1.2,0.7c0.3,0,0.6-0.1,0.8-0.3c0.7-0.5,0.9-1.4,0.4-2.1C40.5,806,40,805.1,39.5,804.3z"/>
	<path class="st0" d="M32.6,791.2c-0.3-0.8-1.2-1.1-2-0.8c-0.8,0.3-1.1,1.2-0.8,2c0.4,0.9,0.8,1.9,1.3,2.8c0.3,0.5,0.8,0.9,1.4,0.9
		c0.2,0,0.4,0,0.6-0.1c0.8-0.4,1.1-1.2,0.7-2C33.4,793,33,792.1,32.6,791.2z"/>
	<path class="st0" d="M27.8,777.3c-0.2-0.8-1-1.3-1.8-1.1c-0.8,0.2-1.3,1-1.1,1.8c0.3,1,0.5,2,0.8,2.9c0.2,0.7,0.8,1.1,1.4,1.1
		c0.1,0,0.3,0,0.4-0.1c0.8-0.2,1.2-1.1,1-1.9C28.3,779.2,28,778.2,27.8,777.3z"/>
	<path class="st0" d="M25.4,765.7c-0.1-1-0.3-1.9-0.4-2.9c-0.1-0.8-0.8-1.4-1.7-1.3c-0.8,0.1-1.4,0.8-1.3,1.7c0.1,1,0.2,2,0.4,3
		c0.1,0.8,0.7,1.3,1.5,1.3c0.1,0,0.1,0,0.2,0C25,767.3,25.6,766.5,25.4,765.7z"/>
	<path class="st0" d="M24.5,751v-3c0-0.8-0.7-1.5-1.5-1.5s-1.5,0.7-1.5,1.5v3c0,0.8,0.7,1.5,1.5,1.5S24.5,751.8,24.5,751z"/>
	<path class="st0" d="M23,737.5c0.8,0,1.5-0.7,1.5-1.5v-3c0-0.8-0.7-1.5-1.5-1.5s-1.5,0.7-1.5,1.5v3C21.5,736.8,22.2,737.5,23,737.5
		z"/>
	<path class="st0" d="M23,722.5c0.8,0,1.5-0.7,1.5-1.5v-3c0-0.8-0.7-1.5-1.5-1.5s-1.5,0.7-1.5,1.5v3C21.5,721.8,22.2,722.5,23,722.5
		z"/>
	<path class="st0" d="M23,707.5c0.8,0,1.5-0.7,1.5-1.5v-3c0-0.8-0.7-1.5-1.5-1.5s-1.5,0.7-1.5,1.5v3C21.5,706.8,22.2,707.5,23,707.5
		z"/>
	<path class="st0" d="M23,692.5c0.8,0,1.5-0.7,1.5-1.5v-3c0-0.8-0.7-1.5-1.5-1.5s-1.5,0.7-1.5,1.5v3C21.5,691.8,22.2,692.5,23,692.5
		z"/>
	<path class="st0" d="M23,677.5c0.8,0,1.5-0.7,1.5-1.5v-3c0-0.8-0.7-1.5-1.5-1.5s-1.5,0.7-1.5,1.5v3C21.5,676.8,22.2,677.5,23,677.5
		z"/>
	<path class="st0" d="M23,662.5c0.8,0,1.5-0.7,1.5-1.5v-3c0-0.8-0.7-1.5-1.5-1.5s-1.5,0.7-1.5,1.5v3C21.5,661.8,22.2,662.5,23,662.5
		z"/>
	<path class="st0" d="M23,647.5c0.8,0,1.5-0.7,1.5-1.5v-3c0-0.8-0.7-1.5-1.5-1.5s-1.5,0.7-1.5,1.5v3C21.5,646.8,22.2,647.5,23,647.5
		z"/>
	<path class="st0" d="M23,632.5c0.8,0,1.5-0.7,1.5-1.5v-3c0-0.8-0.7-1.5-1.5-1.5s-1.5,0.7-1.5,1.5v3C21.5,631.8,22.2,632.5,23,632.5
		z"/>
	<path class="st0" d="M23,617.5c0.8,0,1.5-0.7,1.5-1.5v-3c0-0.8-0.7-1.5-1.5-1.5s-1.5,0.7-1.5,1.5v3C21.5,616.8,22.2,617.5,23,617.5
		z"/>
	<path class="st0" d="M23,602.5c0.8,0,1.5-0.7,1.5-1.5v-3c0-0.8-0.7-1.5-1.5-1.5s-1.5,0.7-1.5,1.5v3C21.5,601.8,22.2,602.5,23,602.5
		z"/>
	<path class="st0" d="M23,587.5c0.8,0,1.5-0.7,1.5-1.5v-3c0-0.8-0.7-1.5-1.5-1.5s-1.5,0.7-1.5,1.5v3C21.5,586.8,22.2,587.5,23,587.5
		z"/>
	<path class="st0" d="M23,572.5c0.8,0,1.5-0.7,1.5-1.5v-3c0-0.8-0.7-1.5-1.5-1.5s-1.5,0.7-1.5,1.5v3C21.5,571.8,22.2,572.5,23,572.5
		z"/>
	<path class="st0" d="M23,557.5c0.8,0,1.5-0.7,1.5-1.5v-3c0-0.8-0.7-1.5-1.5-1.5s-1.5,0.7-1.5,1.5v3C21.5,556.8,22.2,557.5,23,557.5
		z"/>
	<path class="st0" d="M23,542.5c0.8,0,1.5-0.7,1.5-1.5v-3c0-0.8-0.7-1.5-1.5-1.5s-1.5,0.7-1.5,1.5v3C21.5,541.8,22.2,542.5,23,542.5
		z"/>
	<path class="st0" d="M23,527.5c0.8,0,1.5-0.7,1.5-1.5v-3c0-0.8-0.7-1.5-1.5-1.5s-1.5,0.7-1.5,1.5v3C21.5,526.8,22.2,527.5,23,527.5
		z"/>
	<path class="st0" d="M23,512.5c0.8,0,1.5-0.7,1.5-1.5v-3c0-0.8-0.7-1.5-1.5-1.5s-1.5,0.7-1.5,1.5v3C21.5,511.8,22.2,512.5,23,512.5
		z"/>
	<path class="st0" d="M23,497.5c0.8,0,1.5-0.7,1.5-1.5v-3c0-0.8-0.7-1.5-1.5-1.5s-1.5,0.7-1.5,1.5v3C21.5,496.8,22.2,497.5,23,497.5
		z"/>
	<path class="st0" d="M23,482.5c0.8,0,1.5-0.7,1.5-1.5v-3c0-0.8-0.7-1.5-1.5-1.5s-1.5,0.7-1.5,1.5v3C21.5,481.8,22.2,482.5,23,482.5
		z"/>
	<path class="st0" d="M23,467.5c0.8,0,1.5-0.7,1.5-1.5v-3c0-0.8-0.7-1.5-1.5-1.5s-1.5,0.7-1.5,1.5v3C21.5,466.8,22.2,467.5,23,467.5
		z"/>
	<path class="st0" d="M23,452.5c0.8,0,1.5-0.7,1.5-1.5v-3c0-0.8-0.7-1.5-1.5-1.5s-1.5,0.7-1.5,1.5v3C21.5,451.8,22.2,452.5,23,452.5
		z"/>
	<path class="st0" d="M23,437.5c0.8,0,1.5-0.7,1.5-1.5v-3c0-0.8-0.7-1.5-1.5-1.5s-1.5,0.7-1.5,1.5v3C21.5,436.8,22.2,437.5,23,437.5
		z"/>
	<path class="st0" d="M23,422.5c0.8,0,1.5-0.7,1.5-1.5v-3c0-0.8-0.7-1.5-1.5-1.5s-1.5,0.7-1.5,1.5v3C21.5,421.8,22.2,422.5,23,422.5
		z"/>
	<path class="st0" d="M23,407.5c0.8,0,1.5-0.7,1.5-1.5v-3c0-0.8-0.7-1.5-1.5-1.5s-1.5,0.7-1.5,1.5v3C21.5,406.8,22.2,407.5,23,407.5
		z"/>
	<path class="st0" d="M23,392.5c0.8,0,1.5-0.7,1.5-1.5v-3c0-0.8-0.7-1.5-1.5-1.5s-1.5,0.7-1.5,1.5v3C21.5,391.8,22.2,392.5,23,392.5
		z"/>
	<path class="st0" d="M23,377.5c0.8,0,1.5-0.7,1.5-1.5v-3c0-0.8-0.7-1.5-1.5-1.5s-1.5,0.7-1.5,1.5v3C21.5,376.8,22.2,377.5,23,377.5
		z"/>
	<path class="st0" d="M23,362.5c0.8,0,1.5-0.7,1.5-1.5v-3c0-0.8-0.7-1.5-1.5-1.5s-1.5,0.7-1.5,1.5v3C21.5,361.8,22.2,362.5,23,362.5
		z"/>
	<path class="st0" d="M23,347.5c0.8,0,1.5-0.7,1.5-1.5v-3c0-0.8-0.7-1.5-1.5-1.5s-1.5,0.7-1.5,1.5v3C21.5,346.8,22.2,347.5,23,347.5
		z"/>
	<path class="st0" d="M23,332.5c0.8,0,1.5-0.7,1.5-1.5v-3c0-0.8-0.7-1.5-1.5-1.5s-1.5,0.7-1.5,1.5v3C21.5,331.8,22.2,332.5,23,332.5
		z"/>
	<path class="st0" d="M23,317.5c0.8,0,1.5-0.7,1.5-1.5v-3c0-0.8-0.7-1.5-1.5-1.5s-1.5,0.7-1.5,1.5v3C21.5,316.8,22.2,317.5,23,317.5
		z"/>
	<path class="st0" d="M23,302.5c0.8,0,1.5-0.7,1.5-1.5v-3c0-0.8-0.7-1.5-1.5-1.5s-1.5,0.7-1.5,1.5v3C21.5,301.8,22.2,302.5,23,302.5
		z"/>
	<path class="st0" d="M23,287.5c0.8,0,1.5-0.7,1.5-1.5v-3c0-0.8-0.7-1.5-1.5-1.5s-1.5,0.7-1.5,1.5v3C21.5,286.8,22.2,287.5,23,287.5
		z"/>
	<path class="st0" d="M23,272.5c0.8,0,1.5-0.7,1.5-1.5v-3c0-0.8-0.7-1.5-1.5-1.5s-1.5,0.7-1.5,1.5v3C21.5,271.8,22.2,272.5,23,272.5
		z"/>
	<path class="st0" d="M23,257.5c0.8,0,1.5-0.7,1.5-1.5v-3c0-0.8-0.7-1.5-1.5-1.5s-1.5,0.7-1.5,1.5v3C21.5,256.8,22.2,257.5,23,257.5
		z"/>
	<path class="st0" d="M23,242.5c0.8,0,1.5-0.7,1.5-1.5v-3c0-0.8-0.7-1.5-1.5-1.5s-1.5,0.7-1.5,1.5v3C21.5,241.8,22.2,242.5,23,242.5
		z"/>
	<path class="st0" d="M23,227.5c0.8,0,1.5-0.7,1.5-1.5v-3c0-0.8-0.7-1.5-1.5-1.5s-1.5,0.7-1.5,1.5v3C21.5,226.8,22.2,227.5,23,227.5
		z"/>
	<path class="st0" d="M23,212.5c0.8,0,1.5-0.7,1.5-1.5v-3c0-0.8-0.7-1.5-1.5-1.5s-1.5,0.7-1.5,1.5v3C21.5,211.8,22.2,212.5,23,212.5
		z"/>
	<path class="st0" d="M23,197.5c0.8,0,1.5-0.7,1.5-1.5v-3c0-0.8-0.7-1.5-1.5-1.5s-1.5,0.7-1.5,1.5v3C21.5,196.8,22.2,197.5,23,197.5
		z"/>
	<path class="st0" d="M23,182.5c0.8,0,1.5-0.7,1.5-1.5v-3c0-0.8-0.7-1.5-1.5-1.5s-1.5,0.7-1.5,1.5v3C21.5,181.8,22.2,182.5,23,182.5
		z"/>
	<path class="st0" d="M23,167.5c0.8,0,1.5-0.7,1.5-1.5v-3c0-0.8-0.7-1.5-1.5-1.5s-1.5,0.7-1.5,1.5v3C21.5,166.8,22.2,167.5,23,167.5
		z"/>
	<path class="st0" d="M23,152.5c0.8,0,1.5-0.7,1.5-1.5v-3c0-0.8-0.7-1.5-1.5-1.5s-1.5,0.7-1.5,1.5v3C21.5,151.8,22.2,152.5,23,152.5
		z"/>
	<path class="st0" d="M23,137.5c0.8,0,1.5-0.7,1.5-1.5v-3c0-0.8-0.7-1.5-1.5-1.5s-1.5,0.7-1.5,1.5v3C21.5,136.8,22.2,137.5,23,137.5
		z"/>
	<path class="st0" d="M23,122.5c0.8,0,1.5-0.7,1.5-1.5v-3c0-0.8-0.7-1.5-1.5-1.5s-1.5,0.7-1.5,1.5v3C21.5,121.8,22.2,122.5,23,122.5
		z"/>
	<path class="st0" d="M23,107.5c0.8,0,1.5-0.7,1.5-1.5v-3c0-0.8-0.7-1.5-1.5-1.5s-1.5,0.7-1.5,1.5v3C21.5,106.8,22.2,107.5,23,107.5
		z"/>
	<path class="st0" d="M23,92.5c0.8,0,1.5-0.7,1.5-1.5v-3c0-0.8-0.7-1.5-1.5-1.5s-1.5,0.7-1.5,1.5v3C21.5,91.8,22.2,92.5,23,92.5z"/>
	<path class="st0" d="M23,77.5c0.8,0,1.5-0.7,1.5-1.5v-3c0-0.8-0.7-1.5-1.5-1.5s-1.5,0.7-1.5,1.5v3C21.5,76.8,22.2,77.5,23,77.5z"/>
	<path class="st0" d="M23.3,62.5c0.1,0,0.1,0,0.2,0c0.7,0,1.4-0.6,1.5-1.3c0.1-1,0.3-1.9,0.4-2.9c0.1-0.8-0.4-1.6-1.2-1.7
		c-0.8-0.1-1.6,0.4-1.7,1.2c-0.2,1-0.3,2-0.5,3C21.9,61.6,22.5,62.4,23.3,62.5z"/>
	<path class="st0" d="M28.9,42.3c-0.8-0.3-1.6,0-2,0.8c-0.4,0.9-0.8,1.9-1.2,2.8c-0.3,0.8,0.1,1.6,0.9,1.9c0.2,0.1,0.4,0.1,0.5,0.1
		c0.6,0,1.2-0.4,1.4-1c0.4-0.9,0.7-1.8,1.1-2.7C30,43.6,29.7,42.7,28.9,42.3z"/>
	<path class="st0" d="M36.9,29.7c-0.7-0.5-1.6-0.4-2.1,0.3c-0.6,0.8-1.3,1.6-1.8,2.5c-0.5,0.7-0.3,1.6,0.4,2.1
		c0.3,0.2,0.6,0.3,0.9,0.3c0.5,0,0.9-0.2,1.2-0.6c0.6-0.8,1.1-1.6,1.8-2.3C37.7,31.2,37.6,30.2,36.9,29.7z"/>
	<path class="st0" d="M47.8,19.4c-0.5-0.7-1.5-0.8-2.1-0.3c-0.8,0.6-1.6,1.3-2.4,1.9c-0.6,0.5-0.7,1.5-0.2,2.1
		c0.3,0.3,0.7,0.5,1.1,0.5c0.3,0,0.7-0.1,1-0.4c0.7-0.6,1.5-1.2,2.3-1.9C48.2,21,48.3,20.1,47.8,19.4z"/>
	<path class="st0" d="M57.4,15.3c0.9-0.4,1.8-0.9,2.6-1.2c0.8-0.3,1.1-1.2,0.8-2c-0.3-0.8-1.2-1.1-2-0.8c-0.9,0.4-1.9,0.8-2.8,1.3
		c-0.7,0.4-1,1.3-0.7,2c0.3,0.5,0.8,0.8,1.3,0.8C57,15.5,57.2,15.4,57.4,15.3z"/>
	<path class="st0" d="M73.6,6.9c-1,0.2-2,0.4-3,0.6c-0.8,0.2-1.3,1-1.1,1.8c0.2,0.7,0.8,1.2,1.5,1.2c0.1,0,0.2,0,0.3,0
		c0.9-0.2,1.9-0.4,2.9-0.6c0.8-0.1,1.4-0.9,1.2-1.7C75.1,7.4,74.4,6.8,73.6,6.9z"/>
</g>
<linearGradient id="Rectangle_3_" gradientUnits="userSpaceOnUse" x1="-254.7287" y1="814.5227" x2="-253.838" y2="813.7466" gradientTransform="matrix(6.000770e-15 -98 -47 -2.877920e-15 38285 -24619)">
	<stop  offset="0" style="stop-color:#0497F4"/>
	<stop  offset="1" style="stop-color:#0BCBF9"/>
</linearGradient>
<path id="Rectangle_1_" class="st1" d="M0,319.5v-51c0-13,10.5-23.5,23.5-23.5l0,0c13,0,23.5,10.5,23.5,23.5v51
	c0,13-10.5,23.5-23.5,23.5l0,0C10.5,343,0,332.5,0,319.5z"/>
<g class="st2">
	<path class="st3" d="M19.7,323.3c0.1,0.1,0.2,0.2,0.3,0.3c0.1,0.1,0.1,0.2,0.1,0.3s-0.1,0.3-0.2,0.4c-0.1,0.2-0.2,0.4-0.3,0.6
		c-0.1,0.2-0.2,0.5-0.3,0.8c-0.1,0.3-0.2,0.7-0.2,1.1c0,0.4,0,0.7,0.1,1c0.1,0.3,0.2,0.5,0.4,0.7s0.4,0.3,0.6,0.4
		c0.2,0.1,0.5,0.1,0.7,0.1c0.3,0,0.6-0.1,0.9-0.3s0.4-0.4,0.6-0.8s0.3-0.7,0.4-1.1c0.1-0.4,0.3-0.8,0.4-1.2s0.3-0.8,0.5-1.2
		c0.2-0.4,0.4-0.8,0.7-1.1s0.6-0.6,1.1-0.8c0.4-0.2,0.9-0.3,1.5-0.3c0.7,0,1.3,0.1,1.8,0.3c0.6,0.2,1.1,0.5,1.5,1
		c0.4,0.4,0.8,1,1,1.6c0.2,0.6,0.4,1.3,0.4,2.1c0,0.5,0,0.9-0.1,1.4c-0.1,0.4-0.2,0.9-0.4,1.3c-0.2,0.4-0.4,0.8-0.6,1.1
		s-0.5,0.7-0.8,1l-1.3-0.8c-0.1-0.1-0.2-0.2-0.2-0.3c-0.1-0.1-0.1-0.2-0.1-0.3c0-0.2,0.1-0.3,0.2-0.5s0.3-0.4,0.5-0.7
		c0.2-0.3,0.3-0.6,0.5-0.9c0.1-0.4,0.2-0.8,0.2-1.3c0-0.8-0.2-1.4-0.5-1.8c-0.4-0.4-0.9-0.6-1.6-0.6c-0.4,0-0.7,0.1-0.9,0.3
		s-0.4,0.4-0.6,0.8c-0.2,0.3-0.3,0.7-0.4,1.1c-0.1,0.4-0.2,0.8-0.4,1.2c-0.1,0.4-0.3,0.8-0.5,1.2c-0.2,0.4-0.4,0.8-0.7,1.1
		c-0.3,0.3-0.7,0.6-1.1,0.8c-0.5,0.2-1,0.3-1.7,0.3c-0.5,0-1-0.1-1.5-0.3s-0.9-0.5-1.3-0.9s-0.7-0.9-0.9-1.5c-0.2-0.6-0.4-1.3-0.4-2
		c0-0.9,0.1-1.6,0.4-2.4c0.3-0.7,0.6-1.3,1.1-1.8L19.7,323.3z"/>
	<path class="st3" d="M28.1,308.9c0-0.1,0.1-0.3,0.2-0.4l1.2-1.1c0.7,0.6,1.3,1.3,1.7,2.2c0.4,0.9,0.6,1.9,0.6,3.1
		c0,1.1-0.2,2-0.5,2.9c-0.4,0.9-0.9,1.6-1.5,2.2c-0.7,0.6-1.4,1.1-2.3,1.4c-0.9,0.3-1.9,0.5-3,0.5c-1.1,0-2.1-0.2-3-0.5
		c-0.9-0.4-1.7-0.9-2.3-1.5c-0.7-0.7-1.2-1.4-1.5-2.3c-0.4-0.9-0.5-1.9-0.5-3c0-1.1,0.2-2,0.5-2.8c0.3-0.8,0.8-1.5,1.4-2.1l1.2,0.9
		c0.1,0.1,0.2,0.1,0.2,0.2c0.1,0.1,0.1,0.2,0.1,0.3c0,0.2-0.1,0.3-0.2,0.5s-0.2,0.4-0.4,0.6c-0.1,0.2-0.3,0.6-0.4,0.9
		c-0.1,0.4-0.2,0.9-0.2,1.4c0,0.7,0.1,1.3,0.4,1.9c0.2,0.6,0.6,1.1,1,1.5c0.4,0.4,1,0.7,1.6,1c0.6,0.2,1.3,0.3,2.1,0.3
		c0.8,0,1.5-0.1,2.2-0.3c0.6-0.2,1.2-0.5,1.6-0.9s0.8-0.9,1-1.4c0.2-0.5,0.3-1.1,0.3-1.7c0-0.4,0-0.7-0.1-1c0-0.3-0.1-0.6-0.2-0.8
		s-0.2-0.5-0.3-0.7c-0.1-0.2-0.3-0.4-0.5-0.7c-0.1-0.1-0.1-0.1-0.1-0.2C28.1,309,28.1,309,28.1,308.9z"/>
	<path class="st3" d="M25.8,301.1h5.7v2.7H17v-4.4c0-1,0.1-1.8,0.3-2.5c0.2-0.7,0.5-1.3,0.9-1.7c0.4-0.4,0.8-0.8,1.3-1
		c0.5-0.2,1.1-0.3,1.7-0.3c0.5,0,0.9,0.1,1.4,0.2s0.8,0.4,1.2,0.6s0.7,0.6,0.9,1c0.3,0.4,0.5,0.8,0.6,1.4c0.2-0.3,0.5-0.6,0.8-0.9
		l5.3-3.6v2.4c0,0.2,0,0.4-0.1,0.6c-0.1,0.2-0.2,0.3-0.4,0.4l-4.6,3c-0.2,0.1-0.3,0.2-0.4,0.4c-0.1,0.1-0.1,0.3-0.1,0.6V301.1z
		 M23.9,301.1v-1.7c0-0.5-0.1-0.9-0.2-1.3c-0.1-0.4-0.3-0.7-0.5-0.9c-0.2-0.2-0.5-0.4-0.8-0.5c-0.3-0.1-0.6-0.2-1-0.2
		c-0.7,0-1.3,0.2-1.7,0.7s-0.6,1.2-0.6,2.2v1.7H23.9z"/>
	<path class="st3" d="M29.3,284c0-0.5-0.1-1-0.3-1.4c-0.2-0.4-0.4-0.8-0.7-1s-0.7-0.5-1.1-0.7c-0.4-0.1-0.9-0.2-1.5-0.2H17V278h8.7
		c0.9,0,1.7,0.1,2.4,0.4c0.7,0.3,1.4,0.7,1.9,1.2c0.5,0.5,0.9,1.1,1.2,1.9c0.3,0.7,0.4,1.6,0.4,2.5c0,0.9-0.1,1.8-0.4,2.5
		c-0.3,0.7-0.7,1.4-1.2,1.9c-0.5,0.5-1.2,0.9-1.9,1.2c-0.7,0.3-1.5,0.4-2.4,0.4H17v-2.7h8.7c0.6,0,1.1-0.1,1.5-0.2
		c0.4-0.1,0.8-0.4,1.1-0.6c0.3-0.3,0.6-0.6,0.7-1C29.2,285,29.3,284.5,29.3,284z"/>
</g>
<g class="st2">
	<path class="st3" d="M26.2,266.2c0.2-0.1,0.5-0.2,0.7-0.3c-0.2-0.1-0.5-0.2-0.7-0.3s-0.5-0.2-0.7-0.3l-8-4.3
		c-0.1-0.1-0.2-0.1-0.2-0.2c-0.1-0.1-0.1-0.1-0.1-0.2c0-0.1,0-0.1,0-0.2c0-0.1,0-0.2,0-0.3v-2h14.5v2.4h-9.3c-0.2,0-0.4,0-0.6,0
		c-0.2,0-0.4,0-0.6,0l8.2,4.4c0.2,0.1,0.3,0.2,0.4,0.4c0.1,0.2,0.2,0.3,0.2,0.6v0.4c0,0.2-0.1,0.4-0.2,0.6c-0.1,0.2-0.2,0.3-0.4,0.4
		l-8.2,4.4c0.2,0,0.4,0,0.6-0.1c0.2,0,0.4,0,0.6,0h9.3v2.4H17v-2c0-0.1,0-0.2,0-0.3c0-0.1,0-0.2,0-0.2c0-0.1,0.1-0.1,0.1-0.2
		c0.1-0.1,0.1-0.1,0.2-0.2l8-4.3C25.7,266.4,25.9,266.3,26.2,266.2z"/>
</g>
<linearGradient id="Rectangle_4_" gradientUnits="userSpaceOnUse" x1="-254.7287" y1="814.5227" x2="-253.838" y2="813.7466" gradientTransform="matrix(6.000770e-15 -98 -47 -2.877920e-15 38285 -24284)">
	<stop  offset="0" style="stop-color:#0497F4"/>
	<stop  offset="1" style="stop-color:#0BCBF9"/>
</linearGradient>
<path id="Rectangle_2_" class="st4" d="M0,654.5v-51c0-13,10.5-23.5,23.5-23.5l0,0c13,0,23.5,10.5,23.5,23.5v51
	c0,13-10.5,23.5-23.5,23.5l0,0C10.5,678,0,667.5,0,654.5z"/>
<g class="st2">
	<path class="st3" d="M19.7,658.3c0.1,0.1,0.2,0.2,0.3,0.3c0.1,0.1,0.1,0.2,0.1,0.3c0,0.1-0.1,0.3-0.2,0.4c-0.1,0.2-0.2,0.4-0.3,0.6
		c-0.1,0.2-0.2,0.5-0.3,0.8c-0.1,0.3-0.2,0.7-0.2,1.1c0,0.4,0,0.7,0.1,1c0.1,0.3,0.2,0.5,0.4,0.7c0.2,0.2,0.4,0.3,0.6,0.4
		s0.5,0.1,0.7,0.1c0.3,0,0.6-0.1,0.9-0.3s0.4-0.4,0.6-0.8s0.3-0.7,0.4-1.1s0.3-0.8,0.4-1.2s0.3-0.8,0.5-1.2c0.2-0.4,0.4-0.8,0.7-1.1
		s0.6-0.6,1.1-0.8c0.4-0.2,0.9-0.3,1.5-0.3c0.7,0,1.3,0.1,1.8,0.3c0.6,0.2,1.1,0.5,1.5,1c0.4,0.4,0.8,1,1,1.6
		c0.2,0.6,0.4,1.3,0.4,2.1c0,0.5,0,0.9-0.1,1.4c-0.1,0.4-0.2,0.9-0.4,1.3c-0.2,0.4-0.4,0.8-0.6,1.2c-0.2,0.4-0.5,0.7-0.8,1l-1.3-0.8
		c-0.1-0.1-0.2-0.2-0.2-0.3c-0.1-0.1-0.1-0.2-0.1-0.3c0-0.2,0.1-0.3,0.2-0.5s0.3-0.4,0.5-0.7c0.2-0.3,0.3-0.6,0.5-0.9
		c0.1-0.4,0.2-0.8,0.2-1.3c0-0.8-0.2-1.4-0.5-1.8c-0.4-0.4-0.9-0.6-1.6-0.6c-0.4,0-0.7,0.1-0.9,0.3c-0.2,0.2-0.4,0.4-0.6,0.8
		c-0.2,0.3-0.3,0.7-0.4,1.1s-0.2,0.8-0.4,1.2c-0.1,0.4-0.3,0.8-0.5,1.2c-0.2,0.4-0.4,0.8-0.7,1.1c-0.3,0.3-0.7,0.6-1.1,0.8
		c-0.5,0.2-1,0.3-1.7,0.3c-0.5,0-1-0.1-1.5-0.3s-0.9-0.5-1.3-0.9s-0.7-0.9-0.9-1.5c-0.2-0.6-0.4-1.3-0.4-2c0-0.9,0.1-1.6,0.4-2.4
		c0.3-0.7,0.6-1.3,1.1-1.8L19.7,658.3z"/>
	<path class="st3" d="M28.1,643.9c0-0.1,0.1-0.3,0.2-0.4l1.2-1.1c0.7,0.6,1.3,1.3,1.7,2.2c0.4,0.9,0.6,1.9,0.6,3.1
		c0,1.1-0.2,2-0.5,2.9c-0.4,0.9-0.9,1.6-1.5,2.2c-0.7,0.6-1.4,1.1-2.3,1.4c-0.9,0.3-1.9,0.5-3,0.5c-1.1,0-2.1-0.2-3-0.5
		c-0.9-0.4-1.7-0.9-2.3-1.5c-0.7-0.7-1.2-1.4-1.5-2.3c-0.4-0.9-0.5-1.9-0.5-3c0-1.1,0.2-2,0.5-2.8c0.3-0.8,0.8-1.5,1.4-2.1l1.2,0.9
		c0.1,0.1,0.2,0.1,0.2,0.2c0.1,0.1,0.1,0.2,0.1,0.3c0,0.2-0.1,0.3-0.2,0.5s-0.2,0.4-0.4,0.6c-0.1,0.2-0.3,0.6-0.4,0.9
		c-0.1,0.4-0.2,0.9-0.2,1.4c0,0.7,0.1,1.3,0.4,1.9c0.2,0.6,0.6,1.1,1,1.5c0.4,0.4,1,0.7,1.6,1c0.6,0.2,1.3,0.3,2.1,0.3
		c0.8,0,1.5-0.1,2.2-0.3c0.6-0.2,1.2-0.5,1.6-0.9s0.8-0.9,1-1.4c0.2-0.5,0.3-1.1,0.3-1.7c0-0.4,0-0.7-0.1-1c0-0.3-0.1-0.6-0.2-0.8
		s-0.2-0.5-0.3-0.7c-0.1-0.2-0.3-0.4-0.5-0.7c-0.1-0.1-0.1-0.1-0.1-0.2C28.1,644,28.1,644,28.1,643.9z"/>
	<path class="st3" d="M25.8,636.1h5.7v2.7H17v-4.4c0-1,0.1-1.8,0.3-2.5c0.2-0.7,0.5-1.3,0.9-1.7c0.4-0.4,0.8-0.8,1.3-1
		c0.5-0.2,1.1-0.3,1.7-0.3c0.5,0,0.9,0.1,1.4,0.2c0.4,0.1,0.8,0.4,1.2,0.6c0.4,0.3,0.7,0.6,0.9,1c0.3,0.4,0.5,0.8,0.6,1.4
		c0.2-0.3,0.5-0.6,0.8-0.9l5.3-3.6v2.4c0,0.2,0,0.4-0.1,0.6c-0.1,0.2-0.2,0.3-0.4,0.4l-4.6,3c-0.2,0.1-0.3,0.2-0.4,0.4
		s-0.1,0.3-0.1,0.6V636.1z M23.9,636.1v-1.7c0-0.5-0.1-0.9-0.2-1.3c-0.1-0.4-0.3-0.7-0.5-0.9c-0.2-0.2-0.5-0.4-0.8-0.5
		c-0.3-0.1-0.6-0.2-1-0.2c-0.7,0-1.3,0.2-1.7,0.7s-0.6,1.2-0.6,2.2v1.7H23.9z"/>
	<path class="st3" d="M29.3,619c0-0.5-0.1-1-0.3-1.4c-0.2-0.4-0.4-0.8-0.7-1s-0.7-0.5-1.1-0.7c-0.4-0.1-0.9-0.2-1.5-0.2H17V613h8.7
		c0.9,0,1.7,0.1,2.4,0.4c0.7,0.3,1.4,0.7,1.9,1.2c0.5,0.5,0.9,1.1,1.2,1.9s0.4,1.6,0.4,2.5c0,0.9-0.1,1.8-0.4,2.5s-0.7,1.4-1.2,1.9
		c-0.5,0.5-1.2,0.9-1.9,1.2c-0.7,0.3-1.5,0.4-2.4,0.4H17v-2.7h8.7c0.6,0,1.1-0.1,1.5-0.2c0.4-0.1,0.8-0.4,1.1-0.6
		c0.3-0.3,0.6-0.6,0.7-1C29.2,620,29.3,619.5,29.3,619z"/>
</g>
<g class="st2">
	<path class="st3" d="M26.2,601.2c0.2-0.1,0.5-0.2,0.7-0.3c-0.2-0.1-0.5-0.2-0.7-0.3c-0.2-0.1-0.5-0.2-0.7-0.3l-8-4.3
		c-0.1-0.1-0.2-0.1-0.2-0.2c-0.1-0.1-0.1-0.1-0.1-0.2c0-0.1,0-0.1,0-0.2c0-0.1,0-0.2,0-0.3v-2h14.5v2.4h-9.3c-0.2,0-0.4,0-0.6,0
		c-0.2,0-0.4,0-0.6,0l8.2,4.4c0.2,0.1,0.3,0.2,0.4,0.4c0.1,0.2,0.2,0.3,0.2,0.6v0.4c0,0.2-0.1,0.4-0.2,0.6c-0.1,0.2-0.2,0.3-0.4,0.4
		l-8.2,4.4c0.2,0,0.4,0,0.6-0.1s0.4,0,0.6,0h9.3v2.4H17v-2c0-0.1,0-0.2,0-0.3c0-0.1,0-0.2,0-0.2c0-0.1,0.1-0.1,0.1-0.2
		c0.1-0.1,0.1-0.1,0.2-0.2l8-4.3C25.7,601.4,25.9,601.3,26.2,601.2z"/>
</g>
<polyline id="Path-22_2_" class="st0" points="77,16.2 77,1 101,9 77,17 "/>
</svg>
