<?xml version="1.0" encoding="UTF-8"?>
<svg width="30px" height="30px" viewBox="0 0 30 30" version="1.1" xmlns="http://www.w3.org/2000/svg" xmlns:xlink="http://www.w3.org/1999/xlink">
    <!-- Generator: Sketch 52.3 (67297) - http://www.bohemiancoding.com/sketch -->
    <title>in_article</title>
    <desc>Created with Sketch.</desc>
    <defs>
        <linearGradient x1="1.20662332%" y1="2.14292466%" x2="90.267142%" y2="79.7543246%" id="linearGradient-1">
            <stop stop-color="#0497F4" offset="0%"></stop>
            <stop stop-color="#0BCBF9" offset="100%"></stop>
        </linearGradient>
    </defs>
    <g id="Design" stroke="none" stroke-width="1" fill="none" fill-rule="evenodd">
        <g id="Article-1440-" transform="translate(-1268.000000, -4512.000000)" fill="url(#linearGradient-1)" fill-rule="nonzero">
            <path d="M1283,4512 C1274.717,4512 1268,4518.717 1268,4527 C1268,4535.283 1274.717,4542 1283,4542 C1291.283,4542 1298,4535.283 1298,4527 C1298,4518.717 1291.283,4512 1283,4512 Z M1278.64117,4534.67578 L1274.98799,4534.67578 L1274.98799,4523.6851 L1278.64117,4523.6851 L1278.64117,4534.67578 Z M1276.8147,4522.18433 L1276.79089,4522.18433 C1275.565,4522.18433 1274.77216,4521.34044 1274.77216,4520.28575 C1274.77216,4519.20726 1275.58926,4518.38672 1276.83896,4518.38672 C1278.08865,4518.38672 1278.8577,4519.20726 1278.8815,4520.28575 C1278.8815,4521.34044 1278.08865,4522.18433 1276.8147,4522.18433 Z M1291.81378,4534.67578 L1288.16106,4534.67578 L1288.16106,4528.79604 C1288.16106,4527.31837 1287.63211,4526.31061 1286.31032,4526.31061 C1285.30118,4526.31061 1284.70013,4526.99039 1284.436,4527.64659 C1284.33942,4527.88142 1284.31584,4528.20964 1284.31584,4528.53809 L1284.31584,4534.67578 L1280.66289,4534.67578 C1280.66289,4534.67578 1280.71072,4524.71622 1280.66289,4523.6851 L1284.31584,4523.6851 L1284.31584,4525.24127 C1284.8013,4524.49237 1285.66991,4523.42715 1287.60808,4523.42715 C1290.01157,4523.42715 1291.81378,4524.99797 1291.81378,4528.37375 L1291.81378,4534.67578 Z" id="in_article"></path>
        </g>
    </g>
</svg>