<?xml version="1.0" encoding="UTF-8"?>
<svg width="310px" height="64px" viewBox="0 0 310 64" version="1.1" xmlns="http://www.w3.org/2000/svg" xmlns:xlink="http://www.w3.org/1999/xlink">
    <!-- Generator: Sketch 52.3 (67297) - http://www.bohemiancoding.com/sketch -->
    <title>Combined Shape</title>
    <desc>Created with Sketch.</desc>
    <g id="Design" stroke="none" stroke-width="1" fill="none" fill-rule="evenodd">
        <g id="Index---V1-Outsource" transform="translate(-105.000000, -26.000000)" fill="#FFFFFF">
            <path d="M237.168481,68.3963859 C238.252136,69.4909346 239.020901,70.5377527 239.47369,71.5357555 C239.92648,72.5337583 240.153417,73.6250526 240.153417,74.8074689 C240.153417,77.1104688 239.356421,79.0131828 237.763514,80.5145261 C236.169521,82.0158694 234.09125,82.7654562 231.529785,82.7654562 C229.528608,82.7654562 227.784771,82.2762179 226.29936,81.2966565 C224.81395,80.3160103 223.542448,78.7777843 222.484853,76.6787241 L226.980173,73.9689297 C228.332027,76.4498344 229.888016,77.6897443 231.648141,77.6897443 C232.56675,77.6897443 233.337686,77.4228871 233.963122,76.8880878 C234.587472,76.3543732 234.90019,75.7371302 234.90019,75.0374435 C234.90019,74.4017591 234.664566,73.76499 234.192231,73.1293056 C233.719897,72.4925364 232.680761,71.5205685 231.073738,70.2090627 C228.011708,67.7162254 226.034419,65.7929005 225.14187,64.4380032 C224.24932,63.083106 223.80196,61.7292935 223.80196,60.3819898 C223.80196,58.4347996 224.545751,56.7653145 226.030076,55.3724498 C227.515486,53.9795851 229.349446,53.2820679 231.5287,53.2820679 C232.931587,53.2820679 234.267153,53.6075036 235.535398,54.2562054 C236.803644,54.9049072 238.1783,56.0884083 239.657195,57.8056239 L235.696101,61.2975489 C234.304072,59.3644609 232.88924,58.3968321 231.446177,58.3968321 C230.745819,58.3968321 230.172503,58.5855848 229.725142,58.9609206 C229.278868,59.3351717 229.055187,59.7582381 229.055187,60.2301198 C229.055187,60.699832 229.214804,61.1445941 229.534037,61.5654909 C229.967281,62.1252403 231.274616,63.3271827 233.456041,65.1713183 C235.497395,66.8766013 236.735236,67.9516238 237.168481,68.3963859 Z M249.35004,53.6457965 L249.35004,61.2978743 L252.445731,61.2978743 L252.445731,65.782378 L249.35004,65.782378 L249.35004,82.0595862 L244.135902,82.0595862 L244.135902,65.782378 L241.461512,65.782378 L241.461512,61.2978743 L244.135902,61.2978743 L244.135902,53.6457965 L249.35004,53.6457965 Z M268.314973,76.049223 C269.399713,74.9167069 269.94154,73.4598398 269.94154,71.6797066 C269.94154,69.8974038 269.409485,68.4502998 268.34429,67.3383945 C267.279094,66.2243197 265.917468,65.6689095 264.259412,65.6689095 C262.639359,65.6689095 261.290763,66.2308284 260.212537,67.3568359 C259.134312,68.4817586 258.595742,69.9245234 258.595742,71.6797066 C258.595742,73.4858746 259.127797,74.9481656 260.194078,76.0687492 C261.258188,77.1882479 262.60787,77.7469125 264.239867,77.7469125 C265.872949,77.7469125 267.231318,77.1806544 268.314973,76.049223 Z M269.702659,62.2333934 C271.428036,63.2129548 272.774461,64.5418172 273.743018,66.2210653 C274.710489,67.9003135 275.194768,69.7129902 275.194768,71.6601804 C275.194768,73.6193033 274.708318,75.4515062 273.733246,77.1557044 C272.759259,78.8599026 271.431294,80.1931041 269.750435,81.1531394 C268.069576,82.1142594 266.217156,82.5937347 264.19209,82.5937347 C261.212583,82.5937347 258.668492,81.5360687 256.561989,79.4163976 C254.453315,77.2988961 253.401149,74.7257846 253.401149,71.6970631 C253.401149,68.4535541 254.590129,65.7513532 256.972432,63.5882906 C259.060476,61.7051028 261.461237,60.7635089 264.173631,60.7635089 C266.133548,60.7635089 267.977281,61.253832 269.702659,62.2333934 Z M289.931819,60.7636174 C291.991631,60.7636174 293.739811,61.4828302 295.176359,62.9201712 C296.383798,64.140555 296.988603,65.9478078 296.988603,68.3386753 L296.988603,82.0601286 L291.832015,82.0601286 L291.832015,72.9674556 C291.832015,70.4898052 291.720174,68.8441854 291.49758,68.031681 C291.274986,67.2180918 290.888432,66.5986792 290.335746,66.1723585 C289.78306,65.7471225 289.100076,65.5334197 288.286792,65.5334197 C287.23354,65.5334197 286.327961,65.8870598 285.572226,66.5921705 C284.815405,67.2972811 284.292037,68.2725034 283.99995,69.5178373 C283.846848,70.1654543 283.770841,71.5702517 283.770841,73.7300599 L283.770841,82.0601286 L278.555617,82.0601286 L278.555617,61.2973319 L283.770841,61.2973319 L283.770841,63.4256813 C284.953305,62.4287633 286.025016,61.7366701 286.984886,61.3483168 C287.944757,60.9588788 288.926344,60.7636174 289.931819,60.7636174 Z M305.581832,69.0839231 L316.889627,69.0839231 C316.54542,67.9264568 315.866778,66.9837781 314.852617,66.2591413 C313.838455,65.5345045 312.661419,65.1721861 311.32151,65.1721861 C309.867588,65.1721861 308.591743,65.5800655 307.496144,66.3936547 C306.806644,66.9024192 306.169264,67.7984521 305.581832,69.0839231 Z M311.064169,60.7636174 C314.336849,60.7636174 316.998209,61.8104355 319.048249,63.9029869 C321.098289,65.9944536 322.123309,68.7595722 322.123309,72.1940034 L322.10485,73.1865823 L305.352723,73.1865823 C305.594862,74.6629755 306.240929,75.8367135 307.290923,76.7067116 C308.342003,77.5788792 309.681912,78.0138783 311.311737,78.0138783 C313.260796,78.0138783 314.934054,77.3326329 316.335855,75.9723117 L320.729108,78.0334044 C319.63351,79.5857326 318.321832,80.7334358 316.794074,81.4775987 C315.266317,82.2217617 313.451901,82.5938431 311.350827,82.5938431 C308.091177,82.5938431 305.435246,81.567636 303.386292,79.5119672 C301.335166,77.458468 300.310146,74.8853565 300.310146,71.7937175 C300.310146,68.6250587 301.331908,65.9944536 303.376519,63.9029869 C305.420044,61.8104355 307.982594,60.7636174 311.064169,60.7636174 Z M341.668616,53.9890227 L341.668616,76.9647821 L349.462677,76.9647821 L349.462677,82.0600201 L336.319836,82.0600201 L336.319836,53.9890227 L341.668616,53.9890227 Z M366.009583,76.1159374 C367.087808,74.9769125 367.627464,73.4853322 367.627464,71.6411967 C367.627464,69.8339438 367.087808,68.370568 366.009583,67.2510693 C364.930272,66.1326553 363.566474,65.5718211 361.916018,65.5718211 C360.304652,65.5718211 358.966914,66.1424184 357.899547,67.2792737 C356.833265,68.4182986 356.30121,69.87842 356.30121,71.6607228 C356.30121,73.4538734 356.843038,74.9291819 357.927778,76.0877329 C359.013604,77.2441144 360.348085,77.8233899 361.935563,77.8233899 C363.572989,77.8233899 364.930272,77.2538775 366.009583,76.1159374 Z M367.397269,63.5877482 L367.397269,61.2977658 L372.613578,61.2977658 L372.613578,82.0605625 L367.397269,82.0605625 L367.397269,79.8649564 C366.380936,80.8325852 365.359173,81.5279328 364.336325,81.9553383 C363.312391,82.3805743 362.202676,82.5942771 361.007181,82.5942771 C358.323019,82.5942771 356.001522,81.5550524 354.042692,79.4744336 C352.084947,77.3938148 351.104446,74.8076859 351.104446,71.7160469 C351.104446,68.5105054 352.052372,65.8831546 353.948225,63.8361642 C355.842992,61.7880889 358.144943,60.7640513 360.855166,60.7640513 C362.100608,60.7640513 363.271129,60.9994498 364.364556,61.4691619 C365.457983,61.9410437 366.469973,62.6472391 367.397269,63.5877482 Z M391.814895,76.087299 C392.902893,74.9298328 393.446892,73.4534395 393.446892,71.6602889 C393.446892,69.8779861 392.912665,68.4189495 391.843127,67.2799246 C390.773588,66.1419845 389.423906,65.572472 387.794081,65.572472 C386.151225,65.572472 384.787428,66.1322214 383.705945,67.2506354 C382.623376,68.3712189 382.082634,69.8335099 382.082634,71.6407628 C382.082634,73.4859831 382.623376,74.9775633 383.705945,76.1155034 C384.787428,77.2534436 386.151225,77.8240408 387.794081,77.8240408 C389.385902,77.8240408 390.725811,77.2436805 391.814895,76.087299 Z M388.883164,60.7636174 C391.594472,60.7636174 393.899682,61.787655 395.79662,63.8357302 C397.694644,65.8838055 398.643656,68.5111563 398.643656,71.7166978 C398.643656,74.807252 397.663155,77.3933809 395.701067,79.4739997 C393.740065,81.5546185 391.416397,82.5938431 388.730063,82.5938431 C387.532396,82.5938431 386.418339,82.3812252 385.386804,81.9549044 C384.355269,81.5285837 383.331335,80.8321513 382.311744,79.8645225 L382.311744,82.0601286 L377.134524,82.0601286 L377.134524,53.2829357 L382.311744,53.2829357 L382.311744,63.5883991 C383.253155,62.6468052 384.272746,61.9406098 385.368345,61.468728 C386.462858,61.0001006 387.633378,60.7636174 388.883164,60.7636174 Z M413.873998,72.4992621 C414.624304,73.5298084 415,74.7382596 415,76.1257004 C415,77.969836 414.322444,79.5091468 412.965162,80.7436328 C411.61005,81.977034 409.791292,82.5942771 407.513228,82.5942771 C404.482687,82.5942771 402.06238,81.410776 400.25448,79.0448585 L403.463096,75.5529336 C404.075502,76.2656378 404.792147,76.8405741 405.613032,77.2799123 C406.432831,77.7181657 407.16142,77.9383772 407.7988,77.9383772 C408.486128,77.9383772 409.040986,77.772405 409.4612,77.4426302 C409.881415,77.1106858 410.092065,76.7288412 410.092065,76.2970966 C410.092065,75.49544 409.334159,74.7133095 407.818345,73.9496205 L406.061478,73.0709441 C402.69976,71.3808481 401.018901,69.2622618 401.018901,66.7173548 C401.018901,65.0760741 401.651938,63.6734463 402.919097,62.5094713 C404.186256,61.3454964 405.806309,60.7640513 407.780341,60.7640513 C409.130023,60.7640513 410.40044,61.059113 411.590506,61.6503211 C412.780571,62.2426141 413.789304,63.0920012 414.618875,64.1984826 L411.390714,67.4224654 C410.079035,66.1261466 408.887884,65.4774448 407.818345,65.4774448 C407.233085,65.4774448 406.774866,65.6011104 406.442603,65.8495263 C406.112512,66.0968574 405.946381,66.4060213 405.946381,66.7748484 C405.946381,67.0547231 406.051706,67.3129021 406.26127,67.5483005 C406.473007,67.7826142 406.98986,68.1037108 407.818345,68.5105054 L409.729399,69.4651167 C411.74035,70.4576956 413.121521,71.4698006 413.873998,72.4992621 Z M105,26.8014747 L196.373364,51.563876 L200.814394,59.0358793 L206.526925,65.7062261 L208.18281,83.5932561 L194.811946,90 L185.976578,88.9141296 L176.850208,90 L111.246758,43.5353776 L177.630917,87.5971999 L185.195869,85.7107577 L194.031237,86.7966281 L205.057803,81.9921126 L203.403003,66.5078827 L199.254061,60.6370229 L194.811946,53.1650196 L105,26.8014747 Z M164.861601,54.9917985 L109.510522,33.023805 L168.65222,54.2346182 L164.861601,54.9917985 Z M194.052954,45.5227049 L166.757453,37.9487317 L193.296133,43.3487945 L194.052954,45.5227049 Z M161.069896,65.5988323 L111.027421,38.3273219 L161.828888,63.5691984 L161.069896,65.5988323 Z M169.188618,58.2439858 L176.772029,55.2141796 L181.225002,55.9572577 L189.883381,55.7489789 L194.210398,60.5166117 L199.517917,66.5773089 L198.001018,67.3344893 L194.853208,63.7373402 L197.502624,73.8041507 L198.001018,67.3344893 L199.515745,66.6261243 L198.76001,77.9393535 L191.935592,81.7274249 L183.057877,80.7467787 L183.057877,80.2651339 L176.013036,80.9691597 L168.429626,77.9393535 L168.429626,74.1523669 L165.397999,71.1214759 L167.671719,65.0629482 L169.188618,58.2439858 Z M175.816502,67.3149632 L175.871879,67.3193023 L179.240112,57.2221178 L177.276938,56.8305102 L177.061945,56.9162082 L177.090176,56.9335648 L177.031541,57.0040759 L175.816502,67.3149632 Z M182.66698,57.4369053 L192.770593,61.3638293 L192.693499,61.273792 L189.072269,57.2839505 L182.66698,57.4369053 Z M179.988246,57.3707334 L176.699279,67.2314347 L192.66201,62.1286031 L180.70272,57.4835511 L180.562648,57.4868055 L179.988246,57.3707334 Z M170.441662,59.5609156 L169.376466,64.8785347 L175.638426,57.4846359 L170.441662,59.5609156 Z M168.886759,66.6228699 L175.062938,67.2401129 L176.145507,58.050894 L168.88893,66.6152764 L168.886759,66.6228699 Z M176.460397,68.1036023 L182.849398,78.7420949 L193.310248,62.7176417 L176.460397,68.1036023 Z M183.595361,78.9850868 L183.595361,79.0382413 L197.258313,76.9912509 L197.325634,76.104981 L193.919397,63.1699973 L183.595361,78.9850868 Z M168.613131,67.3529307 L167.418722,70.5346069 L174.548257,67.9452236 L168.613131,67.3529307 Z M167.391576,71.3514504 L169.353664,73.499326 L174.803426,68.656843 L167.391576,71.3514504 Z M175.923999,68.6774539 L175.730722,68.8499348 L176.013036,68.8499348 L176.013036,78.9178301 L176.28015,79.186857 L176.089044,79.3777792 L182.027428,78.8397256 L175.923999,68.6774539 Z M170.544815,73.4548498 L175.25513,78.159565 L175.25513,69.2719164 L170.544815,73.4548498 Z M169.946525,77.1810884 L175.155234,79.1326177 L169.976928,73.9581903 L169.864002,74.0590753 L169.946525,74.1523669 L169.946525,77.1810884 Z M185.620427,79.4927665 L192.05069,80.1468922 L195.893429,77.9534557 L185.620427,79.4927665 Z M161.828888,89.0801018 L146.664239,75.4443466 L164.861601,88.5181828 L161.828888,89.0801018 Z" id="Combined-Shape"></path>
        </g>
    </g>
</svg>